<?xml version="1.0" encoding="utf-8"?>
<!-- Generator: Adobe Illustrator 24.2.1, SVG Export Plug-In . SVG Version: 6.00 Build 0)  -->
<svg version="1.1" id="Layer_1" xmlns="http://www.w3.org/2000/svg" xmlns:xlink="http://www.w3.org/1999/xlink" x="0px" y="0px"
	 viewBox="0 0 200 100" style="enable-background:new 0 0 200 100;" xml:space="preserve">
<style type="text/css">
	.st0{enable-background:new    ;}
	.st1{fill:#3C4064;}
</style>
<g>
	<g>
		<g class="st0">
			<path class="st1" d="M53.23,45.54c-0.1-0.1-0.14-0.22-0.14-0.36l0.05-0.22l5.75-15.45c0.16-0.4,0.45-0.6,0.86-0.6h2.63
				c0.42,0,0.7,0.2,0.86,0.6l5.75,15.45l0.05,0.22c0,0.14-0.05,0.26-0.16,0.36c-0.1,0.1-0.22,0.14-0.35,0.14H66.4
				c-0.34,0-0.57-0.15-0.69-0.46l-1.1-2.9h-7.09l-1.1,2.9c-0.13,0.3-0.36,0.46-0.69,0.46h-2.13C53.44,45.69,53.32,45.64,53.23,45.54
				z M58.35,39.55h5.41l-2.71-7.38L58.35,39.55z"/>
			<path class="st1" d="M71.12,45.52c-0.11-0.11-0.17-0.25-0.17-0.41V33.83c0-0.18,0.06-0.32,0.17-0.43
				c0.11-0.11,0.25-0.17,0.41-0.17h1.96c0.18,0,0.32,0.06,0.43,0.17c0.11,0.11,0.17,0.26,0.17,0.43v0.98
				c0.8-1.05,1.95-1.58,3.45-1.58h1.01c0.18,0,0.32,0.05,0.42,0.16c0.1,0.1,0.16,0.24,0.16,0.42v1.75c0,0.16-0.05,0.3-0.16,0.41
				c-0.1,0.11-0.24,0.17-0.42,0.17h-1.89c-0.75,0-1.34,0.22-1.77,0.65c-0.43,0.43-0.65,1.02-0.65,1.77v6.56
				c0,0.16-0.06,0.3-0.17,0.41c-0.11,0.11-0.25,0.17-0.41,0.17h-2.13C71.37,45.69,71.23,45.63,71.12,45.52z"/>
			<path class="st1" d="M81.16,45.52c-0.11-0.11-0.17-0.25-0.17-0.41V33.8c0-0.18,0.06-0.32,0.17-0.42s0.25-0.16,0.41-0.16h1.89
				c0.18,0,0.32,0.05,0.42,0.16c0.1,0.1,0.16,0.24,0.16,0.42v0.81c0.86-1.09,2.02-1.63,3.47-1.63c1.77,0,3.01,0.71,3.71,2.13
				c0.38-0.64,0.93-1.15,1.63-1.54c0.7-0.39,1.46-0.59,2.28-0.59c1.31,0,2.38,0.45,3.21,1.34c0.83,0.89,1.25,2.2,1.25,3.9v6.88
				c0,0.16-0.05,0.3-0.16,0.41c-0.1,0.11-0.24,0.17-0.42,0.17h-1.99c-0.16,0-0.3-0.06-0.41-0.17c-0.11-0.11-0.17-0.25-0.17-0.41
				v-6.68c0-1.01-0.21-1.73-0.63-2.18c-0.42-0.45-0.98-0.67-1.67-0.67c-0.62,0-1.15,0.23-1.59,0.68c-0.44,0.46-0.66,1.18-0.66,2.17
				v6.68c0,0.16-0.05,0.3-0.16,0.41c-0.1,0.11-0.24,0.17-0.42,0.17H89.3c-0.16,0-0.3-0.06-0.41-0.17c-0.11-0.11-0.17-0.25-0.17-0.41
				v-6.68c0-0.99-0.22-1.71-0.65-2.17s-0.98-0.68-1.65-0.68c-0.62,0-1.15,0.23-1.59,0.68c-0.44,0.46-0.66,1.18-0.66,2.17v6.68
				c0,0.16-0.05,0.3-0.16,0.41c-0.1,0.11-0.24,0.17-0.42,0.17h-2.04C81.41,45.69,81.27,45.63,81.16,45.52z"/>
			<path class="st1" d="M104.32,45.37c-0.81-0.37-1.42-0.79-1.81-1.28s-0.59-0.91-0.59-1.26c0-0.16,0.05-0.29,0.16-0.38
				c0.1-0.1,0.23-0.14,0.37-0.14h1.96c0.13,0,0.24,0.06,0.34,0.19c0.08,0.06,0.26,0.22,0.54,0.46c0.28,0.24,0.6,0.43,0.96,0.56
				s0.75,0.2,1.19,0.2c0.64,0,1.16-0.12,1.56-0.37c0.4-0.25,0.6-0.6,0.6-1.07c0-0.32-0.09-0.58-0.28-0.78
				c-0.18-0.2-0.51-0.38-0.98-0.55c-0.47-0.17-1.18-0.35-2.12-0.56c-1.36-0.29-2.36-0.73-3.01-1.32c-0.65-0.59-0.97-1.37-0.97-2.35
				c0-0.64,0.19-1.24,0.58-1.81c0.38-0.57,0.95-1.03,1.71-1.39c0.76-0.36,1.67-0.54,2.72-0.54c1.09,0,2.02,0.17,2.8,0.51
				c0.78,0.34,1.38,0.75,1.79,1.23c0.41,0.48,0.61,0.9,0.61,1.27c0,0.14-0.05,0.27-0.16,0.37c-0.1,0.1-0.23,0.16-0.37,0.16h-1.8
				c-0.18,0-0.31-0.06-0.41-0.19c-0.11-0.08-0.29-0.23-0.54-0.44c-0.25-0.21-0.52-0.39-0.83-0.51c-0.3-0.13-0.67-0.19-1.1-0.19
				c-0.59,0-1.05,0.13-1.37,0.38c-0.32,0.26-0.48,0.59-0.48,1.01c0,0.29,0.08,0.53,0.23,0.72c0.15,0.19,0.46,0.37,0.92,0.54
				c0.46,0.17,1.16,0.34,2.08,0.52c2.87,0.56,4.31,1.81,4.31,3.76c0,1.13-0.49,2.05-1.47,2.75c-0.98,0.7-2.35,1.05-4.11,1.05
				C106.15,45.93,105.14,45.74,104.32,45.37z"/>
			<path class="st1" d="M122.03,44.49c-1.02-0.96-1.57-2.28-1.65-3.98l-0.02-1.05l0.02-1.05c0.08-1.68,0.64-3,1.68-3.96
				c1.04-0.97,2.48-1.45,4.34-1.45c1.84,0,3.27,0.48,4.31,1.45c1.04,0.97,1.6,2.29,1.68,3.96c0.02,0.19,0.02,0.54,0.02,1.05
				c0,0.51-0.01,0.86-0.02,1.05c-0.08,1.69-0.63,3.02-1.65,3.98c-1.02,0.96-2.47,1.44-4.34,1.44
				C124.5,45.93,123.05,45.45,122.03,44.49z M128.34,42.72c0.46-0.53,0.7-1.3,0.73-2.32c0.02-0.16,0.02-0.47,0.02-0.93
				c0-0.46-0.01-0.77-0.02-0.93c-0.03-1.02-0.28-1.8-0.74-2.33s-1.11-0.8-1.94-0.8c-0.85,0-1.5,0.27-1.96,0.8
				c-0.46,0.54-0.71,1.31-0.74,2.33l-0.02,0.93l0.02,0.93c0.03,1.02,0.28,1.8,0.74,2.32c0.46,0.53,1.12,0.79,1.96,0.79
				S127.88,43.24,128.34,42.72z"/>
			<path class="st1" d="M136.42,45.52c-0.11-0.11-0.17-0.25-0.17-0.41v-9.32h-1.94c-0.16,0-0.29-0.06-0.41-0.17
				c-0.11-0.11-0.17-0.25-0.17-0.41V33.8c0-0.16,0.06-0.29,0.17-0.41c0.11-0.11,0.25-0.17,0.41-0.17h1.94v-0.96
				c0-1.45,0.39-2.54,1.17-3.25c0.78-0.71,1.96-1.07,3.55-1.07h1.65c0.16,0,0.3,0.06,0.41,0.17c0.11,0.11,0.17,0.25,0.17,0.41v1.41
				c0,0.16-0.06,0.3-0.17,0.41c-0.11,0.11-0.25,0.17-0.41,0.17h-1.53c-0.62,0-1.06,0.15-1.32,0.46c-0.25,0.3-0.38,0.77-0.38,1.41
				v0.84h2.99c0.16,0,0.3,0.06,0.41,0.17c0.11,0.11,0.17,0.25,0.17,0.41v1.41c0,0.16-0.06,0.3-0.17,0.41
				c-0.11,0.11-0.25,0.17-0.41,0.17h-2.99v9.32c0,0.16-0.05,0.3-0.16,0.41c-0.1,0.11-0.24,0.17-0.42,0.17h-1.99
				C136.67,45.69,136.53,45.63,136.42,45.52z"/>
		</g>
		<g class="st0">
			<path class="st1" d="M54.78,68.07c-0.11-0.11-0.17-0.25-0.17-0.41V52.04c0-0.18,0.06-0.32,0.17-0.42
				c0.11-0.1,0.25-0.16,0.41-0.16h2.25c0.18,0,0.31,0.05,0.42,0.16c0.1,0.1,0.16,0.24,0.16,0.42v13.32h7.59
				c0.18,0,0.32,0.06,0.43,0.17c0.11,0.11,0.17,0.25,0.17,0.41v1.72c0,0.16-0.06,0.3-0.17,0.41c-0.11,0.11-0.26,0.17-0.43,0.17
				H55.19C55.03,68.24,54.9,68.18,54.78,68.07z"/>
			<path class="st1" d="M69.23,67.04c-1.02-0.96-1.57-2.28-1.65-3.98l-0.02-1.05l0.02-1.05c0.08-1.68,0.64-3,1.68-3.96
				c1.04-0.97,2.48-1.45,4.34-1.45c1.84,0,3.27,0.48,4.31,1.45c1.04,0.97,1.6,2.29,1.68,3.96c0.02,0.19,0.02,0.54,0.02,1.05
				c0,0.51-0.01,0.86-0.02,1.05c-0.08,1.69-0.63,3.02-1.65,3.98c-1.02,0.96-2.47,1.44-4.34,1.44C71.7,68.47,70.25,68,69.23,67.04z
				 M75.54,65.26c0.46-0.53,0.7-1.3,0.73-2.32c0.02-0.16,0.02-0.47,0.02-0.93c0-0.46-0.01-0.77-0.02-0.93
				c-0.03-1.02-0.28-1.8-0.74-2.33c-0.46-0.54-1.11-0.8-1.94-0.8c-0.85,0-1.5,0.27-1.96,0.8c-0.46,0.54-0.71,1.31-0.74,2.33
				l-0.02,0.93l0.02,0.93c0.03,1.02,0.28,1.8,0.74,2.32c0.46,0.53,1.12,0.79,1.96,0.79C74.43,66.06,75.09,65.79,75.54,65.26z"/>
			<path class="st1" d="M85.66,68.08c-0.13-0.1-0.23-0.25-0.31-0.44l-4.5-11.12c-0.02-0.05-0.02-0.12-0.02-0.22
				c0-0.14,0.05-0.27,0.16-0.37s0.22-0.16,0.35-0.16h1.99c0.32,0,0.53,0.15,0.65,0.46l3.16,8.36l3.16-8.36
				c0.03-0.11,0.1-0.21,0.2-0.31c0.1-0.1,0.24-0.14,0.42-0.14h1.99c0.14,0,0.26,0.05,0.36,0.16s0.14,0.23,0.14,0.37
				c0,0.1-0.01,0.17-0.02,0.22L88.9,67.64c-0.18,0.4-0.46,0.6-0.86,0.6h-1.82C85.97,68.24,85.79,68.18,85.66,68.08z"/>
			<path class="st1" d="M96.26,66.94c-1.05-1.02-1.6-2.47-1.66-4.36l-0.02-0.6c0-2,0.52-3.57,1.57-4.72
				c1.05-1.15,2.5-1.72,4.35-1.72c1.9,0,3.37,0.58,4.4,1.72c1.03,1.15,1.54,2.68,1.54,4.6v0.5c0,0.16-0.06,0.3-0.17,0.41
				c-0.11,0.11-0.26,0.17-0.43,0.17h-7.95v0.19c0.03,0.89,0.28,1.63,0.73,2.22s1.08,0.87,1.88,0.87c0.91,0,1.65-0.37,2.23-1.1
				c0.14-0.18,0.26-0.28,0.34-0.32c0.08-0.04,0.21-0.06,0.41-0.06h2.11c0.14,0,0.27,0.04,0.37,0.12c0.1,0.08,0.16,0.19,0.16,0.34
				c0,0.38-0.23,0.83-0.68,1.35c-0.46,0.52-1.11,0.97-1.95,1.35c-0.85,0.38-1.83,0.57-2.95,0.57
				C98.73,68.47,97.31,67.96,96.26,66.94z M103.12,60.91v-0.05c0-0.94-0.24-1.7-0.71-2.26c-0.47-0.57-1.11-0.85-1.93-0.85
				c-0.81,0-1.45,0.28-1.92,0.85c-0.46,0.57-0.69,1.32-0.69,2.26v0.05H103.12z"/>
		</g>
	</g>
	<path class="st1" d="M47.92,46.84c-1.36-5.43-4.77-10-9.58-12.87c-4.97-2.97-12.05-3.88-17.66-2.32c1.88,0.85,3.5,2.18,4.66,3.87
		c4.11-0.6,8.01,0.14,11.63,2.31c4.24,2.54,7.23,6.56,8.45,11.36c1.21,4.78,0.47,9.76-2.06,14c-3.57,5.99-10.3,8.36-17.27,7.9
		c-0.69-0.05-1.28,0.48-1.32,1.15c-0.05,0.68,0.47,1.28,1.15,1.32c0.46,0.03,0.93,0.05,1.39,0.05c7.44,0,14.16-3.81,17.99-10.21
		C48.19,58.57,49.29,52.28,47.92,46.84z"/>
	<path class="st1" d="M39.54,50.8c-0.18-0.76-0.59-1.43-1.15-1.95c-0.2-0.18-0.41-0.36-0.64-0.49c-0.86-0.53-1.88-0.68-2.95-0.45
		c-0.97,0.24-1.82,0.85-2.35,1.69c-0.07,0.12-0.16,0.27-0.27,0.44c-0.16-0.12-0.32-0.21-0.43-0.28c-0.86-0.54-1.88-0.71-2.89-0.5
		c-1.04,0.25-1.87,0.83-2.43,1.67c-0.57,0.87-0.77,1.91-0.56,2.93c0.01,0.04,0.02,0.08,0.03,0.11c0.01,0.05,0.02,0.09,0.03,0.14
		c0.17,0.71,0.62,1.4,1.34,2.06c0.35,0.32,0.75,0.62,1.2,0.91c0.29,0.18,4.45,2.47,4.32,2.6c-0.17,0.18-0.35,0.37-0.53,0.55
		c-0.36,0.41-0.88,0.82-1.29,1.11c-0.14,0.11-0.29,0.2-0.43,0.29c-1.99,1.35-4.39,2.13-6.98,2.13c-2.14,0-4.16-0.54-5.91-1.49
		c-0.07-0.03-0.13-0.05-0.19-0.09c-0.1-0.06-0.18-0.12-0.27-0.17c-2.79-1.66-4.85-4.38-5.64-7.6c-0.56-1.56-0.67-2.99-0.37-4.36
		c0.02-0.1,0.05-0.18,0.07-0.28c0.12-0.45,0.24-0.91-0.12-1.32c-0.03-0.04-0.07-0.08-0.1-0.12c-1.34-1.3-2.17-3.11-2.17-5.12
		c0-3.94,3.2-7.14,7.14-7.14s7.14,3.2,7.14,7.14c0,2.69-1.49,5.03-3.69,6.25c-0.08,0.13-0.12,0.29-0.14,0.45
		c-0.04,0.34,0.06,0.66,0.26,0.93c0.41,0.53,1.24,0.62,1.77,0.21c1.46-1.15,2.6-2.67,3.31-4.4c0.65-1.59,0.91-3.28,0.76-4.99
		c-0.2-2.4-1.22-4.7-2.86-6.47c-1.08-1.15-2.35-2.04-3.82-2.63c-1.35-0.55-2.79-0.82-4.22-0.8c-4.35,0.06-8.22,2.7-9.87,6.73
		c-1.44,3.55-0.89,7.63,1.44,10.67c-0.23,3.58,0.75,7.16,2.75,10.09c1.32,1.92,3,3.51,5.02,4.71c0.8,0.47,1.63,0.88,2.49,1.21
		c1.83,0.7,3.78,1.06,5.74,1.06c0.7,0,1.41-0.05,2.11-0.13c2.73-0.37,6.95-2.25,9.03-4.04c3.8-3.25,5.9-8.29,6.07-8.75
		C39.66,52.52,39.74,51.63,39.54,50.8z"/>
</g>
</svg>
