<?xml version="1.0" encoding="utf-8"?>
<!-- Generator: Adobe Illustrator 24.2.1, SVG Export Plug-In . SVG Version: 6.00 Build 0)  -->
<svg version="1.1" id="Layer_1" xmlns="http://www.w3.org/2000/svg" xmlns:xlink="http://www.w3.org/1999/xlink" x="0px" y="0px"
	 viewBox="0 0 200 50" style="enable-background:new 0 0 200 50;" xml:space="preserve">
<style type="text/css">
	.st0{fill:#3C4064;}
	.st1{font-family:'Rubik-Medium';}
	.st2{font-size:24.9333px;}
</style>
<g>
	<g>
		<text transform="matrix(1 0 0 1 54.7446 19.1821)"><tspan x="0" y="0" class="st0 st1 st2">Arms of</tspan><tspan x="0" y="23.47" class="st0 st1 st2">Love</tspan></text>
	</g>
	<path class="st0" d="M49.72,20.38c-1.42-5.65-4.96-10.41-9.97-13.4c-5.17-3.09-12.54-4.04-18.38-2.41
		c1.96,0.88,3.64,2.27,4.85,4.03c4.28-0.62,8.34,0.15,12.11,2.4c4.41,2.64,7.53,6.83,8.79,11.82c1.26,4.98,0.49,10.16-2.14,14.57
		c-3.72,6.23-10.72,8.7-17.97,8.22c-0.72-0.05-1.33,0.5-1.37,1.2c-0.05,0.71,0.49,1.33,1.2,1.37c0.48,0.03,0.97,0.05,1.45,0.05
		c7.74,0,14.74-3.97,18.72-10.63C50,32.59,51.15,26.04,49.72,20.38z"/>
	<path class="st0" d="M41,24.5c-0.19-0.79-0.61-1.49-1.2-2.03c-0.21-0.19-0.43-0.37-0.67-0.51c-0.9-0.55-1.96-0.71-3.07-0.47
		c-1.01,0.25-1.89,0.88-2.45,1.76c-0.07,0.12-0.17,0.28-0.28,0.46c-0.17-0.12-0.33-0.22-0.45-0.29c-0.89-0.56-1.96-0.74-3.01-0.52
		c-1.08,0.26-1.95,0.86-2.53,1.74c-0.59,0.91-0.8,1.99-0.58,3.05c0.01,0.04,0.02,0.08,0.03,0.11c0.01,0.05,0.02,0.09,0.03,0.15
		c0.18,0.74,0.65,1.46,1.39,2.14c0.36,0.33,0.78,0.65,1.25,0.95c0.3,0.19,4.63,2.57,4.5,2.71c-0.18,0.19-0.36,0.38-0.55,0.57
		c-0.37,0.43-0.92,0.85-1.34,1.16c-0.15,0.11-0.3,0.21-0.45,0.3c-2.07,1.4-4.57,2.22-7.26,2.22c-2.23,0-4.33-0.56-6.15-1.55
		c-0.07-0.03-0.14-0.05-0.2-0.09c-0.1-0.06-0.19-0.12-0.28-0.18c-2.9-1.73-5.05-4.56-5.87-7.91c-0.58-1.62-0.7-3.11-0.38-4.54
		c0.02-0.1,0.05-0.19,0.07-0.29c0.12-0.47,0.25-0.95-0.13-1.37c-0.03-0.04-0.07-0.08-0.1-0.12c-1.39-1.35-2.26-3.24-2.26-5.33
		c0-4.1,3.33-7.43,7.43-7.43c4.1,0,7.43,3.33,7.43,7.43c0,2.8-1.55,5.24-3.84,6.51c-0.08,0.14-0.13,0.3-0.15,0.47
		c-0.04,0.35,0.06,0.69,0.27,0.97c0.43,0.55,1.29,0.65,1.84,0.22c1.52-1.2,2.71-2.78,3.45-4.58c0.68-1.66,0.95-3.41,0.79-5.19
		c-0.21-2.5-1.27-4.89-2.98-6.73c-1.12-1.2-2.45-2.12-3.98-2.74c-1.4-0.57-2.9-0.85-4.39-0.83c-4.53,0.06-8.56,2.81-10.27,7
		c-1.5,3.69-0.93,7.94,1.5,11.11c-0.24,3.73,0.78,7.45,2.86,10.5c1.37,2,3.12,3.65,5.22,4.9c0.83,0.49,1.7,0.92,2.59,1.26
		c1.9,0.73,3.93,1.1,5.97,1.1c0.73,0,1.47-0.05,2.2-0.14c2.84-0.38,7.23-2.34,9.4-4.2c3.96-3.38,6.14-8.63,6.32-9.11
		C41.12,26.3,41.21,25.37,41,24.5z"/>
</g>
</svg>
