<?xml version="1.0" encoding="utf-8"?>
<!-- Generator: Adobe Illustrator 24.2.1, SVG Export Plug-In . SVG Version: 6.00 Build 0)  -->
<svg version="1.1" id="Layer_1" xmlns="http://www.w3.org/2000/svg" xmlns:xlink="http://www.w3.org/1999/xlink" x="0px" y="0px"
	 viewBox="0 0 200 100" style="enable-background:new 0 0 200 100;" xml:space="preserve">
<style type="text/css">
	.st0{fill:#3C4064;}
	.st1{font-family:'Rubik-Medium';}
	.st2{font-size:23.9552px;}
</style>
<g>
	<g>
		<text transform="matrix(1 0 0 1 52.7476 45.6859)" class="st0 st1 st2">Arms of</text>
		<text transform="matrix(1 0 0 1 52.7476 68.2357)" class="st0 st1 st2">Love</text>
	</g>
	<path class="st0" d="M47.92,46.84c-1.36-5.43-4.77-10-9.58-12.87c-4.97-2.97-12.05-3.88-17.66-2.32c1.88,0.85,3.5,2.18,4.66,3.87
		c4.11-0.6,8.01,0.14,11.63,2.31c4.24,2.54,7.23,6.56,8.45,11.36c1.21,4.78,0.47,9.76-2.06,14c-3.57,5.99-10.3,8.36-17.27,7.9
		c-0.69-0.05-1.28,0.48-1.32,1.15c-0.05,0.68,0.47,1.28,1.15,1.32c0.46,0.03,0.93,0.05,1.39,0.05c7.44,0,14.16-3.81,17.99-10.21
		C48.19,58.57,49.29,52.28,47.92,46.84z"/>
	<path class="st0" d="M39.54,50.8c-0.18-0.76-0.59-1.43-1.15-1.95c-0.2-0.18-0.41-0.36-0.64-0.49c-0.86-0.53-1.88-0.68-2.95-0.45
		c-0.97,0.24-1.82,0.85-2.35,1.69c-0.07,0.12-0.16,0.27-0.27,0.44c-0.16-0.12-0.32-0.21-0.43-0.28c-0.86-0.54-1.88-0.71-2.89-0.5
		c-1.04,0.25-1.87,0.83-2.43,1.67c-0.57,0.87-0.77,1.91-0.56,2.93c0.01,0.04,0.02,0.08,0.03,0.11c0.01,0.05,0.02,0.09,0.03,0.14
		c0.17,0.71,0.62,1.4,1.34,2.06c0.35,0.32,0.75,0.62,1.2,0.91c0.29,0.18,4.45,2.47,4.32,2.6c-0.17,0.18-0.35,0.37-0.53,0.55
		c-0.36,0.41-0.88,0.82-1.29,1.11c-0.14,0.11-0.29,0.2-0.43,0.29c-1.99,1.35-4.39,2.13-6.98,2.13c-2.14,0-4.16-0.54-5.91-1.49
		c-0.07-0.03-0.13-0.05-0.19-0.09c-0.1-0.06-0.18-0.12-0.27-0.17c-2.79-1.66-4.85-4.38-5.64-7.6c-0.56-1.56-0.67-2.99-0.37-4.36
		c0.02-0.1,0.05-0.18,0.07-0.28c0.12-0.45,0.24-0.91-0.12-1.32c-0.03-0.04-0.07-0.08-0.1-0.12c-1.34-1.3-2.17-3.11-2.17-5.12
		c0-3.94,3.2-7.14,7.14-7.14s7.14,3.2,7.14,7.14c0,2.69-1.49,5.03-3.69,6.25c-0.08,0.13-0.12,0.29-0.14,0.45
		c-0.04,0.34,0.06,0.66,0.26,0.93c0.41,0.53,1.24,0.62,1.77,0.21c1.46-1.15,2.6-2.67,3.31-4.4c0.65-1.59,0.91-3.28,0.76-4.99
		c-0.2-2.4-1.22-4.7-2.86-6.47c-1.08-1.15-2.35-2.04-3.82-2.63c-1.35-0.55-2.79-0.82-4.22-0.8c-4.35,0.06-8.22,2.7-9.87,6.73
		c-1.44,3.55-0.89,7.63,1.44,10.67c-0.23,3.58,0.75,7.16,2.75,10.09c1.32,1.92,3,3.51,5.02,4.71c0.8,0.47,1.63,0.88,2.49,1.21
		c1.83,0.7,3.78,1.06,5.74,1.06c0.7,0,1.41-0.05,2.11-0.13c2.73-0.37,6.95-2.25,9.03-4.04c3.8-3.25,5.9-8.29,6.07-8.75
		C39.66,52.52,39.74,51.63,39.54,50.8z"/>
</g>
</svg>
