<?xml version="1.0" encoding="utf-8"?>
<!-- Generator: Adobe Illustrator 24.2.1, SVG Export Plug-In . SVG Version: 6.00 Build 0)  -->
<svg version="1.1" id="Layer_1" xmlns="http://www.w3.org/2000/svg" xmlns:xlink="http://www.w3.org/1999/xlink" x="0px" y="0px"
	 viewBox="0 0 200 100" style="enable-background:new 0 0 200 100;" xml:space="preserve">
<style type="text/css">
	.st0{fill:#F15A35;}
	.st1{fill:#58595B;}
</style>
<polygon class="st0" points="48.51,62.61 48.51,67.12 23.9,67.12 23.9,36.72 54.31,36.72 54.31,57.53 "/>
<g>
	<g>
		<path class="st1" d="M58.29,31.58H20.17c-0.75,0-1.35,0.6-1.35,1.35v38.1c0,0.75,0.6,1.35,1.35,1.35h28.93v-2.7H21.53v-35.4h35.42
			V56.1l1.35-0.91v15.85l-1.86,1.35h1.86c0.75,0,1.35-0.6,1.35-1.35v-38.1C59.65,32.19,59.04,31.58,58.29,31.58z"/>
		<path class="st1" d="M49.11,79.05c-0.21,0-0.42-0.05-0.61-0.15c-0.45-0.23-0.74-0.7-0.74-1.2V61.4c0-0.45,0.22-0.87,0.59-1.12
			l9.19-6.21c0.41-0.28,0.95-0.31,1.39-0.07c0.44,0.23,0.72,0.69,0.72,1.19v15.85c0,0.43-0.21,0.84-0.56,1.09l-9.19,6.66
			C49.67,78.96,49.39,79.05,49.11,79.05z M50.46,62.11v12.94l6.48-4.7V57.73L50.46,62.11z"/>
	</g>
</g>
<path class="st1" d="M11.28,79.05c-0.21,0-0.41-0.05-0.6-0.14c-0.46-0.23-0.75-0.7-0.75-1.21V61.4c0-0.44,0.22-0.85,0.58-1.11
	l8.89-6.21c0.41-0.29,0.95-0.32,1.4-0.09c0.45,0.23,0.73,0.69,0.73,1.2v15.85c0,0.43-0.2,0.83-0.54,1.08l-8.89,6.66
	C11.85,78.96,11.57,79.05,11.28,79.05z M12.63,62.1V75l6.19-4.64V57.77L12.63,62.1z"/>
<g>
	<g>
		<path class="st1" d="M73.91,66.65c0,0.48-0.07,0.91-0.2,1.3c-0.13,0.39-0.31,0.73-0.55,1.03c-0.23,0.3-0.51,0.55-0.83,0.77
			c-0.32,0.21-0.68,0.39-1.06,0.53c-0.39,0.14-0.8,0.24-1.24,0.31c-0.44,0.07-0.93,0.1-1.47,0.1h-3.57c-0.23,0-0.42-0.07-0.58-0.2
			c-0.16-0.13-0.23-0.35-0.23-0.66V58.11c0-0.3,0.08-0.52,0.23-0.66c0.16-0.13,0.35-0.2,0.58-0.2h3.37c0.82,0,1.52,0.07,2.09,0.21
			s1.05,0.35,1.44,0.63c0.39,0.28,0.69,0.64,0.9,1.06s0.31,0.93,0.31,1.52c0,0.33-0.04,0.63-0.13,0.92
			c-0.08,0.29-0.2,0.55-0.36,0.78s-0.35,0.44-0.59,0.62c-0.23,0.18-0.5,0.33-0.79,0.44c0.38,0.07,0.73,0.19,1.05,0.36
			c0.32,0.17,0.6,0.4,0.84,0.67c0.24,0.27,0.43,0.59,0.57,0.96C73.84,65.79,73.91,66.2,73.91,66.65z M70.38,61
			c0-0.27-0.04-0.51-0.12-0.73c-0.08-0.21-0.21-0.39-0.37-0.53c-0.17-0.14-0.38-0.25-0.63-0.33c-0.25-0.08-0.59-0.11-1.01-0.11
			h-1.38v3.49h1.53c0.4,0,0.71-0.05,0.94-0.14c0.24-0.09,0.43-0.22,0.59-0.38c0.16-0.16,0.27-0.35,0.35-0.57
			C70.34,61.47,70.38,61.24,70.38,61z M71.07,66.75c0-0.31-0.05-0.59-0.16-0.84c-0.1-0.25-0.26-0.45-0.46-0.62
			c-0.2-0.17-0.46-0.29-0.77-0.38s-0.72-0.14-1.21-0.14h-1.62v3.82h1.97c0.38,0,0.7-0.04,0.96-0.12s0.48-0.2,0.67-0.35
			s0.34-0.35,0.45-0.58C71.02,67.31,71.07,67.05,71.07,66.75z"/>
		<path class="st1" d="M86.9,69.67c0.08,0.25,0.14,0.45,0.16,0.59c0.02,0.15-0.01,0.25-0.08,0.33c-0.08,0.07-0.21,0.12-0.41,0.14
			c-0.19,0.02-0.46,0.03-0.8,0.03c-0.35,0-0.63-0.01-0.83-0.02c-0.2-0.01-0.35-0.03-0.45-0.06c-0.1-0.03-0.18-0.07-0.22-0.13
			c-0.04-0.06-0.08-0.13-0.1-0.22l-0.9-2.7h-5.05l-0.85,2.63c-0.03,0.1-0.06,0.18-0.11,0.24c-0.04,0.07-0.12,0.12-0.22,0.16
			c-0.1,0.04-0.24,0.06-0.43,0.08c-0.18,0.01-0.42,0.02-0.72,0.02c-0.32,0-0.57-0.01-0.75-0.03c-0.18-0.02-0.3-0.07-0.37-0.15
			s-0.09-0.19-0.07-0.34c0.02-0.15,0.07-0.34,0.16-0.58L79,57.72c0.04-0.12,0.09-0.21,0.14-0.29c0.06-0.07,0.14-0.13,0.26-0.17
			s0.29-0.06,0.5-0.07c0.21-0.01,0.5-0.02,0.85-0.02c0.41,0,0.73,0.01,0.98,0.02c0.24,0.01,0.43,0.04,0.57,0.07
			c0.14,0.04,0.23,0.09,0.29,0.17c0.06,0.08,0.11,0.18,0.15,0.31L86.9,69.67z M80.73,59.81h-0.01l-1.9,5.71h3.81L80.73,59.81z"/>
		<path class="st1" d="M97.82,68.65c0,0.17-0.01,0.32-0.02,0.44c-0.01,0.12-0.03,0.23-0.05,0.31c-0.02,0.09-0.05,0.16-0.08,0.22
			s-0.09,0.13-0.17,0.21c-0.08,0.08-0.22,0.18-0.44,0.31s-0.48,0.24-0.8,0.36s-0.67,0.21-1.08,0.29c-0.41,0.08-0.84,0.11-1.31,0.11
			c-0.92,0-1.75-0.14-2.49-0.43c-0.74-0.28-1.37-0.71-1.89-1.27c-0.52-0.56-0.92-1.27-1.19-2.11c-0.28-0.84-0.42-1.83-0.42-2.95
			c0-1.14,0.15-2.16,0.46-3.04s0.73-1.63,1.28-2.23c0.55-0.6,1.2-1.06,1.97-1.37c0.76-0.31,1.61-0.47,2.53-0.47
			c0.37,0,0.73,0.03,1.08,0.09c0.35,0.06,0.67,0.14,0.96,0.24c0.29,0.1,0.56,0.22,0.79,0.35c0.23,0.13,0.4,0.24,0.49,0.34
			c0.09,0.09,0.16,0.17,0.19,0.23s0.06,0.14,0.08,0.24c0.02,0.1,0.04,0.21,0.05,0.34s0.02,0.29,0.02,0.49
			c0,0.21-0.01,0.38-0.02,0.53c-0.01,0.15-0.04,0.26-0.07,0.35c-0.03,0.09-0.08,0.16-0.12,0.2c-0.05,0.04-0.1,0.06-0.17,0.06
			c-0.1,0-0.24-0.06-0.4-0.18c-0.16-0.12-0.36-0.26-0.62-0.41c-0.25-0.15-0.55-0.28-0.9-0.4s-0.77-0.18-1.25-0.18
			c-0.53,0-1.01,0.11-1.43,0.33c-0.42,0.22-0.78,0.53-1.07,0.93c-0.29,0.4-0.52,0.89-0.67,1.47c-0.15,0.57-0.23,1.22-0.23,1.94
			c0,0.79,0.08,1.47,0.24,2.05c0.16,0.58,0.4,1.05,0.7,1.43c0.3,0.37,0.66,0.65,1.09,0.84c0.43,0.18,0.91,0.28,1.44,0.28
			c0.48,0,0.9-0.06,1.26-0.17c0.35-0.11,0.66-0.24,0.91-0.38s0.46-0.26,0.62-0.37c0.16-0.11,0.29-0.17,0.38-0.17
			c0.07,0,0.12,0.01,0.17,0.04c0.04,0.03,0.08,0.08,0.1,0.17c0.03,0.08,0.05,0.2,0.06,0.35C97.81,68.2,97.82,68.4,97.82,68.65z"/>
		<path class="st1" d="M109.59,70.28c0,0.08-0.02,0.14-0.06,0.2c-0.04,0.06-0.11,0.11-0.22,0.15c-0.11,0.04-0.25,0.07-0.44,0.09
			c-0.19,0.02-0.42,0.03-0.71,0.03c-0.45,0-0.77-0.02-0.97-0.05c-0.2-0.03-0.34-0.09-0.43-0.16c-0.09-0.07-0.15-0.15-0.2-0.25
			l-4.06-6.38v6.38c0,0.08-0.02,0.14-0.06,0.2c-0.04,0.06-0.11,0.1-0.22,0.14c-0.1,0.04-0.24,0.07-0.42,0.09
			c-0.17,0.02-0.39,0.03-0.66,0.03c-0.26,0-0.48-0.01-0.66-0.03c-0.18-0.02-0.32-0.05-0.42-0.09c-0.1-0.04-0.18-0.08-0.22-0.14
			c-0.05-0.06-0.07-0.12-0.07-0.2V57.63c0-0.08,0.02-0.14,0.07-0.2c0.04-0.06,0.12-0.1,0.22-0.14s0.24-0.06,0.42-0.08
			c0.18-0.02,0.4-0.03,0.66-0.03c0.27,0,0.49,0.01,0.66,0.03c0.17,0.02,0.31,0.05,0.42,0.08s0.18,0.08,0.22,0.14
			c0.04,0.06,0.06,0.12,0.06,0.2v5.72l3.94-5.71c0.05-0.09,0.11-0.16,0.18-0.22c0.07-0.06,0.16-0.11,0.27-0.14
			c0.11-0.03,0.25-0.06,0.43-0.07c0.17-0.01,0.39-0.02,0.66-0.02c0.28,0,0.5,0.01,0.69,0.03c0.18,0.02,0.32,0.05,0.43,0.09
			c0.11,0.04,0.18,0.09,0.22,0.14c0.04,0.06,0.06,0.12,0.06,0.19c0,0.12-0.03,0.24-0.09,0.36c-0.06,0.12-0.18,0.32-0.35,0.59
			l-3.69,4.83l4.02,6.07c0.15,0.28,0.24,0.47,0.28,0.57C109.58,70.15,109.59,70.22,109.59,70.28z"/>
		<path class="st1" d="M122.57,63.77c0,1.23-0.16,2.29-0.48,3.16c-0.32,0.88-0.78,1.59-1.39,2.14c-0.6,0.55-1.33,0.96-2.2,1.22
			c-0.86,0.26-1.89,0.39-3.08,0.39h-3.21c-0.23,0-0.42-0.07-0.58-0.2c-0.16-0.13-0.23-0.35-0.23-0.66V58.11
			c0-0.3,0.08-0.52,0.23-0.66c0.16-0.13,0.35-0.2,0.58-0.2h3.45c1.2,0,2.21,0.14,3.05,0.42c0.83,0.28,1.54,0.7,2.11,1.25
			c0.57,0.55,1.01,1.23,1.3,2.04C122.42,61.76,122.57,62.7,122.57,63.77z M119.75,63.86c0-0.64-0.07-1.23-0.22-1.78
			c-0.15-0.55-0.39-1.02-0.72-1.42c-0.33-0.4-0.75-0.71-1.27-0.94c-0.52-0.23-1.19-0.34-2.03-0.34h-1.38v9.14h1.42
			c0.75,0,1.38-0.1,1.89-0.29c0.51-0.19,0.94-0.49,1.28-0.88c0.34-0.39,0.6-0.88,0.77-1.46C119.66,65.31,119.75,64.64,119.75,63.86z
			"/>
		<path class="st1" d="M134.78,70.33c0,0.08-0.01,0.14-0.04,0.19c-0.03,0.05-0.09,0.1-0.2,0.13c-0.1,0.03-0.26,0.06-0.46,0.07
			c-0.2,0.01-0.47,0.02-0.82,0.02c-0.29,0-0.52-0.01-0.7-0.02c-0.17-0.01-0.31-0.04-0.41-0.08c-0.1-0.04-0.17-0.09-0.21-0.14
			c-0.04-0.06-0.08-0.13-0.1-0.21l-1.2-3c-0.15-0.34-0.29-0.64-0.43-0.9c-0.14-0.26-0.29-0.48-0.46-0.66
			c-0.17-0.18-0.37-0.31-0.59-0.4c-0.22-0.09-0.48-0.13-0.77-0.13h-0.85v5.12c0,0.07-0.02,0.13-0.07,0.19
			c-0.05,0.06-0.12,0.1-0.22,0.13c-0.1,0.03-0.24,0.06-0.42,0.08c-0.17,0.02-0.39,0.03-0.66,0.03c-0.26,0-0.48-0.01-0.66-0.03
			c-0.18-0.02-0.32-0.05-0.42-0.08c-0.1-0.03-0.18-0.08-0.22-0.13c-0.04-0.06-0.06-0.12-0.06-0.19v-12.2c0-0.3,0.08-0.52,0.23-0.66
			c0.16-0.13,0.35-0.2,0.58-0.2h3.48c0.35,0,0.64,0.01,0.87,0.02c0.23,0.01,0.44,0.03,0.62,0.05c0.54,0.08,1.03,0.21,1.46,0.39
			c0.43,0.19,0.8,0.43,1.1,0.73c0.3,0.3,0.53,0.66,0.69,1.07c0.16,0.41,0.24,0.88,0.24,1.42c0,0.45-0.06,0.86-0.17,1.23
			c-0.11,0.37-0.28,0.7-0.5,0.99c-0.22,0.29-0.5,0.54-0.82,0.76c-0.33,0.21-0.7,0.39-1.11,0.52c0.2,0.1,0.39,0.21,0.57,0.35
			c0.18,0.14,0.34,0.31,0.5,0.5c0.16,0.2,0.3,0.42,0.44,0.67c0.14,0.25,0.27,0.54,0.4,0.86l1.13,2.65c0.1,0.26,0.17,0.46,0.21,0.58
			C134.77,70.17,134.78,70.26,134.78,70.33z M131.26,61.21c0-0.44-0.1-0.82-0.3-1.12c-0.2-0.3-0.53-0.52-0.99-0.64
			c-0.14-0.03-0.3-0.06-0.47-0.08c-0.18-0.02-0.42-0.03-0.73-0.03h-1.23v3.81h1.39c0.39,0,0.73-0.05,1.02-0.14
			c0.29-0.09,0.53-0.22,0.73-0.39c0.19-0.17,0.34-0.37,0.44-0.61C131.21,61.77,131.26,61.5,131.26,61.21z"/>
		<path class="st1" d="M148.67,63.81c0,1.11-0.14,2.11-0.42,2.99c-0.28,0.88-0.69,1.62-1.24,2.24c-0.55,0.61-1.22,1.08-2.03,1.4
			c-0.81,0.32-1.74,0.48-2.8,0.48c-1.05,0-1.96-0.14-2.74-0.41c-0.78-0.27-1.43-0.69-1.95-1.25c-0.52-0.56-0.91-1.27-1.17-2.14
			s-0.39-1.89-0.39-3.07c0-1.09,0.14-2.06,0.42-2.93c0.28-0.87,0.69-1.61,1.24-2.22c0.55-0.61,1.22-1.08,2.03-1.4
			c0.81-0.33,1.74-0.49,2.81-0.49c1.02,0,1.92,0.13,2.69,0.4c0.78,0.27,1.43,0.69,1.95,1.25s0.92,1.27,1.18,2.12
			C148.53,61.64,148.67,62.65,148.67,63.81z M145.8,63.95c0-0.71-0.06-1.35-0.17-1.93c-0.11-0.58-0.3-1.07-0.57-1.48
			c-0.27-0.41-0.62-0.73-1.06-0.96c-0.44-0.23-1-0.34-1.66-0.34c-0.67,0-1.23,0.13-1.68,0.38c-0.45,0.25-0.81,0.59-1.09,1.01
			c-0.28,0.42-0.47,0.92-0.59,1.48c-0.11,0.56-0.17,1.16-0.17,1.79c0,0.73,0.06,1.39,0.17,1.98c0.11,0.59,0.3,1.09,0.56,1.5
			c0.26,0.42,0.62,0.73,1.06,0.95c0.44,0.22,1,0.33,1.67,0.33c0.67,0,1.23-0.13,1.68-0.37c0.45-0.25,0.81-0.59,1.09-1.02
			c0.28-0.43,0.47-0.93,0.59-1.5C145.74,65.21,145.8,64.6,145.8,63.95z"/>
		<path class="st1" d="M160.16,61.33c0,0.75-0.12,1.42-0.35,2c-0.24,0.58-0.58,1.07-1.03,1.47c-0.45,0.4-1,0.7-1.66,0.91
			c-0.65,0.21-1.42,0.31-2.31,0.31h-1.12v4.29c0,0.07-0.02,0.13-0.07,0.19c-0.05,0.06-0.12,0.1-0.22,0.13
			c-0.1,0.03-0.24,0.06-0.42,0.08c-0.17,0.02-0.39,0.03-0.66,0.03c-0.26,0-0.48-0.01-0.66-0.03c-0.18-0.02-0.32-0.05-0.42-0.08
			c-0.1-0.03-0.18-0.08-0.22-0.13c-0.04-0.06-0.06-0.12-0.06-0.19V58.22c0-0.33,0.08-0.57,0.25-0.73c0.17-0.16,0.39-0.24,0.67-0.24
			h3.17c0.32,0,0.62,0.01,0.91,0.04c0.29,0.02,0.63,0.08,1.03,0.16c0.4,0.08,0.81,0.23,1.22,0.44c0.41,0.21,0.76,0.49,1.05,0.81
			c0.29,0.33,0.51,0.71,0.66,1.15C160.08,60.29,160.16,60.78,160.16,61.33z M157.31,61.53c0-0.47-0.08-0.86-0.25-1.16
			c-0.17-0.3-0.37-0.53-0.61-0.68c-0.24-0.14-0.5-0.24-0.76-0.28c-0.27-0.04-0.54-0.06-0.83-0.06h-1.16v4.56h1.23
			c0.44,0,0.8-0.06,1.1-0.18c0.29-0.12,0.53-0.28,0.72-0.49c0.19-0.21,0.33-0.46,0.43-0.76C157.26,62.19,157.31,61.87,157.31,61.53z
			"/>
		<path class="st1" d="M170.24,66.65c0,0.71-0.13,1.33-0.39,1.86c-0.26,0.53-0.62,0.98-1.07,1.33c-0.45,0.36-0.98,0.62-1.58,0.8
			c-0.6,0.18-1.25,0.27-1.93,0.27c-0.46,0-0.89-0.04-1.29-0.11c-0.4-0.08-0.75-0.17-1.05-0.28c-0.3-0.11-0.56-0.22-0.76-0.34
			c-0.2-0.12-0.35-0.22-0.44-0.31c-0.09-0.09-0.15-0.22-0.19-0.39c-0.04-0.17-0.06-0.41-0.06-0.73c0-0.21,0.01-0.39,0.02-0.54
			c0.01-0.15,0.04-0.26,0.07-0.35c0.03-0.09,0.07-0.15,0.13-0.19c0.05-0.04,0.11-0.06,0.18-0.06c0.1,0,0.23,0.06,0.41,0.17
			c0.18,0.11,0.4,0.24,0.68,0.38c0.28,0.14,0.61,0.26,0.99,0.38c0.38,0.11,0.83,0.17,1.33,0.17c0.33,0,0.63-0.04,0.89-0.12
			c0.26-0.08,0.49-0.19,0.67-0.34c0.18-0.14,0.32-0.33,0.42-0.54c0.1-0.21,0.15-0.45,0.15-0.72c0-0.3-0.08-0.57-0.25-0.78
			c-0.17-0.22-0.38-0.41-0.65-0.58c-0.27-0.17-0.57-0.33-0.91-0.48c-0.34-0.15-0.69-0.31-1.05-0.47c-0.36-0.17-0.71-0.35-1.05-0.57
			c-0.34-0.21-0.64-0.46-0.91-0.76c-0.27-0.29-0.48-0.64-0.65-1.04c-0.17-0.4-0.25-0.88-0.25-1.44c0-0.64,0.12-1.21,0.36-1.7
			c0.24-0.49,0.56-0.89,0.97-1.21c0.4-0.32,0.88-0.56,1.43-0.72c0.55-0.16,1.13-0.24,1.75-0.24c0.32,0,0.64,0.02,0.96,0.07
			c0.32,0.05,0.62,0.11,0.89,0.2c0.28,0.08,0.52,0.18,0.74,0.28c0.21,0.1,0.36,0.19,0.43,0.26c0.07,0.07,0.12,0.13,0.14,0.18
			c0.02,0.05,0.04,0.11,0.06,0.19c0.02,0.08,0.03,0.18,0.04,0.3c0.01,0.12,0.01,0.27,0.01,0.45c0,0.2-0.01,0.37-0.02,0.51
			s-0.03,0.25-0.05,0.34c-0.02,0.09-0.06,0.16-0.1,0.2c-0.04,0.04-0.11,0.06-0.18,0.06c-0.08,0-0.2-0.05-0.36-0.15
			c-0.17-0.1-0.37-0.2-0.61-0.32c-0.24-0.11-0.52-0.22-0.84-0.31c-0.32-0.09-0.67-0.14-1.05-0.14c-0.3,0-0.56,0.04-0.78,0.11
			c-0.22,0.07-0.41,0.17-0.56,0.3c-0.15,0.13-0.26,0.28-0.33,0.46c-0.07,0.18-0.11,0.37-0.11,0.57c0,0.3,0.08,0.56,0.24,0.77
			c0.16,0.22,0.38,0.41,0.65,0.58c0.27,0.17,0.58,0.33,0.93,0.48c0.35,0.15,0.7,0.31,1.06,0.47c0.36,0.17,0.71,0.35,1.06,0.57
			c0.35,0.21,0.65,0.46,0.92,0.76c0.27,0.29,0.49,0.64,0.65,1.04C170.16,65.65,170.24,66.11,170.24,66.65z"/>
	</g>
</g>
<g>
	<g>
		<path class="st1" d="M76.67,51.08c0,0.31-0.01,0.58-0.04,0.79c-0.03,0.21-0.07,0.38-0.12,0.51c-0.05,0.13-0.12,0.23-0.2,0.29
			s-0.17,0.09-0.27,0.09H65.45c-0.36,0-0.66-0.11-0.9-0.32c-0.24-0.21-0.37-0.56-0.37-1.03V33.03c0-0.48,0.12-0.82,0.37-1.03
			c0.24-0.21,0.55-0.32,0.9-0.32h10.52c0.1,0,0.18,0.03,0.26,0.08c0.08,0.05,0.14,0.15,0.2,0.29c0.05,0.14,0.1,0.31,0.12,0.52
			c0.03,0.21,0.04,0.48,0.04,0.81c0,0.3-0.01,0.56-0.04,0.77c-0.03,0.21-0.07,0.38-0.12,0.51c-0.05,0.13-0.12,0.23-0.2,0.29
			c-0.08,0.06-0.16,0.09-0.26,0.09h-7.52v5.15h6.37c0.1,0,0.19,0.03,0.27,0.09s0.15,0.15,0.2,0.28c0.05,0.12,0.1,0.29,0.12,0.5
			c0.03,0.21,0.04,0.47,0.04,0.77c0,0.31-0.01,0.58-0.04,0.78c-0.03,0.21-0.07,0.37-0.12,0.5c-0.05,0.12-0.12,0.21-0.2,0.27
			s-0.17,0.08-0.27,0.08h-6.37v5.94h7.59c0.1,0,0.19,0.03,0.27,0.09c0.08,0.06,0.15,0.15,0.2,0.29c0.05,0.13,0.1,0.3,0.12,0.51
			C76.66,50.5,76.67,50.76,76.67,51.08z"/>
		<path class="st1" d="M95.46,51.14c0.2,0.38,0.32,0.68,0.38,0.91c0.06,0.23,0.02,0.4-0.11,0.52c-0.13,0.12-0.37,0.2-0.71,0.23
			c-0.34,0.03-0.82,0.05-1.43,0.05c-0.51,0-0.91-0.01-1.21-0.03c-0.29-0.02-0.52-0.06-0.69-0.11c-0.17-0.05-0.29-0.12-0.37-0.2
			c-0.08-0.09-0.14-0.2-0.2-0.33l-3.96-7.61l-3.94,7.61c-0.07,0.13-0.14,0.24-0.21,0.33c-0.08,0.09-0.2,0.16-0.37,0.2
			c-0.17,0.05-0.4,0.08-0.7,0.11c-0.3,0.02-0.69,0.03-1.18,0.03c-0.56,0-1-0.02-1.31-0.05c-0.31-0.03-0.52-0.11-0.63-0.23
			c-0.11-0.12-0.13-0.29-0.06-0.52c0.06-0.23,0.2-0.53,0.41-0.91l5.05-9.2l-4.69-8.65c-0.2-0.39-0.33-0.7-0.4-0.94
			c-0.07-0.23-0.04-0.41,0.08-0.52c0.12-0.11,0.36-0.18,0.69-0.21c0.34-0.03,0.81-0.04,1.43-0.04c0.51,0,0.92,0.01,1.21,0.03
			c0.3,0.02,0.53,0.06,0.71,0.11c0.17,0.05,0.3,0.12,0.37,0.2c0.07,0.09,0.14,0.2,0.2,0.33l3.7,6.97l3.6-6.97
			c0.07-0.13,0.13-0.24,0.2-0.33c0.07-0.09,0.18-0.16,0.34-0.2c0.16-0.05,0.37-0.08,0.65-0.11c0.28-0.02,0.66-0.03,1.15-0.03
			c0.54,0,0.97,0.01,1.29,0.04c0.31,0.03,0.53,0.1,0.65,0.22c0.12,0.12,0.15,0.29,0.09,0.52c-0.06,0.23-0.18,0.54-0.37,0.93
			l-4.69,8.6L95.46,51.14z"/>
		<path class="st1" d="M115.27,52.17c0,0.11-0.04,0.21-0.11,0.29c-0.07,0.09-0.19,0.16-0.35,0.21c-0.16,0.05-0.38,0.1-0.65,0.13
			c-0.27,0.03-0.61,0.05-1.03,0.05c-0.42,0-0.77-0.02-1.05-0.05c-0.28-0.03-0.49-0.08-0.65-0.13c-0.16-0.05-0.27-0.12-0.34-0.21
			c-0.07-0.09-0.11-0.18-0.11-0.29v-8.52h-7.88v8.52c0,0.11-0.03,0.21-0.1,0.29c-0.07,0.09-0.18,0.16-0.34,0.21
			c-0.16,0.05-0.38,0.1-0.65,0.13c-0.27,0.03-0.62,0.05-1.04,0.05c-0.41,0-0.76-0.02-1.03-0.05c-0.28-0.03-0.5-0.08-0.66-0.13
			c-0.16-0.05-0.28-0.12-0.35-0.21c-0.07-0.09-0.11-0.18-0.11-0.29v-19.9c0-0.11,0.03-0.21,0.11-0.29c0.07-0.09,0.19-0.16,0.35-0.21
			c0.16-0.05,0.38-0.1,0.66-0.13c0.28-0.03,0.62-0.05,1.03-0.05c0.42,0,0.77,0.02,1.04,0.05c0.27,0.03,0.49,0.08,0.65,0.13
			c0.16,0.05,0.28,0.13,0.34,0.21c0.07,0.09,0.1,0.18,0.1,0.29V40h7.88v-7.74c0-0.11,0.04-0.21,0.11-0.29
			c0.07-0.09,0.18-0.16,0.34-0.21c0.16-0.05,0.37-0.1,0.65-0.13c0.28-0.03,0.63-0.05,1.05-0.05c0.41,0,0.75,0.02,1.03,0.05
			c0.27,0.03,0.49,0.08,0.65,0.13c0.16,0.05,0.28,0.13,0.35,0.21c0.07,0.09,0.11,0.18,0.11,0.29V52.17z"/>
		<path class="st1" d="M124.16,52.17c0,0.11-0.04,0.21-0.11,0.29c-0.07,0.09-0.19,0.16-0.35,0.21c-0.16,0.05-0.38,0.1-0.65,0.13
			c-0.27,0.03-0.62,0.05-1.04,0.05c-0.41,0-0.76-0.02-1.03-0.05c-0.28-0.03-0.5-0.08-0.66-0.13c-0.16-0.05-0.28-0.12-0.35-0.21
			c-0.07-0.09-0.11-0.18-0.11-0.29v-19.9c0-0.11,0.03-0.21,0.11-0.29c0.07-0.09,0.19-0.16,0.36-0.21c0.17-0.05,0.39-0.1,0.66-0.13
			c0.27-0.03,0.61-0.05,1.03-0.05c0.42,0,0.77,0.02,1.04,0.05c0.27,0.03,0.49,0.08,0.65,0.13c0.16,0.05,0.28,0.13,0.35,0.21
			c0.07,0.09,0.11,0.18,0.11,0.29V52.17z"/>
		<path class="st1" d="M144.02,46.44c0,0.75-0.1,1.43-0.31,2.04c-0.21,0.61-0.49,1.15-0.85,1.61s-0.8,0.87-1.3,1.21
			c-0.51,0.34-1.06,0.61-1.67,0.83c-0.61,0.22-1.26,0.38-1.95,0.48s-1.46,0.15-2.3,0.15h-5.6c-0.36,0-0.66-0.11-0.9-0.32
			c-0.24-0.21-0.37-0.56-0.37-1.03V33.03c0-0.48,0.12-0.82,0.37-1.03c0.24-0.21,0.55-0.32,0.9-0.32h5.29c1.29,0,2.39,0.11,3.28,0.33
			c0.9,0.22,1.65,0.55,2.26,0.99c0.61,0.44,1.08,1,1.41,1.67c0.33,0.67,0.49,1.47,0.49,2.38c0,0.51-0.06,0.99-0.2,1.44
			c-0.13,0.45-0.32,0.86-0.57,1.23c-0.25,0.37-0.56,0.7-0.92,0.98c-0.36,0.28-0.78,0.51-1.25,0.68c0.6,0.11,1.15,0.3,1.65,0.57
			c0.51,0.27,0.94,0.62,1.32,1.05s0.67,0.93,0.89,1.51C143.91,45.07,144.02,45.72,144.02,46.44z M138.48,37.56
			c0-0.42-0.07-0.8-0.2-1.14c-0.13-0.34-0.33-0.62-0.59-0.84c-0.26-0.22-0.59-0.39-0.99-0.51c-0.4-0.12-0.93-0.18-1.59-0.18h-2.17
			v5.47h2.39c0.62,0,1.11-0.07,1.48-0.22c0.37-0.15,0.68-0.35,0.92-0.6c0.24-0.25,0.43-0.55,0.55-0.9
			C138.42,38.3,138.48,37.94,138.48,37.56z M139.57,46.58c0-0.49-0.08-0.93-0.24-1.31s-0.4-0.71-0.72-0.97
			c-0.31-0.26-0.72-0.46-1.2-0.6c-0.49-0.14-1.12-0.21-1.91-0.21h-2.54v5.99h3.09c0.6,0,1.1-0.06,1.51-0.19
			c0.41-0.12,0.76-0.31,1.06-0.55c0.3-0.24,0.53-0.55,0.7-0.91C139.49,47.47,139.57,47.05,139.57,46.58z"/>
		<path class="st1" d="M151.75,52.17c0,0.11-0.04,0.21-0.11,0.29c-0.07,0.09-0.19,0.16-0.35,0.21c-0.16,0.05-0.38,0.1-0.65,0.13
			c-0.27,0.03-0.62,0.05-1.04,0.05c-0.41,0-0.76-0.02-1.03-0.05c-0.28-0.03-0.5-0.08-0.66-0.13c-0.16-0.05-0.28-0.12-0.35-0.21
			c-0.07-0.09-0.11-0.18-0.11-0.29v-19.9c0-0.11,0.03-0.21,0.11-0.29c0.07-0.09,0.19-0.16,0.36-0.21c0.17-0.05,0.39-0.1,0.66-0.13
			c0.27-0.03,0.61-0.05,1.03-0.05c0.42,0,0.77,0.02,1.04,0.05c0.27,0.03,0.49,0.08,0.65,0.13c0.16,0.05,0.28,0.13,0.35,0.21
			c0.07,0.09,0.11,0.18,0.11,0.29V52.17z"/>
		<path class="st1" d="M170.37,33.44c0,0.31-0.01,0.58-0.04,0.81c-0.03,0.22-0.07,0.4-0.12,0.54c-0.05,0.14-0.12,0.24-0.2,0.3
			c-0.08,0.06-0.17,0.1-0.27,0.1h-5.28v16.99c0,0.11-0.03,0.21-0.11,0.29c-0.07,0.09-0.19,0.16-0.35,0.21
			c-0.16,0.05-0.38,0.1-0.66,0.13c-0.28,0.03-0.62,0.05-1.03,0.05c-0.41,0-0.76-0.02-1.03-0.05c-0.28-0.03-0.5-0.08-0.66-0.13
			c-0.16-0.05-0.28-0.12-0.35-0.21c-0.07-0.09-0.11-0.18-0.11-0.29V35.18h-5.28c-0.11,0-0.2-0.03-0.28-0.1
			c-0.08-0.07-0.14-0.17-0.2-0.3c-0.05-0.14-0.1-0.31-0.12-0.54c-0.03-0.22-0.04-0.49-0.04-0.81c0-0.33,0.01-0.6,0.04-0.83
			c0.03-0.23,0.07-0.41,0.12-0.55c0.05-0.14,0.12-0.23,0.2-0.29c0.08-0.06,0.17-0.09,0.28-0.09h14.85c0.1,0,0.19,0.03,0.27,0.09
			c0.08,0.06,0.15,0.16,0.2,0.29c0.05,0.14,0.1,0.32,0.12,0.55C170.35,32.84,170.37,33.11,170.37,33.44z"/>
	</g>
</g>
</svg>
