<?xml version="1.0" encoding="utf-8"?>
<!-- Generator: Adobe Illustrator 24.2.1, SVG Export Plug-In . SVG Version: 6.00 Build 0)  -->
<svg version="1.1" id="Layer_1" xmlns="http://www.w3.org/2000/svg" xmlns:xlink="http://www.w3.org/1999/xlink" x="0px" y="0px"
	 viewBox="0 0 50 50" style="enable-background:new 0 0 50 50;" xml:space="preserve">
<style type="text/css">
	.st0{opacity:0.25;fill:#5E5B68;enable-background:new    ;}
	.st1{fill:#2E2E3D;}
	.st2{fill:#DC913E;}
	.st3{fill:#3F6DB5;}
	.st4{fill:#151514;}
	.st5{fill:#131211;}
	.st6{fill:#FFFFFF;}
	.st7{opacity:0.25;fill:#FFFFFF;enable-background:new    ;}
	.st8{fill:#1C1919;}
	.st9{fill:#272423;}
	.st10{fill:#292D1D;}
	.st11{fill:#232120;}
	.st12{fill:#090909;}
</style>
<g>
	<path class="st0" d="M25.32,15.32l2.11,0.78l3.03-1.24l2.49-2.45l0.68-5.37l0.48-1.51c0,0-0.89,0.57-2.43-0.3
		c-1.54-0.86-4.18-1.33-4.18-1.33l-2.6,0.66l-2.62,0.94l-0.79,0.81L21.3,9.38l0.42,2.38l0.88,1.62L25.32,15.32z"/>
	<path class="st1" d="M27.49,15.36c0,1.16-0.81,0.61-1.5,0.61c-0.7,0-1.25-0.18-1.25-1.34s0.57-2.19,1.26-2.1
		C27.41,12.7,27.49,14.2,27.49,15.36z"/>
	<path class="st2" d="M32.34,12.42c0,0-0.12,0.03-0.2,0.11c-0.41,0.39-1.63,1.62-2.45,2.04c-0.97,0.51-0.92,0.78-0.92,0.78
		s1.43-0.76,1.54-0.76c0.11,0,1.55-0.76,1.98-1.51C32.73,12.32,32.34,12.42,32.34,12.42z"/>
	<g>
		<path class="st3" d="M34,5.06c0,0-0.19,0.04-0.46,0.04c-0.18,0-0.36-0.02-0.52-0.05C32.77,5,32.26,4.79,31.73,4.57
			c-1.19-0.49-2.82-1.15-4.08-1.15c-0.05,0-0.12,0-0.16,0s-0.11,0-0.16,0l0,0c-1.27,0-2.89,0.67-4.07,1.15
			C22.72,4.79,22.22,5,21.97,5.05c-0.16,0.03-0.34,0.05-0.52,0.05c-0.27,0-0.46-0.04-0.46-0.04l-1.05-0.21l0.53,0.93
			c0.45,0.78,0.66,4.26,0.68,6.28v0.02v0.02c0.09,1.11,1.18,2.26,3.24,3.42c0.77,0.43,1.52,0.78,2.01,0.99
			c0.93,0.41,1.02,0.41,1.09,0.41s0.16,0,1.09-0.41c0.5-0.22,1.25-0.57,2.01-0.99c2.06-1.16,3.15-2.31,3.24-3.42v-0.02v-0.02
			c0.02-2.01,0.23-5.49,0.68-6.28l0.54-0.94L34,5.06z M20.89,5.54C20.89,5.54,20.9,5.54,20.89,5.54
			C20.89,5.54,20.89,5.54,20.89,5.54z M21.99,5.98c0,0-0.01,0-0.02,0s-0.01,0-0.01,0C21.97,5.98,21.98,5.98,21.99,5.98z
			 M32.36,11.87c-0.07,0.66-0.94,1.5-2.48,2.36c-1,0.56-1.99,0.97-2.38,1.13c-0.39-0.15-1.38-0.57-2.38-1.13
			c-1.53-0.86-2.41-1.7-2.47-2.36c-0.01-0.5-0.07-3.71-0.48-5.4c0.16-0.01,0.32-0.03,0.47-0.06c0.32-0.06,0.77-0.25,1.35-0.49
			c1.01-0.42,2.39-0.98,3.36-0.98c0.04,0,0.08,0,0.12,0h0.03h0.03c0.04,0,0.08,0,0.12,0c0.97,0,2.36,0.57,3.37,0.98
			c0.58,0.24,1.04,0.42,1.36,0.49c0.15,0.03,0.31,0.05,0.47,0.06C32.42,8.16,32.36,11.37,32.36,11.87z M33.02,5.98
			c0,0-0.01,0-0.02,0c0.01,0,0.02,0,0.03,0C33.03,5.98,33.03,5.98,33.02,5.98z M34.09,5.54C34.1,5.54,34.1,5.54,34.09,5.54
			C34.1,5.54,34.1,5.54,34.09,5.54z"/>
		<path class="st1" d="M27.39,8.52c0,0,0.24-0.81,0.35-1c0.11-0.2-0.02-0.37-0.09-0.61c-0.07-0.24-0.28-1.52-0.31-1.79
			c-0.02-0.26-0.2-0.94-0.37-0.96c-0.17-0.02-0.79,0.52-0.79,0.52l-0.92,1.76c0,0-0.04-0.01-0.15-0.03
			c-0.13-0.04-0.32-0.07-0.58-0.06c0,0-0.01,0-0.01,0c0,0-0.01,0-0.01,0c-0.26-0.01-0.45,0.02-0.58,0.06
			c-0.1,0.02-0.15,0.03-0.15,0.03l-0.92-1.76c0,0-0.61-0.55-0.79-0.52c-0.17,0.02-0.35,0.7-0.37,0.96s-0.24,1.55-0.31,1.79
			c-0.07,0.24-0.2,0.42-0.09,0.61c0.11,0.2,0.35,1,0.35,1s0.04,0.68,0.11,0.76c0.07,0.09-0.35,0.2-0.37,0.87
			c-0.02,0.68-0.07,1.2,0.04,1.46c0.11,0.26,0.11,0.26,0.11,0.26l0.15-0.11c0,0,0.41,1,0.96,1.86l0.16,0.03l2.15,1.45l0,0.07
			c0.23-0.18,0.54-0.46,0.9-0.86c0.79-0.89,1.47-2.55,1.47-2.55l0.15,0.11c0,0,0,0,0.11-0.26s0.07-0.79,0.04-1.46
			c-0.02-0.68-0.44-0.79-0.37-0.87C27.34,9.2,27.39,8.52,27.39,8.52z"/>
		<g>
			<path class="st1" d="M40.22,6.76c0,0,0.01,0,0.01,0c0,0,0.01,0,0.02,0C40.24,6.76,40.23,6.76,40.22,6.76z"/>
		</g>
		<g>
			<path class="st1" d="M35.2,10.1c-0.07-0.12-1.08-0.82-1.14-0.84l0,0l0,0c0.01-0.08,0.03-0.16,0.04-0.24
				c0.02-0.44,0-0.86-0.45-1.11l0,0c-0.04-0.03-0.08-0.06-0.12-0.09l0,0c-0.02-0.01-0.04-0.02-0.06-0.03
				c-0.01-0.3,0.02-0.6-0.05-0.91c-0.09-0.37,0.48-1.43,0.41-1.5c-0.08-0.08-0.76,0.54-0.82,0.68l0,0l0,0
				c-0.04,0.09-0.08,0.18-0.12,0.26c-0.03,0.12-0.06,0.24-0.09,0.36l0,0l0,0c-0.04,0.04-0.08,0.09-0.11,0.13
				c-0.14,0.15-0.25,0.31-0.27,0.52l0,0c-0.15,0.07-0.32,0.05-0.48,0.07c-0.35,0.03-0.72-0.03-1.05,0.13
				c-0.15,0.07-0.22,0.03-0.33-0.07c-0.26-0.23-0.79-1.01-0.99-1.13c-0.28-0.28-1.1-0.85-1.47-0.99c-0.12-0.04-0.26-0.11-0.36,0.01
				c-0.11,0.13,0.03,0.23,0.11,0.32c0.18,0.21,0.37,0.4,0.51,0.64c0.09,0.19,0.1,0.42,0.25,0.58c-0.04,0.21-0.04,0.54-0.04,0.63
				c0,0.13-0.02,0.33-0.03,0.54c-0.07,0.07-0.09,0.16-0.11,0.25c-0.23,0.56,0.01,1.08,0.43,1.43c0.23,0.19,0.24,0.36,0.12,0.6
				c-0.12,0.23-0.26,0.46-0.29,0.73c-0.33,0.9-0.08,1.68,0.46,2.42c0.05,0.07,1.38,0.83,1.73,0.85c0.52,0.04,1.52-0.82,1.66-0.91
				c0.31-0.19,0.17-0.96,0.21-1.04l0,0l0,0c0.02-0.26,0.28-0.36,0.41-0.55l0,0c0.3,0,0.59-0.01,0.89-0.02
				c0.18-0.06,0.41,0,0.51-0.18l0.09-0.09c0.39-0.09,0.5-0.31,0.45-0.75C35.16,10.58,35.42,10.38,35.2,10.1z M33.72,5.52L33.72,5.52
				L33.72,5.52L33.72,5.52z M33.72,5.52C33.72,5.53,33.72,5.53,33.72,5.52C33.71,5.53,33.71,5.53,33.72,5.52
				C33.71,5.53,33.72,5.53,33.72,5.52z M31.58,8.62L31.58,8.62L31.58,8.62L31.58,8.62L31.58,8.62L31.58,8.62z M31.6,8.23L31.6,8.23
				L31.6,8.23L31.6,8.23z M33.85,10.74C33.85,10.74,33.84,10.74,33.85,10.74C33.84,10.74,33.84,10.74,33.85,10.74
				c0-0.01-0.01-0.01-0.02-0.02c0,0,0.01,0,0.02,0.01C33.85,10.74,33.85,10.74,33.85,10.74z M29.84,8.11L29.84,8.11L29.84,8.11
				L29.84,8.11z"/>
			<path class="st4" d="M33.36,8.61c-0.01,0.11,0.35,0.23,0.35,0.23L33.63,8.9c0,0-0.46-0.24-0.43-0.41
				c0.03-0.17,0.2-0.38,0.29-0.39c0.09-0.01,0.26,0.02,0.16,0.15C33.55,8.37,33.38,8.32,33.36,8.61z"/>
			<path class="st4" d="M33.3,8.65c0,0,0.07-0.34,0.23-0.33c0.17,0.02,0.28,0.12,0.28,0.12s0.22,0.02,0.01,0.21
				C33.62,8.84,33.3,8.65,33.3,8.65z"/>
			<path class="st5" d="M30.9,8.85c0,0,0.29-0.24,0.42-0.26c0.13-0.01,0.28-0.06,0.39,0S32,8.91,32,8.91S31.93,8.98,31.65,9
				C31.37,9.03,30.9,8.85,30.9,8.85z"/>
			<ellipse class="st6" cx="31.4" cy="8.82" rx="0.13" ry="0.11"/>
			<ellipse class="st6" cx="33.5" cy="8.51" rx="0.13" ry="0.11"/>
			<path class="st7" d="M33.36,8.2c0,0,0.02-0.17,0.17-0.19c0.16-0.02,0.21-0.02,0.21-0.02s-0.22-0.21-0.31-0.15
				c-0.18,0.11-0.24,0.18-0.21,0.25C33.26,8.16,33.36,8.2,33.36,8.2z"/>
			<path class="st7" d="M32.24,8.23c0,0-0.01-0.24-0.36-0.23c-0.35,0.02-0.42,0.19-0.42,0.19l0.57,0.05L32.24,8.23z"/>
			<path class="st7" d="M29.32,8.28c0,0,0.19,0.1,0.22,0c0.02-0.1-0.17-0.66-0.12-0.98c0.05-0.32,0-0.72-0.26-0.59
				c-0.26,0.13-0.17,0.5-0.17,0.71s-0.11,0.59-0.17,0.79c-0.06,0.19-0.04,0.72,0.26,0.75c0.29,0.02,0.54-0.11,0.51-0.31
				c-0.03-0.2-0.26,0-0.31-0.24C29.22,8.19,29.21,8.22,29.32,8.28z"/>
			<path class="st7" d="M32.91,9.13C33,9.19,33.7,9.61,33.7,9.61s0-0.17,0.24-0.1s0.27,0.18,0.26,0.21
				c-0.01,0.02-0.07,0.05-0.13,0.08c-0.04,0.02-0.07,0.02-0.07,0.04c0.02,0.09,0.36-0.02,0.36-0.02s0.35,0.05,0.38-0.04
				c0.04-0.14-1.21-0.9-1.21-0.9s-0.21-0.14-0.11,0.08c0.11,0.22,0.16,0.22,0.11,0.27c-0.08,0.09-0.6-0.59-0.78-0.46
				C32.67,8.83,32.81,9.06,32.91,9.13z"/>
			<path class="st7" d="M34.5,11.42c0,0-0.66,0.2-0.9,0.21c-0.24,0.02-1.03-0.01-1.1,0c-0.08,0.01-0.57,0.07-0.61,0.05
				c-0.16-0.05-0.13-0.04-0.24-0.13c-0.18-0.15,0.02-0.54,0.08-0.33c0.05,0.21,1.25,0.27,1.58,0.27c0.33,0,0.33-0.67,0.33-0.67
				l0.3,0.02c0,0,0.07-0.11-0.1-0.22c-0.17-0.11-0.43-0.44-0.43-0.44s-0.04-0.11-0.01-0.29c0.04-0.18-0.47-0.21-0.62-0.26
				c-0.15-0.05-0.08,0.97-0.08,0.97s0.11,0.08-0.1,0.08s-0.24-0.23-0.37-0.47c-0.13-0.24-0.64-0.17-0.79-0.09
				c-0.29,0.15-0.39,0.62-0.48,0.63c-0.18,0.04-0.16-0.98-0.59-1.11c-0.26-0.08-0.27,0.09-0.13,0.66c0.15,0.6,0.66,1.08,0.73,1.23
				c0.06,0.15-0.06,0.79-0.06,0.79l-0.28-0.55c0,0-0.41-0.82-0.43-0.34c-0.02,0.48,0.73,1.41,0.73,1.41s-0.14,0.38,0.1,0.37
				c0.24-0.01,0.6-0.24,0.93-0.5c0.33-0.25,0.04-0.27-0.11-0.11c-0.15,0.17-0.47,0.36-0.64,0.31c-0.1-0.03-0.09-0.1,0.23-0.34
				c0.22-0.17,0.3-0.5,0.29-0.75c0.03,0.06,0.06,0.11,0.06,0.11s0.41,0.06,0.46,0.05c0.05-0.01,0.85-0.02,0.85-0.02l0.32-0.15
				c0,0,0.39-0.03,0.47-0.03s0.2,0.17,0.31,0.1c0.1-0.08,0.35-0.24,0.35-0.24l0.06-0.32L34.5,11.42z"/>
			<path class="st4" d="M30.87,8.38c0,0,0.52-0.15,0.58-0.13S31.69,8,31.5,8.04s-0.52-0.02-0.61,0.14c-0.09,0.15-0.14,0.15-0.11,0.2
				C30.79,8.4,30.87,8.38,30.87,8.38z"/>
			<path class="st4" d="M31.88,9.32c-0.01,0-0.01,0-0.02,0h-0.08c-0.39,0-0.56-0.01-0.61-0.06c-0.01-0.01,0.49,0.05,0.79-0.02
				c0.21-0.05,0.24-0.23,0.26-0.3c0.02-0.09-0.08-0.26-0.32-0.35c-0.26-0.1-0.58-0.13-0.59-0.13c-0.02,0-0.03-0.01-0.03-0.03
				c0-0.02,0.01-0.03,0.03-0.03c0,0,0.2,0,0.35-0.06c0.14-0.06,0.31-0.02,0.37,0c0.01,0,0.02,0,0.02,0
				c0.04,0.01,0.14,0.11,0.22,0.19c0.01,0.01,0.13,0.21,0.1,0.42C32.33,9.14,32.27,9.32,31.88,9.32z"/>
			<path class="st8" d="M31.51,9.81c0,0-0.66-0.87-1.06-0.86c-0.4,0-0.4,0-0.4,0s0.24-0.61,0.15-0.62c-0.09,0-0.31,0.48-0.33,0.54
				c-0.02,0.05-0.13,0.27-0.13,0.27s-0.19-0.06-0.22,0.08c-0.03,0.14,1.05-0.33,1.32,0.2c0.27,0.53,0.36,0.55,0.36,0.55L31.51,9.81z
				"/>
			<path class="st1" d="M35.26,10.83c-0.12-0.06-0.23,0-0.34,0.03c-0.28,0.09-0.56,0.09-0.83-0.02c-0.02,0-0.04,0-0.06-0.01
				c-0.02,0.03-0.04,0.04-0.07,0.06c-0.21-0.03-0.32,0.03-0.32,0.27c0,0.25-0.18,0.39-0.4,0.42c-0.46,0.04-0.93,0.06-1.37-0.16
				c-0.06-0.03-0.15-0.18-0.23-0.04c-0.07,0.11,0.12,0.26,0.12,0.26c0.23,0.1,0.48,0.12,0.72,0.13c0.23-0.05,0.46-0.01,0.69-0.03
				c0.19-0.01,0.38,0,0.56-0.06c0.24-0.03,0.46-0.17,0.72-0.15c0.07,0.02,0.15,0.04,0.22,0.03C35.08,11.47,35.32,11.26,35.26,10.83z
				"/>
			<path class="st9" d="M33.98,11.15c0,0-0.44-0.46-0.42-0.75c0.01-0.29,0.39-0.47,1.06-0.43c0.88,0.05,0.91,0.54,0.91,0.54
				s-0.09,0.35-0.36,0.58c-0.24,0.2-0.53,0.16-0.75,0.17C34.19,11.26,33.98,11.15,33.98,11.15z"/>
			<path class="st10" d="M33.1,11.97c0,0-0.4,0-1.01-0.02c-0.66-0.02-0.68-0.39-0.64-0.4c0.04,0,0.13,0.24,0.64,0.26
				c0.56,0.02,0.95-0.01,1-0.01c0.1-0.02,0.5-0.07,0.58-0.07c0.07,0,0.42,0.02,0.48,0.02c0.16-0.05,0.41-0.17,0.44-0.25
				c0.02-0.04,0.01-0.09-0.02-0.12c-0.04-0.04-0.1-0.05-0.17-0.03c-0.04,0.01-0.09,0.03-0.14,0.05c-0.21,0.09-0.57,0.23-1.21,0.24
				c-0.53,0.01-1.31,0.02-1.41-0.24c-0.01-0.04,0-0.08,0.04-0.09c0.04-0.01,0.08,0,0.09,0.04c0.06,0.1,0.55,0.22,1.41,0.2
				c0.61-0.02,0.8-0.2,1.02-0.28c0.06-0.02,0.11-0.04,0.15-0.06c0.13-0.04,0.24-0.01,0.32,0.07c0.07,0.07,0.08,0.17,0.04,0.26
				c-0.07,0.18-0.46,0.31-0.54,0.34c-0.01,0-0.02,0-0.02,0c0,0-0.42-0.02-0.49-0.02C33.62,11.87,33.3,11.93,33.1,11.97
				C33.11,11.97,33.11,11.97,33.1,11.97z"/>
			<path class="st11" d="M31.46,11.68c0,0,0.28,0.49,0.06,0.79c-0.22,0.3-0.73,0.81-0.69,0.83c0.04,0.02,0.89-0.33,1.01-0.65
				s0.12,0.33-0.38,0.55c-0.5,0.22-0.69,0.37-0.69,0.37s0.36,0.14,0.77-0.06c0.42-0.2,0.99-0.71,1.21-1.01
				c0.22-0.3,0.46-0.59,0.46-0.59s-0.68,0-1.13-0.02C31.8,11.89,31.46,11.68,31.46,11.68z"/>
			<path class="st12" d="M33.89,10.98c0.08,0,0.77-0.11,0.85-0.21c0.08-0.11,0.21,0.16,0.21,0.16s-0.21,0.24-0.55,0.24
				C34.05,11.16,33.89,10.98,33.89,10.98z"/>
			
				<ellipse transform="matrix(0.9921 -0.1254 0.1254 0.9921 -1.0388 4.3856)" class="st6" cx="34.32" cy="10.44" rx="0.37" ry="0.11"/>
		</g>
		<g>
			<path class="st7" d="M26.16,7.9c0,0-0.06,0.02-0.1,0.02c-0.04,0-0.14-0.16-0.25-0.11c-0.11,0.04-0.38,0.41-0.38,0.41l-0.59-0.18
				l-0.17,0.01L24.5,8.02l-0.55,0.03c0,0-0.4-0.14-0.42-0.14c-0.02,0-0.22-0.1-0.39-0.01c-0.17,0.09-0.16,0.11-0.16,0.11
				s0.14,0.09,0.15,0.17c0.01,0.08,0.22,0.14,0.27,0.14c0.05,0-0.05-0.04-0.19,0.17c-0.14,0.21-0.42,1.43-0.39,1.54
				c0.02,0.11-0.15-0.16-0.15-0.16s-0.36,0.44-0.18,1.68s0.47,1.66,0.47,1.66s-0.86-0.85-1-1.5c-0.14-0.65-0.16-0.32-0.16-0.32
				s-0.17-0.27-0.07-0.65c0.09-0.38,0.44-1.01,0.44-1.01l-0.11-1.15l0.67-1.45c0,0,0.2-0.51,0-0.96c-0.2-0.44-0.44-1.04-0.44-1.04
				L21.89,5.7l0.25-1.12l0.64,0.41L23.81,7c0,0,0.35-0.2,0.96-0.17s0.96,0.31,0.96,0.31l0.42,0.48C26.16,7.61,26.15,7.91,26.16,7.9z
				"/>
			<g>
				<path class="st1" d="M25.8,8.46c0.09-0.07,0.46-0.51,0.46-0.51s-0.27-0.17-0.44-0.17c-0.13,0-0.16-0.01-0.16-0.01
					s-0.23,0.16-0.43,0.16c-0.37,0-0.44-0.35-0.44-0.35s-0.07,0.21-0.24,0.22l0,0V8.1c0.25,0.01,0.48,0.05,0.71,0.35
					c0.24,0.32,0.82,1.19,0.82,1.19l0.18-0.07c0,0-0.59-0.96-0.68-1.06C25.48,8.42,25.71,8.53,25.8,8.46z"/>
				<path class="st1" d="M24.29,7.57c0,0-0.07,0.36-0.44,0.35c-0.2,0-0.43-0.16-0.43-0.16s-0.04,0-0.16,0.01
					c-0.17,0-0.44,0.17-0.44,0.17s0.36,0.44,0.46,0.51c0.09,0.07,0.32-0.04,0.23,0.06c-0.09,0.1-0.5,1.12-0.5,1.12
					s0.57-0.87,0.82-1.19c0.23-0.3,0.46-0.35,0.71-0.35V7.79l0,0C24.37,7.79,24.29,7.57,24.29,7.57z"/>
			</g>
			<path class="st6" d="M25.33,8.13c0,0.03,0.17,0.11,0.33,0.11c0.17,0,0.21-0.14,0.21-0.14s0-0.14-0.19-0.12
				C25.48,8,25.52,8.05,25.45,8.07C25.37,8.09,25.32,8.09,25.33,8.13z"/>
			<path class="st6" d="M23.76,8.13c0,0.03-0.17,0.11-0.33,0.11S23.22,8.1,23.22,8.1s0-0.14,0.19-0.12
				c0.21,0.02,0.16,0.07,0.23,0.09C23.72,8.09,23.77,8.09,23.76,8.13z"/>
			<path class="st6" d="M25.02,9.41H24l-0.02,0.11l0.04,0.08c0,0,0.19,0,0.26,0.07c0.07,0.07,0.15,0.19,0.15,0.19h0.15
				c0,0,0.07-0.11,0.15-0.19c0.07-0.07,0.26-0.07,0.26-0.07l0.04-0.08L25.02,9.41z"/>
			<path class="st7" d="M25.83,9.63c0,0-0.57-0.76-0.68-1c-0.11-0.23-0.43-0.29-0.6-0.3c-0.01,0-0.02,0-0.03,0
				c-0.01,0-0.02,0-0.03,0c-0.17,0-0.49,0.07-0.6,0.3c-0.11,0.23-0.68,1-0.68,1l-0.04,0.72c0,0,0.27,0.49,0.43,0.48l0.65-0.39
				c0,0,0.14-0.18,0.14-0.34c0-0.09-0.54-0.51-0.54-0.51l0.12-0.28h1.11l0.12,0.28c0,0-0.55,0.43-0.54,0.51
				c0,0.16,0.14,0.34,0.14,0.34l0.65,0.39c0.16,0.01,0.43-0.48,0.43-0.48L25.83,9.63z"/>
		</g>
	</g>
	<g>
		<g>
			<path class="st1" d="M23.58,1.97c0.21-0.09,0.32-0.13,0.53-0.2c0.04,0.12,0.06,0.18,0.11,0.3c-0.21,0.07-0.31,0.11-0.52,0.2
				c0.1,0.24,0.15,0.36,0.24,0.61c0.24-0.1,0.36-0.14,0.61-0.22c0.04,0.12,0.06,0.18,0.1,0.3c-0.38,0.13-0.56,0.2-0.93,0.36
				c-0.37-0.81-0.55-1.22-0.92-2.03c0.45-0.2,0.68-0.29,1.14-0.45c0.04,0.12,0.06,0.18,0.1,0.3c-0.28,0.09-0.43,0.15-0.71,0.26
				C23.44,1.63,23.49,1.74,23.58,1.97z"/>
			<path class="st1" d="M24.22,0.75c0.17-0.05,0.26-0.08,0.43-0.12c0.2,0.74,0.3,1.11,0.49,1.84c0.24-0.07,0.36-0.09,0.6-0.14
				c0.02,0.13,0.04,0.19,0.07,0.31c-0.37,0.08-0.56,0.12-0.93,0.24C24.61,2.03,24.48,1.6,24.22,0.75z"/>
			<path class="st1" d="M25.55,0.42c0.17-0.03,0.26-0.05,0.44-0.07c0.13,0.88,0.2,1.32,0.33,2.21c-0.14,0.02-0.21,0.03-0.35,0.06
				C25.79,1.74,25.71,1.3,25.55,0.42z"/>
			<path class="st1" d="M26.18,0.32c0.54-0.07,0.81-0.09,1.36-0.1c0,0.13,0,0.19,0,0.32c-0.18,0-0.27,0.01-0.45,0.02
				c0.04,0.76,0.07,1.14,0.11,1.91c-0.14,0.01-0.22,0.01-0.36,0.03c-0.07-0.76-0.11-1.14-0.17-1.9c-0.18,0.02-0.27,0.03-0.45,0.05
				C26.2,0.51,26.19,0.45,26.18,0.32z"/>
			<path class="st1" d="M28.14,1.17c0.22,0.01,0.33,0.02,0.56,0.03c-0.01,0.13-0.02,0.19-0.03,0.32c-0.22-0.02-0.33-0.02-0.54-0.03
				c-0.01,0.26-0.01,0.39-0.02,0.65c0.26,0.01,0.38,0.02,0.64,0.04c-0.01,0.13-0.02,0.19-0.03,0.32c-0.39-0.04-0.59-0.05-0.98-0.05
				c0-0.89,0-1.34,0-2.23c0.48,0,0.72,0.01,1.2,0.06c-0.01,0.13-0.02,0.19-0.03,0.32c-0.3-0.03-0.44-0.04-0.74-0.05
				C28.15,0.79,28.15,0.92,28.14,1.17z"/>
			<path class="st1" d="M30.09,1.82c-0.07,0.07-0.1,0.1-0.16,0.17c-0.06,0.27-0.09,0.4-0.14,0.67c-0.14-0.03-0.21-0.04-0.35-0.07
				c0.15-0.88,0.23-1.32,0.39-2.19c0.17,0.03,0.26,0.05,0.44,0.09c-0.08,0.38-0.12,0.57-0.2,0.94c0,0,0,0,0.01,0
				c0.29-0.33,0.44-0.5,0.76-0.81c0.17,0.04,0.26,0.07,0.43,0.12c-0.35,0.31-0.52,0.47-0.84,0.8c0.1,0.53,0.14,0.8,0.19,1.33
				c-0.14-0.04-0.22-0.07-0.36-0.1C30.19,2.39,30.16,2.2,30.09,1.82z"/>
			<path class="st1" d="M31.98,2.81c-0.15,0.34-0.4,0.45-0.75,0.31c-0.33-0.13-0.45-0.37-0.34-0.71c0.01-0.02,0.01-0.03,0.02-0.05
				c0.14,0.04,0.21,0.07,0.35,0.12c-0.01,0.03-0.02,0.04-0.03,0.07c-0.05,0.15,0,0.23,0.11,0.27c0.13,0.05,0.22,0.02,0.3-0.17
				c0.06-0.15,0.09-0.22,0.15-0.37c0,0,0,0-0.01,0c-0.11,0.09-0.24,0.11-0.41,0.05C31.1,2.21,31.01,2,31.11,1.69
				c0.05-0.15,0.07-0.23,0.13-0.39c0.11-0.34,0.4-0.46,0.81-0.31c0.41,0.16,0.55,0.45,0.4,0.77C32.26,2.19,32.17,2.39,31.98,2.81z
				 M31.91,1.95C31.98,1.8,32,1.73,32.07,1.58c0.06-0.15,0-0.24-0.13-0.28c-0.13-0.05-0.23-0.02-0.28,0.13
				c-0.05,0.15-0.08,0.23-0.14,0.38c-0.05,0.15,0,0.23,0.12,0.28C31.76,2.12,31.85,2.1,31.91,1.95z"/>
		</g>
	</g>
	<g>
		<g>
			<path class="st1" d="M21.85,17.54c0.23,0.11,0.35,0.16,0.58,0.26c-0.13,0.29-0.19,0.44-0.31,0.73c-0.16,0.37-0.48,0.48-0.93,0.27
				s-0.56-0.55-0.36-0.9c0.25-0.46,0.37-0.68,0.63-1.14c0.19-0.35,0.49-0.44,0.85-0.26c0.37,0.18,0.47,0.47,0.32,0.83
				c-0.04,0.09-0.06,0.13-0.09,0.22c-0.15-0.07-0.23-0.1-0.38-0.17c0.04-0.1,0.07-0.15,0.11-0.24c0.07-0.16,0.02-0.26-0.1-0.32
				c-0.12-0.06-0.23-0.04-0.31,0.12c-0.24,0.48-0.37,0.72-0.61,1.2c-0.08,0.16-0.02,0.26,0.12,0.33c0.14,0.07,0.26,0.05,0.33-0.11
				c0.08-0.17,0.12-0.25,0.2-0.42c-0.08-0.04-0.11-0.05-0.19-0.09C21.76,17.73,21.79,17.67,21.85,17.54z"/>
			<path class="st1" d="M23.48,17.02c-0.26,0.72-0.39,1.09-0.66,1.82c-0.06,0.17,0.01,0.26,0.15,0.31c0.15,0.05,0.26,0.02,0.31-0.15
				c0.24-0.73,0.36-1.1,0.6-1.84c0.15,0.05,0.22,0.07,0.37,0.11c-0.21,0.73-0.32,1.1-0.53,1.83c-0.11,0.38-0.42,0.54-0.88,0.38
				s-0.61-0.47-0.46-0.84c0.28-0.71,0.43-1.06,0.71-1.77C23.25,16.94,23.33,16.97,23.48,17.02z"/>
			<path class="st1" d="M25.44,20.1c-0.2-0.03-0.29-0.05-0.49-0.09c0-0.18,0-0.28,0-0.46c-0.23-0.04-0.34-0.07-0.57-0.13
				c-0.07,0.17-0.11,0.25-0.19,0.42c-0.17-0.04-0.26-0.07-0.44-0.11c0.46-0.91,0.68-1.37,1.07-2.31c0.23,0.06,0.35,0.08,0.59,0.13
				C25.39,18.57,25.39,19.08,25.44,20.1z M24.52,19.11c0.17,0.04,0.26,0.06,0.44,0.09c0.01-0.51,0.02-0.77,0.05-1.28c0,0,0,0-0.01,0
				C24.81,18.4,24.72,18.64,24.52,19.11z"/>
			<path class="st1" d="M26.68,20.24c-0.02-0.07-0.04-0.11-0.02-0.31c0.01-0.16,0.02-0.24,0.03-0.39c0.02-0.23-0.07-0.32-0.27-0.34
				c-0.06,0-0.09-0.01-0.16-0.02c-0.04,0.41-0.07,0.61-0.11,1.01c-0.2-0.02-0.29-0.03-0.48-0.06c0.14-0.99,0.21-1.49,0.35-2.48
				c0.24,0.03,0.37,0.05,0.61,0.07c0.42,0.04,0.59,0.23,0.58,0.61c0,0.08,0,0.12-0.01,0.2c-0.01,0.26-0.11,0.42-0.31,0.49
				c0,0,0,0,0,0.01c0.22,0.1,0.28,0.28,0.28,0.55c-0.01,0.15-0.01,0.23-0.02,0.39c0,0.12,0,0.21,0.04,0.31
				C26.98,20.26,26.88,20.25,26.68,20.24z M26.38,18.06c-0.03,0.31-0.05,0.46-0.08,0.77c0.07,0.01,0.1,0.01,0.17,0.02
				c0.17,0.02,0.27-0.04,0.28-0.24c0.01-0.1,0.01-0.15,0.02-0.24c0.01-0.18-0.04-0.26-0.2-0.27C26.5,18.07,26.46,18.07,26.38,18.06z
				"/>
			<path class="st1" d="M27.49,17.77c0.26,0,0.39,0,0.64,0c0.41-0.01,0.62,0.18,0.66,0.58c0.04,0.5,0.06,0.76,0.1,1.26
				c0.03,0.4-0.19,0.64-0.68,0.66c-0.31,0.01-0.46,0.01-0.77,0C27.46,19.27,27.47,18.77,27.49,17.77z M27.91,18.13
				c0.01,0.72,0.01,1.07,0.02,1.79c0.11,0,0.16,0,0.27,0c0.15,0,0.24-0.07,0.23-0.25c-0.02-0.52-0.04-0.78-0.06-1.3
				c-0.01-0.18-0.09-0.24-0.22-0.24C28.04,18.13,28,18.13,27.91,18.13z"/>
			<path class="st1" d="M29,17.71c0.16-0.02,0.24-0.02,0.41-0.05c0.13,0.99,0.2,1.49,0.33,2.48c-0.2,0.02-0.29,0.04-0.49,0.06
				C29.15,19.2,29.1,18.71,29,17.71z"/>
			<path class="st1" d="M31.65,19.76c-0.19,0.05-0.29,0.08-0.48,0.12c-0.07-0.17-0.11-0.25-0.18-0.42
				c-0.23,0.05-0.34,0.08-0.57,0.12c0,0.18,0,0.28,0,0.46c-0.18,0.03-0.26,0.04-0.44,0.07c0.05-1.02,0.06-1.53,0.04-2.54
				c0.24-0.04,0.35-0.07,0.59-0.12C30.98,18.38,31.19,18.85,31.65,19.76z M30.4,19.23c0.17-0.03,0.26-0.05,0.44-0.09
				c-0.2-0.48-0.29-0.71-0.47-1.19c0,0,0,0-0.01,0C30.39,18.46,30.4,18.72,30.4,19.23z"/>
			<path class="st1" d="M31.75,17.84C31.74,17.84,31.74,17.84,31.75,17.84c0.21,0.7,0.32,1.04,0.54,1.73
				c-0.17,0.05-0.26,0.08-0.43,0.13c-0.28-0.96-0.42-1.44-0.69-2.41c0.2-0.06,0.3-0.09,0.49-0.15c0.35,0.52,0.53,0.77,0.91,1.27
				c0,0,0,0,0.01,0c-0.21-0.56-0.31-0.84-0.52-1.4c0.14-0.05,0.21-0.08,0.34-0.13c0.37,0.93,0.56,1.39,0.94,2.32
				c-0.19,0.08-0.28,0.11-0.48,0.18C32.39,18.77,32.17,18.47,31.75,17.84z"/>
			<path class="st1" d="M33.18,16.49c0.37-0.18,0.66-0.08,0.85,0.27c0.02,0.03,0.02,0.04,0.04,0.07c-0.15,0.08-0.22,0.12-0.37,0.2
				c-0.02-0.04-0.03-0.06-0.05-0.09c-0.08-0.16-0.18-0.18-0.31-0.13c-0.12,0.06-0.16,0.15-0.09,0.32c0.08,0.17,0.21,0.26,0.58,0.32
				c0.47,0.09,0.68,0.2,0.82,0.45c0.19,0.35,0.08,0.68-0.36,0.9c-0.44,0.22-0.77,0.1-0.93-0.27c-0.02-0.06-0.04-0.09-0.06-0.14
				c0.16-0.07,0.25-0.11,0.41-0.18c0.03,0.07,0.04,0.1,0.07,0.16c0.07,0.16,0.19,0.18,0.33,0.11c0.14-0.07,0.2-0.17,0.12-0.33
				c-0.08-0.16-0.23-0.24-0.6-0.31c-0.47-0.1-0.66-0.25-0.77-0.51C32.72,16.96,32.82,16.67,33.18,16.49z"/>
		</g>
	</g>
	<path class="st1" d="M30.17,15.1c0.23-0.23,1.82-1.44,2.7-2.1l-1.66,0.33l-2.42-0.41c0,0-1.7,1.9-1.21,3.21
		C28.26,15.87,29.94,15.33,30.17,15.1z"/>
	<circle class="st1" cx="34.96" cy="17.25" r="0.26"/>
	<circle class="st1" cx="20.5" cy="16.99" r="0.26"/>
	<path class="st3" d="M33.34,11.85H32.8h-0.26l-0.08,0.25c-0.22,0.7-1.16,1.37-2.7,2.21c-0.98,0.53-1.92,0.92-2.25,1.05
		c-0.47-0.2-1.13-0.48-1.87-0.84c-1.46-0.7-3.08-1.46-3.39-2.39l-0.15-0.45l-0.27-2.36l-0.15-0.46l-0.35,0.51v2.57l-0.02,0.07
		l0,0.07c0.09,1.07,1.16,2.18,3.18,3.32c0.76,0.43,1.51,0.77,2,0.99c0.28,0.12,0.51,0.22,0.66,0.27c0.28,0.11,0.31,0.12,0.38,0.12
		c0.05,0,0.13,0,1-0.38c0.48-0.21,1.2-0.54,1.94-0.95c1.96-1.09,3.06-2.16,3.25-3.18l0.15-0.4L33.34,11.85z"/>
</g>
</svg>
