<?xml version="1.0" encoding="utf-8"?>
<!-- Generator: Adobe Illustrator 24.2.1, SVG Export Plug-In . SVG Version: 6.00 Build 0)  -->
<svg version="1.1" id="Layer_1" xmlns="http://www.w3.org/2000/svg" xmlns:xlink="http://www.w3.org/1999/xlink" x="0px" y="0px"
	 viewBox="0 0 200 100" style="enable-background:new 0 0 200 100;" xml:space="preserve">
<style type="text/css">
	.st0{fill:#231F20;}
	.st1{fill:#B23802;}
	.st2{opacity:0.21;}
</style>
<g>
	<path class="st0" d="M67.07,49.55c-1.53,1.28-3.72,1.92-6.57,1.92h-5.45v9.42h-5.44V34.7h11.24c2.59,0,4.66,0.68,6.2,2.02
		c1.54,1.35,2.31,3.44,2.31,6.27C69.37,46.09,68.6,48.27,67.07,49.55z M62.89,40.12c-0.69-0.58-1.66-0.87-2.91-0.87h-4.93v7.71h4.93
		c1.25,0,2.22-0.31,2.91-0.94c0.69-0.63,1.04-1.62,1.04-2.99C63.93,41.67,63.58,40.7,62.89,40.12z"/>
	<path class="st0" d="M78.7,60.89h-5.06V34.7h5.06V60.89z"/>
	<path class="st0" d="M91.49,49.11c0.94-0.12,1.62-0.27,2.02-0.44c0.73-0.31,1.09-0.79,1.09-1.44c0-0.79-0.28-1.34-0.84-1.64
		c-0.56-0.3-1.38-0.45-2.46-0.45c-1.21,0-2.07,0.3-2.58,0.89c-0.36,0.44-0.6,1.03-0.72,1.78h-4.88c0.11-1.69,0.58-3.08,1.43-4.17
		c1.34-1.71,3.65-2.56,6.92-2.56c2.13,0,4.02,0.42,5.68,1.26c1.65,0.84,2.48,2.43,2.48,4.76v8.88c0,0.62,0.01,1.36,0.04,2.24
		c0.04,0.66,0.14,1.11,0.3,1.35c0.16,0.24,0.41,0.43,0.75,0.59v0.75h-5.51c-0.15-0.39-0.26-0.76-0.32-1.1
		c-0.06-0.34-0.11-0.73-0.14-1.17c-0.7,0.76-1.51,1.4-2.43,1.94c-1.1,0.63-2.34,0.94-3.72,0.94c-1.76,0-3.22-0.5-4.37-1.5
		c-1.15-1-1.72-2.42-1.72-4.26c0-2.38,0.92-4.1,2.77-5.17c1.02-0.58,2.5-0.99,4.47-1.24L91.49,49.11z M94.58,51.47
		c-0.32,0.2-0.65,0.37-0.98,0.49c-0.33,0.13-0.78,0.24-1.36,0.35l-1.15,0.21c-1.08,0.19-1.86,0.42-2.33,0.69
		c-0.8,0.46-1.2,1.18-1.2,2.15c0,0.86,0.24,1.49,0.73,1.87c0.49,0.39,1.08,0.58,1.78,0.58c1.11,0,2.13-0.32,3.06-0.96
		c0.93-0.64,1.42-1.81,1.45-3.5L94.58,51.47L94.58,51.47z"/>
	<path class="st0" d="M109.44,39.22h-5.14v-4.67h5.14V39.22z M104.31,41.52h5.14v19.37h-5.14V41.52z"/>
	<path class="st0" d="M130.14,42.63c1.27,1.05,1.9,2.79,1.9,5.21v13.04h-5.19V49.11c0-1.02-0.14-1.8-0.4-2.35
		c-0.49-0.99-1.44-1.49-2.82-1.49c-1.7,0-2.88,0.73-3.51,2.19c-0.33,0.77-0.49,1.75-0.49,2.95v10.48h-5.06V41.56h4.9v2.83
		c0.65-0.99,1.26-1.71,1.84-2.15c1.04-0.78,2.35-1.17,3.95-1.17C127.25,41.06,128.87,41.59,130.14,42.63z"/>
</g>
<g>
	<g>
		<path class="st1" d="M34.35,33.21l6.13,7.17l-7.53,6.43l-6.13-7.17L34.35,33.21"/>
	</g>
	<g>
		<polygon class="st1" points="38.62,47.69 38.62,56.03 11.86,56.03 11.86,45.45 19.99,38.52 19.94,38.47 28.63,31.05 24.87,27.98 
			7,43.21 7,60.89 43.48,60.89 43.48,43.54 		"/>
	</g>
</g>
<g class="st2">
	<path class="st0" d="M139.5,60.89l-3.18-12.53h1.71l1.49,6.34c0.37,1.56,0.71,3.12,0.93,4.33h0.04c0.21-1.25,0.59-2.73,1.02-4.35
		l1.67-6.32h1.69l1.52,6.36c0.35,1.49,0.69,2.97,0.87,4.29h0.04c0.26-1.38,0.61-2.77,1-4.33l1.65-6.32h1.65l-3.55,12.53h-1.69
		l-1.58-6.52c-0.39-1.6-0.65-2.83-0.82-4.09h-0.04c-0.22,1.25-0.5,2.47-0.97,4.09l-1.78,6.52H139.5z"/>
	<path class="st0" d="M163.74,55.39c-0.09-1.75-0.2-3.85-0.19-5.41h-0.06c-0.43,1.47-0.95,3.03-1.58,4.76l-2.21,6.08h-1.23
		l-2.03-5.97c-0.59-1.77-1.1-3.38-1.45-4.87h-0.04c-0.04,1.56-0.13,3.66-0.24,5.54l-0.33,5.37h-1.54l0.87-12.53h2.06l2.14,6.06
		c0.52,1.54,0.95,2.92,1.26,4.22h0.06c0.32-1.26,0.76-2.64,1.32-4.22l2.23-6.06h2.06l0.78,12.53h-1.58L163.74,55.39z"/>
	<path class="st0" d="M167.9,58.92c0.72,0.45,1.78,0.82,2.9,0.82c1.65,0,2.62-0.87,2.62-2.14c0-1.17-0.67-1.84-2.36-2.49
		c-2.04-0.72-3.31-1.78-3.31-3.55c0-1.95,1.62-3.4,4.05-3.4c1.28,0,2.21,0.3,2.77,0.61l-0.45,1.32c-0.41-0.22-1.25-0.59-2.38-0.59
		c-1.71,0-2.36,1.02-2.36,1.88c0,1.17,0.76,1.75,2.49,2.42c2.12,0.82,3.2,1.84,3.2,3.68c0,1.93-1.43,3.61-4.39,3.61
		c-1.21,0-2.53-0.35-3.2-0.8L167.9,58.92z"/>
</g>
</svg>
