<?xml version="1.0" encoding="utf-8"?>
<!-- Generator: Adobe Illustrator 24.2.1, SVG Export Plug-In . SVG Version: 6.00 Build 0)  -->
<svg version="1.1" id="Layer_1" xmlns="http://www.w3.org/2000/svg" xmlns:xlink="http://www.w3.org/1999/xlink" x="0px" y="0px"
	 viewBox="0 0 200 50" style="enable-background:new 0 0 200 50;" xml:space="preserve">
<style type="text/css">
	.st0{fill:#C64479;}
	.st1{fill:#EA7728;}
	.st2{fill:#030303;}
	.st3{fill:#C54278;}
	.st4{fill:#D8673C;}
	.st5{fill:#A9396D;}
	.st6{fill:#FFFFFF;}
	.st7{fill:#0A0B0B;}
	.st8{font-family:'VAGRundschriftD';}
	.st9{font-size:8.2833px;}
	.st10{opacity:0.25;fill:#5E5B68;}
	.st11{fill:#2E2E3D;}
	.st12{fill:#DC913E;}
	.st13{fill:#3F6DB5;}
	.st14{fill:#151514;}
	.st15{fill:#131211;}
	.st16{opacity:0.25;fill:#FFFFFF;}
	.st17{fill:#1C1919;}
	.st18{fill:#272423;}
	.st19{fill:#292D1D;}
	.st20{fill:#232120;}
	.st21{fill:#090909;}
</style>
<g>
	<path class="st0" d="M40.1,29.09c-0.15-0.24-0.25-0.51-0.46-0.71c-0.38-0.31-0.82-0.42-1.27-0.24c-1.99,0.79-10.19,1.43-10.23,0.79
		c0.07-0.9-0.2-1.81,0.02-2.69c0.62-2.46,1.53-4.8,3.09-6.84c1-1.31,2.16-2.47,3.3-3.66c1.24-1.29,1.07-2.22-0.48-3.09
		c-0.88-0.49-1.79-0.92-2.7-1.36c-2.17-0.01-4.19,0.45-5.95,1.8c-0.61,0.47-1.25,0.88-1.89,1.3c-0.51,0.34-1.07,0.58-1.68,0.67
		c-0.95,0.14-1.54-0.34-1.59-1.29c-0.02-0.34,0.04-0.69,0.06-1.03c0.02-0.41,0.19-0.6,0.65-0.57c2.29,0.15,4.3-0.64,6.17-1.88
		c0.41-0.27,0.42-0.44,0.05-0.75c-0.94-0.82-1.93-1.56-2.96-2.25c-0.24-0.18-0.54-0.22-0.81-0.33c-0.7-0.18-1.41-0.25-2.13-0.2
		c-0.45,0.03-0.61-0.15-0.67-0.56c-0.09-0.66-0.15-1.37-0.68-1.82c-0.27-0.23-0.61-0.56-0.93-0.86c-0.01,0-0.01-0.01-0.02-0.01l0,0
		c-0.96-0.79-1.96-1.52-3.01-2.19c-0.41-0.26-0.56-0.21-0.71,0.27c-0.65,2.15-0.83,4.3-0.03,6.46l0.01-0.02
		c0.03,0.08,0.12,0.31,0.32,0.75c0.18,0.41,0.15,0.6-0.23,0.9c-2.36,1.85-5.23,8.06-5.3,8.58c-0.03,0.03-0.04,0.06-0.01,0.09
		c-2.67,6.61,1.02,10.23,2,11.66c0.32,0.47,0.31,0.79,0.02,1.26c-0.77,1.26-1.08,2.64-0.69,4.11c0.59,2.25,1.87,4.12,3.21,5.97
		c0.21,0.28,0.38,0.27,0.67,0.13c2-1.02,3.69-2.31,4.09-4.71c0.08-0.49,0.31-0.6,0.77-0.38c0.17,0.08,2.27,0.79,4.14,1
		c2.36,0.26,3.6,0.16,4.58,0.02c2.3-0.33,5.72-2.27,7.69-3.57c-0.11-0.32,0.11-0.46,0.32-0.64c0.99-0.83,1.89-1.76,2.75-2.72
		c0.26-0.29,0.54-0.58,0.57-1.01C40.18,29.3,40.16,29.19,40.1,29.09z"/>
	<path class="st1" d="M40.19,27.42c0,0-0.21-0.22-0.39-0.2c-1.01,0.1-1.18-1.07-1.24-1.22c-0.05-0.13-0.14-0.3-0.23-0.3
		c-0.09,0-0.21,0.2-0.27,0.31c-0.2,0.42-0.41,0.84-0.62,1.26c-0.09,0.17-0.21,0.31-0.42,0.21c-0.17-0.08-0.14-0.24-0.08-0.39
		c0.07-0.24,2.43-7.42,2.54-8.66c0.08-0.91,0.05-1.81-0.31-2.72c-1.27-3.17-5.04-4.43-7.79-4.45c0.07,0.35,0.44,0.46,0.63,0.54
		c0.68,0.27,1.79,0.8,2.57,1.4c0.76,0.59,0.79,1.06,0.27,1.82c-0.42,0.62-0.98,1.12-1.51,1.63c-2.3,2.24-3.94,4.87-4.96,7.92
		c-0.47,1.42-0.65,4.06,0.07,5.12c1.13,1.66,7.69-0.45,9.65-1.26c0.57-0.24,1.07-0.24,1.56,0.12c0.36,0.27,0.5,0.77,0.52,0.85
		C40.78,28.88,40.78,28.1,40.19,27.42z"/>
	<path class="st2" d="M34.47,28.38c-0.47-0.14-0.83-1.28-1.05-1.27c-0.15,0-0.28,0.2-0.35,0.36c-0.12,0.27-0.22,0.54-0.36,0.79
		c-0.3,0.52-0.61,0.51-0.91-0.01c-0.09-0.16-0.16-0.33-0.24-0.5c-0.09-0.19-0.18-0.32-0.27-0.32c-0.09,0.01-0.18,0.15-0.27,0.32
		c-0.09,0.16-0.4,1.21-0.89,1.09c-0.42-0.1-0.74-0.36-0.84-0.8c-0.19-0.85-0.04-1.69,0.13-2.52c0.48-2.33,2.17-4.7,3.23-6.04
		c0.63-0.79,1.96-2.33,2.74-2.96c0.22-0.18,0.72-0.46,0.99-0.5c0.44-0.07,1.08-0.01,1.39,0.66c0.31,0.66,0.34,1.58,0.24,2.1
		c-0.42,2.3-2.49,7.63-2.95,8.86c-0.11,0.29-0.2,0.61-0.52,0.76L34.47,28.38z"/>
	<g>
		<polygon class="st3" points="28.06,28.87 28.06,28.88 28.06,28.88 		"/>
	</g>
	<path class="st4" d="M37.45,20.92"/>
	<path class="st5" d="M37.62,36.18c0.22,1.28,0.06,2.46-0.22,3.67c-0.07,0.3-0.3,0.33-0.56,0.3c-1.82-0.19-3.65-0.34-5.38-0.97
		c-1.03-0.38-1.98-0.88-2.62-1.83c0.04-0.16,0.09-0.31,0.28-0.34c2.47-0.36,4.56-1.57,6.58-2.94c0.24-0.17,0.47-0.46,0.84-0.28
		C36.54,33.79,37.46,35.23,37.62,36.18z"/>
	<ellipse class="st6" cx="22.94" cy="24.53" rx="3.58" ry="3.3"/>
	<path class="st7" d="M24.63,25.52c-0.87,0.01-1.53-0.62-1.51-1.46c0.01-0.77,0.71-1.45,1.48-1.45c0.79,0,1.46,0.66,1.47,1.45
		C26.07,24.88,25.45,25.51,24.63,25.52z"/>
</g>
<text transform="matrix(1 0 0 1 1.5424 47.6899)" class="st0 st8 st9">Snack4Snack</text>
<g>
	<path class="st10" d="M172.58,37.33l5.18,1.91l7.44-3.04l6.11-6.01l1.66-13.2l1.18-3.7c0,0-2.18,1.39-5.97-0.73
		S177.91,9.3,177.91,9.3l-6.39,1.62l-6.44,2.31l-1.93,1.98l-0.46,7.53l1.03,5.86l2.16,3.98L172.58,37.33z"/>
	<path class="st11" d="M177.91,37.43c0,2.85-1.98,1.49-3.69,1.49s-3.08-0.45-3.08-3.3c0-2.85,1.4-5.38,3.09-5.16
		C177.7,30.89,177.91,34.57,177.91,37.43z"/>
	<path class="st12" d="M189.83,30.2c0,0-0.3,0.08-0.5,0.26c-1,0.95-4.01,3.97-6.01,5.02c-2.39,1.25-2.26,1.91-2.26,1.91
		s3.52-1.87,3.79-1.87c0.27,0,3.8-1.87,4.86-3.72C190.78,29.95,189.83,30.2,189.83,30.2z"/>
	<g>
		<path class="st13" d="M193.9,12.12c0,0-0.46,0.09-1.13,0.09c-0.45,0-0.88-0.04-1.28-0.12c-0.6-0.12-1.85-0.63-3.17-1.17
			c-2.92-1.2-6.92-2.83-10.03-2.83c-0.13,0-0.29,0-0.39,0c-0.1,0-0.26,0-0.39,0c0,0,0,0,0,0c-3.11,0-7.09,1.64-10,2.83
			c-1.32,0.54-2.56,1.05-3.16,1.17c-0.4,0.08-0.83,0.12-1.28,0.12c-0.66,0-1.13-0.09-1.13-0.09l-2.59-0.51l1.3,2.28
			c1.1,1.92,1.61,10.48,1.68,15.43l0,0.04l0,0.04c0.22,2.73,2.9,5.55,7.96,8.4c1.88,1.05,3.73,1.91,4.95,2.44c2.29,1,2.5,1,2.68,1
			c0.18,0,0.39,0,2.68-1c1.22-0.53,3.08-1.39,4.95-2.44c5.07-2.85,7.75-5.67,7.97-8.4l0-0.04l0-0.04c0.06-4.94,0.57-13.5,1.68-15.42
			l1.32-2.3L193.9,12.12z M161.7,13.3c0,0,0.01,0,0.02,0C161.7,13.3,161.7,13.3,161.7,13.3z M164.39,14.38c-0.01,0-0.03,0-0.04,0
			c-0.01,0-0.02,0-0.03,0C164.34,14.38,164.37,14.38,164.39,14.38z M189.87,28.84c-0.16,1.63-2.32,3.69-6.1,5.81
			c-2.45,1.38-4.9,2.39-5.86,2.77c-0.96-0.38-3.4-1.4-5.84-2.77c-3.77-2.12-5.93-4.18-6.08-5.81c-0.02-1.22-0.16-9.12-1.17-13.27
			c0.39-0.02,0.78-0.07,1.15-0.14c0.78-0.15,1.9-0.61,3.32-1.2c2.48-1.02,5.88-2.41,8.26-2.41c0.1,0,0.2,0,0.29,0.01l0.07,0l0.07,0
			c0.09-0.01,0.19-0.01,0.29-0.01c2.38,0,5.8,1.4,8.29,2.42c1.43,0.58,2.55,1.04,3.33,1.2c0.37,0.07,0.76,0.12,1.15,0.14
			C190.03,19.72,189.88,27.62,189.87,28.84z M191.5,14.38c-0.01,0-0.03,0-0.04,0c0.02,0,0.05,0,0.07,0
			C191.52,14.38,191.51,14.38,191.5,14.38z M194.13,13.3c0.01,0,0.02,0,0.02,0S194.14,13.3,194.13,13.3z"/>
		<path class="st11" d="M177.66,20.62c0,0,0.59-1.98,0.86-2.46c0.27-0.48-0.05-0.91-0.22-1.5c-0.16-0.59-0.7-3.74-0.75-4.39
			c-0.05-0.64-0.48-2.3-0.91-2.35c-0.43-0.05-1.94,1.28-1.94,1.28l-2.26,4.33c0,0-0.11-0.03-0.36-0.08
			c-0.31-0.09-0.78-0.17-1.42-0.14c-0.01,0-0.02,0-0.02,0c-0.01,0-0.02,0-0.02,0c-0.64-0.03-1.11,0.05-1.42,0.14
			c-0.25,0.04-0.36,0.08-0.36,0.08l-2.26-4.33c0,0-1.51-1.34-1.94-1.28c-0.43,0.05-0.86,1.71-0.91,2.35
			c-0.05,0.64-0.59,3.8-0.75,4.39c-0.16,0.59-0.48,1.02-0.22,1.5c0.27,0.48,0.86,2.46,0.86,2.46s0.11,1.66,0.27,1.87
			c0.16,0.21-0.86,0.48-0.91,2.14c-0.05,1.66-0.16,2.94,0.11,3.58c0.27,0.64,0.27,0.64,0.27,0.64l0.38-0.27c0,0,1,2.45,2.36,4.57
			l0.39,0.07l5.28,3.56l-0.01,0.17c0.57-0.44,1.32-1.12,2.21-2.12c1.94-2.19,3.61-6.26,3.61-6.26l0.38,0.27c0,0,0,0,0.27-0.64
			c0.27-0.64,0.16-1.93,0.11-3.58c-0.05-1.66-1.08-1.93-0.91-2.14C177.55,22.28,177.66,20.62,177.66,20.62z"/>
		<g>
			<path class="st11" d="M209.19,16.3c0.01,0,0.02,0,0.03,0c0.01,0,0.03,0,0.04,0C209.23,16.3,209.21,16.3,209.19,16.3z"/>
		</g>
		<g>
			<path class="st11" d="M196.86,24.5c-0.18-0.3-2.66-2.02-2.81-2.07c0,0,0,0,0,0c0,0,0,0,0,0c0.03-0.2,0.08-0.4,0.09-0.6
				c0.06-1.08,0-2.11-1.1-2.72v0c-0.1-0.07-0.2-0.15-0.3-0.22c0,0,0,0,0,0c-0.05-0.02-0.1-0.05-0.15-0.07
				c-0.02-0.74,0.05-1.47-0.13-2.23c-0.23-0.92,1.17-3.52,1.01-3.69c-0.19-0.2-1.86,1.32-2.01,1.66l0,0c0,0,0,0,0,0
				c-0.1,0.22-0.19,0.44-0.29,0.65c-0.07,0.3-0.15,0.6-0.22,0.89h0c0,0,0,0,0,0c-0.09,0.11-0.19,0.21-0.28,0.32
				c-0.34,0.36-0.61,0.76-0.66,1.27l0,0c-0.37,0.17-0.78,0.13-1.17,0.16c-0.86,0.07-1.76-0.07-2.57,0.32
				c-0.36,0.17-0.54,0.07-0.81-0.17c-0.65-0.57-1.95-2.48-2.44-2.78c-0.69-0.68-2.71-2.09-3.62-2.43c-0.3-0.11-0.64-0.26-0.88,0.03
				c-0.27,0.33,0.07,0.57,0.26,0.79c0.44,0.51,0.91,0.99,1.25,1.58c0.21,0.47,0.25,1.02,0.62,1.42c-0.11,0.52-0.11,1.32-0.11,1.55
				c0,0.32-0.04,0.82-0.07,1.32c-0.17,0.17-0.21,0.4-0.27,0.61c-0.57,1.37,0.02,2.66,1.06,3.51c0.57,0.47,0.6,0.88,0.29,1.47
				c-0.3,0.57-0.65,1.13-0.72,1.8c-0.81,2.2-0.2,4.14,1.12,5.95c0.13,0.17,3.38,2.03,4.25,2.09c1.27,0.1,3.73-2.01,4.09-2.23
				c0.77-0.47,0.42-2.35,0.51-2.55c0,0,0,0,0,0s0,0,0,0c0.06-0.65,0.68-0.89,1-1.35l0,0c0.73-0.01,1.46-0.03,2.19-0.04
				c0.44-0.15,1,0.01,1.26-0.44l0.22-0.21c0.97-0.21,1.24-0.77,1.1-1.85C196.76,25.68,197.4,25.19,196.86,24.5z M193.21,13.25
				L193.21,13.25C193.21,13.25,193.21,13.25,193.21,13.25C193.21,13.25,193.21,13.25,193.21,13.25z M193.21,13.25
				c0,0.01,0,0.01,0,0.02c-0.01,0-0.01-0.01-0.02-0.01C193.2,13.26,193.21,13.26,193.21,13.25z M187.97,20.87
				C187.97,20.87,187.97,20.87,187.97,20.87C187.97,20.87,187.97,20.87,187.97,20.87C187.97,20.87,187.97,20.87,187.97,20.87
				C187.97,20.87,187.97,20.87,187.97,20.87C187.97,20.87,187.97,20.87,187.97,20.87z M188,19.9C188,19.9,188,19.9,188,19.9
				C188,19.9,188,19.9,188,19.9C188,19.9,188,19.9,188,19.9z M193.53,26.08C193.53,26.08,193.52,26.08,193.53,26.08
				C193.52,26.08,193.52,26.08,193.53,26.08c-0.01-0.02-0.03-0.03-0.04-0.05c0.01,0.01,0.03,0.01,0.04,0.02
				C193.53,26.07,193.53,26.07,193.53,26.08z M183.68,19.61C183.68,19.61,183.68,19.61,183.68,19.61
				C183.68,19.61,183.68,19.61,183.68,19.61C183.68,19.61,183.68,19.61,183.68,19.61z"/>
			<path class="st14" d="M192.32,20.84c-0.02,0.28,0.86,0.57,0.86,0.57l-0.19,0.14c0,0-1.13-0.6-1.05-1.01s0.5-0.93,0.72-0.96
				c0.22-0.03,0.63,0.05,0.39,0.36S192.37,20.13,192.32,20.84z"/>
			<path class="st14" d="M192.18,20.93c0,0,0.16-0.84,0.57-0.8s0.7,0.29,0.7,0.29s0.53,0.05,0.03,0.51S192.18,20.93,192.18,20.93z"
				/>
			<path class="st15" d="M186.28,21.43c0,0,0.72-0.6,1.04-0.63c0.32-0.03,0.69-0.14,0.95,0c0.26,0.14,0.72,0.77,0.72,0.77
				s-0.17,0.17-0.86,0.23S186.28,21.43,186.28,21.43z"/>
			<ellipse class="st6" cx="187.52" cy="21.36" rx="0.31" ry="0.27"/>
			<ellipse class="st6" cx="192.68" cy="20.59" rx="0.31" ry="0.27"/>
			<path class="st16" d="M192.32,19.82c0,0,0.04-0.43,0.43-0.47c0.39-0.04,0.52-0.04,0.52-0.04s-0.53-0.51-0.75-0.36
				c-0.45,0.28-0.6,0.45-0.52,0.62C192.08,19.73,192.32,19.82,192.32,19.82z"/>
			<path class="st16" d="M189.58,19.9c0,0-0.02-0.6-0.88-0.56c-0.86,0.04-1.04,0.47-1.04,0.47l1.4,0.13L189.58,19.9z"/>
			<path class="st16" d="M182.4,20.03c0,0,0.47,0.24,0.54,0c0.06-0.24-0.43-1.61-0.3-2.4c0.13-0.79,0-1.76-0.65-1.44
				c-0.65,0.32-0.41,1.22-0.41,1.74s-0.26,1.46-0.41,1.93c-0.15,0.47-0.09,1.78,0.63,1.84c0.71,0.06,1.32-0.26,1.25-0.75
				s-0.63,0-0.75-0.58C182.16,19.8,182.14,19.88,182.4,20.03z"/>
			<path class="st16" d="M191.22,22.11c0.23,0.16,1.94,1.18,1.94,1.18s0-0.41,0.58-0.24c0.58,0.17,0.67,0.45,0.63,0.51
				c-0.02,0.04-0.18,0.13-0.31,0.2c-0.09,0.05-0.18,0.05-0.17,0.1c0.06,0.21,0.88-0.04,0.88-0.04s0.86,0.13,0.93-0.11
				c0.1-0.35-2.98-2.21-2.98-2.21s-0.52-0.34-0.26,0.19c0.26,0.54,0.4,0.53,0.28,0.66c-0.19,0.21-1.47-1.46-1.92-1.14
				C190.63,21.37,190.98,21.94,191.22,22.11z"/>
			<path class="st16" d="M195.14,27.75c0,0-1.61,0.48-2.21,0.52c-0.6,0.05-2.52-0.02-2.71,0c-0.19,0.02-1.39,0.16-1.49,0.13
				c-0.4-0.12-0.32-0.1-0.6-0.33c-0.44-0.36,0.06-1.33,0.19-0.81c0.13,0.51,3.06,0.66,3.88,0.66s0.82-1.65,0.82-1.65l0.73,0.06
				c0,0,0.17-0.28-0.24-0.54c-0.41-0.26-1.06-1.09-1.06-1.09s-0.11-0.26-0.02-0.71c0.09-0.45-1.16-0.51-1.53-0.64
				c-0.37-0.13-0.19,2.38-0.19,2.38s0.28,0.19-0.24,0.19s-0.59-0.57-0.91-1.15c-0.32-0.58-1.58-0.41-1.93-0.23
				c-0.71,0.38-0.97,1.52-1.18,1.56c-0.45,0.09-0.39-2.4-1.46-2.73c-0.65-0.2-0.66,0.22-0.32,1.63c0.36,1.48,1.63,2.66,1.79,3.03
				c0.15,0.36-0.15,1.93-0.15,1.93l-0.69-1.35c0,0-1.01-2.02-1.06-0.84c-0.04,1.18,1.79,3.47,1.79,3.47s-0.35,0.94,0.24,0.92
				c0.58-0.02,1.47-0.6,2.29-1.22c0.82-0.62,0.09-0.66-0.28-0.26c-0.37,0.41-1.15,0.88-1.57,0.76c-0.24-0.07-0.22-0.24,0.56-0.84
				c0.53-0.41,0.74-1.22,0.72-1.84c0.08,0.15,0.15,0.27,0.15,0.27s1.01,0.14,1.13,0.12c0.12-0.02,2.1-0.06,2.1-0.06l0.78-0.37
				c0,0,0.96-0.07,1.15-0.07s0.5,0.43,0.75,0.24c0.25-0.19,0.85-0.59,0.85-0.59l0.14-0.79L195.14,27.75z"/>
			<path class="st14" d="M186.22,20.26c0,0,1.29-0.36,1.42-0.33s0.58-0.59,0.13-0.5c-0.45,0.09-1.29-0.04-1.51,0.34
				s-0.34,0.37-0.27,0.49C186.02,20.31,186.22,20.26,186.22,20.26z"/>
			<path class="st14" d="M188.7,22.58c-0.02,0-0.03,0-0.05,0l-0.2,0c-0.95-0.01-1.38-0.03-1.5-0.15c-0.02-0.02,1.21,0.13,1.95-0.05
				c0.51-0.13,0.6-0.56,0.63-0.74c0.04-0.21-0.2-0.64-0.79-0.87c-0.64-0.25-1.43-0.31-1.44-0.31c-0.04,0-0.08-0.03-0.08-0.08
				c0-0.04,0.03-0.08,0.08-0.08c0,0,0.48,0,0.85-0.15c0.35-0.14,0.75-0.04,0.92,0.01c0.03,0.01,0.05,0.01,0.06,0.01
				c0.09,0.02,0.34,0.26,0.53,0.47c0.02,0.03,0.33,0.51,0.24,1.02C189.81,22.15,189.65,22.58,188.7,22.58z"/>
			<path class="st17" d="M187.79,23.79c0,0-1.62-2.13-2.6-2.12s-0.98,0.01-0.98,0.01s0.6-1.5,0.37-1.52
				c-0.23-0.01-0.75,1.19-0.81,1.32c-0.06,0.13-0.32,0.66-0.32,0.66s-0.47-0.14-0.55,0.2c-0.07,0.34,2.59-0.81,3.25,0.49
				c0.66,1.3,0.88,1.36,0.88,1.36L187.79,23.79z"/>
			<path class="st11" d="M197.01,26.28c-0.29-0.14-0.56-0.01-0.83,0.07c-0.69,0.22-1.37,0.23-2.05-0.06
				c-0.05-0.01-0.09-0.01-0.14-0.02c-0.04,0.07-0.11,0.11-0.18,0.15c-0.52-0.08-0.78,0.07-0.78,0.66c0.01,0.61-0.45,0.97-0.99,1.03
				c-1.14,0.11-2.28,0.14-3.36-0.39c-0.14-0.07-0.36-0.44-0.56-0.09c-0.16,0.28,0.3,0.65,0.3,0.65c0.57,0.24,1.17,0.3,1.78,0.32
				c0.56-0.13,1.13-0.03,1.7-0.08c0.46-0.03,0.93-0.01,1.38-0.15c0.6-0.08,1.14-0.43,1.77-0.37c0.18,0.04,0.36,0.09,0.54,0.07
				C196.56,27.87,197.15,27.36,197.01,26.28z"/>
			<path class="st18" d="M193.86,27.07c0,0-1.07-1.13-1.04-1.84c0.03-0.71,0.97-1.16,2.6-1.06c2.17,0.13,2.24,1.32,2.24,1.32
				s-0.23,0.87-0.88,1.42c-0.59,0.5-1.3,0.39-1.85,0.42C194.38,27.36,193.86,27.07,193.86,27.07z"/>
			<path class="st19" d="M191.7,29.1c-0.01,0-0.99,0-2.49-0.05c-1.62-0.05-1.66-0.97-1.57-0.98c0.1-0.01,0.31,0.59,1.58,0.63
				c1.38,0.04,2.33-0.03,2.46-0.03c0.24-0.05,1.23-0.16,1.43-0.16c0.18,0,1.02,0.04,1.19,0.05c0.4-0.13,1-0.41,1.08-0.61
				c0.04-0.11,0.03-0.21-0.04-0.29c-0.09-0.1-0.25-0.12-0.43-0.07c-0.09,0.03-0.21,0.07-0.34,0.13c-0.52,0.21-1.39,0.57-2.97,0.6
				c-1.3,0.03-3.22,0.05-3.46-0.58c-0.03-0.09,0.01-0.19,0.1-0.22c0.09-0.03,0.19,0.01,0.22,0.1c0.15,0.24,1.34,0.54,3.47,0.48
				c1.51-0.04,1.97-0.49,2.5-0.7c0.14-0.06,0.26-0.11,0.37-0.14c0.31-0.09,0.6-0.03,0.78,0.16c0.16,0.17,0.2,0.41,0.11,0.64
				c-0.17,0.44-1.14,0.77-1.33,0.83c-0.02,0.01-0.04,0.01-0.06,0.01c-0.01,0-1.02-0.05-1.21-0.05c-0.13,0-0.91,0.15-1.38,0.24
				C191.72,29.09,191.71,29.1,191.7,29.1z"/>
			<path class="st20" d="M187.66,28.39c0,0,0.68,1.21,0.15,1.94c-0.54,0.73-1.8,1.98-1.7,2.03c0.1,0.05,2.19-0.82,2.48-1.6
				s0.29,0.82-0.93,1.36c-1.22,0.53-1.7,0.92-1.7,0.92s0.88,0.34,1.9-0.15c1.02-0.48,2.43-1.74,2.97-2.47
				c0.54-0.73,1.12-1.45,1.12-1.45s-1.66,0-2.78-0.05C188.49,28.89,187.66,28.39,187.66,28.39z"/>
			<path class="st21" d="M193.63,26.65c0.19,0,1.88-0.26,2.08-0.52c0.19-0.26,0.52,0.39,0.52,0.39s-0.52,0.58-1.36,0.58
				C194.02,27.1,193.63,26.65,193.63,26.65z"/>
			
				<ellipse transform="matrix(0.9921 -0.1254 0.1254 0.9921 -1.641 24.6162)" class="st6" cx="194.68" cy="25.34" rx="0.91" ry="0.27"/>
		</g>
		<g>
			<path class="st16" d="M174.64,19.1c0,0-0.14,0.06-0.25,0.06c-0.11,0-0.34-0.39-0.61-0.28c-0.27,0.11-0.93,1-0.93,1l-1.46-0.44
				l-0.42,0.03l-0.42-0.09l-1.36,0.08c0,0-0.98-0.35-1.02-0.34c-0.04,0.01-0.55-0.25-0.97-0.03c-0.42,0.22-0.4,0.27-0.4,0.27
				s0.34,0.21,0.37,0.41c0.03,0.2,0.54,0.35,0.66,0.34c0.13-0.01-0.13-0.11-0.47,0.41s-1.03,3.52-0.97,3.79
				c0.06,0.27-0.38-0.39-0.38-0.39s-0.89,1.07-0.44,4.14s1.16,4.08,1.16,4.08s-2.12-2.09-2.46-3.69c-0.34-1.6-0.39-0.78-0.39-0.78
				s-0.41-0.67-0.18-1.6c0.23-0.93,1.09-2.47,1.09-2.47l-0.28-2.82l1.64-3.56c0,0,0.48-1.26,0-2.36c-0.48-1.09-1.07-2.55-1.07-2.55
				l-0.93,1.37l0.62-2.75l1.58,1.01l2.51,4.94c0,0,0.85-0.48,2.37-0.42s2.37,0.76,2.37,0.76l1.04,1.18
				C174.63,18.37,174.62,19.12,174.64,19.1z"/>
			<g>
				<path class="st11" d="M173.76,20.47c0.22-0.17,1.12-1.26,1.12-1.26s-0.66-0.41-1.09-0.42c-0.31-0.01-0.4-0.02-0.4-0.02
					s-0.56,0.39-1.06,0.39c-0.91,0.01-1.08-0.87-1.08-0.87s-0.18,0.52-0.6,0.53c0,0,0,0,0,0v0.76c0.62,0.02,1.19,0.13,1.75,0.87
					c0.6,0.79,2.01,2.92,2.01,2.92l0.45-0.16c0,0-1.44-2.35-1.66-2.6C172.96,20.37,173.53,20.64,173.76,20.47z"/>
				<path class="st11" d="M170.05,18.29c0,0-0.17,0.88-1.08,0.87c-0.5-0.01-1.06-0.39-1.06-0.39s-0.1,0.01-0.4,0.02
					c-0.42,0.01-1.09,0.42-1.09,0.42s0.89,1.08,1.12,1.26c0.22,0.17,0.79-0.1,0.57,0.15c-0.22,0.25-1.22,2.76-1.22,2.76
					s1.41-2.13,2.01-2.92c0.56-0.74,1.13-0.85,1.75-0.87v-0.76c0,0,0,0,0,0C170.23,18.81,170.05,18.29,170.05,18.29z"/>
			</g>
			<path class="st6" d="M172.6,19.66c0.01,0.07,0.41,0.28,0.82,0.28c0.41,0,0.52-0.35,0.52-0.35s0-0.34-0.47-0.3
				c-0.51,0.04-0.4,0.17-0.57,0.21C172.7,19.55,172.58,19.57,172.6,19.66z"/>
			<path class="st6" d="M168.75,19.66c-0.01,0.07-0.41,0.28-0.82,0.28s-0.52-0.35-0.52-0.35s0-0.34,0.47-0.3
				c0.51,0.04,0.4,0.17,0.57,0.21C168.65,19.55,168.77,19.57,168.75,19.66z"/>
			<path class="st6" d="M171.83,22.8h-2.49l-0.05,0.27l0.1,0.19c0,0,0.46-0.01,0.64,0.17c0.18,0.17,0.36,0.46,0.36,0.46h0.38
				c0,0,0.18-0.28,0.36-0.46c0.18-0.17,0.64-0.17,0.64-0.17l0.1-0.19L171.83,22.8z"/>
			<path class="st16" d="M173.83,23.35c0,0-1.41-1.87-1.68-2.45c-0.27-0.57-1.06-0.72-1.47-0.73c-0.03,0-0.06,0-0.08,0
				c-0.03,0-0.06,0-0.08,0c-0.41,0.01-1.2,0.16-1.47,0.73c-0.27,0.57-1.68,2.45-1.68,2.45l-0.09,1.76c0,0,0.67,1.2,1.06,1.17
				l1.59-0.97c0,0,0.34-0.44,0.35-0.83c0.01-0.21-1.33-1.26-1.33-1.26l0.29-0.68h2.73l0.29,0.68c0,0-1.34,1.05-1.33,1.26
				c0.01,0.39,0.35,0.83,0.35,0.83l1.59,0.97c0.39,0.03,1.06-1.17,1.06-1.17L173.83,23.35z"/>
		</g>
	</g>
	<g>
		<g>
			<path class="st11" d="M168.31,4.53c0.52-0.21,0.78-0.31,1.3-0.49c0.1,0.3,0.15,0.44,0.26,0.74c-0.51,0.18-0.76,0.27-1.27,0.48
				c0.24,0.59,0.36,0.89,0.6,1.49c0.59-0.24,0.89-0.35,1.5-0.55c0.1,0.3,0.15,0.45,0.25,0.74c-0.93,0.31-1.38,0.49-2.28,0.89
				c-0.9-2-1.35-2.99-2.25-4.99c1.1-0.5,1.66-0.72,2.8-1.1c0.1,0.3,0.15,0.45,0.25,0.74c-0.7,0.23-1.05,0.36-1.74,0.64
				C167.96,3.68,168.08,3.96,168.31,4.53z"/>
			<path class="st11" d="M169.87,1.52c0.42-0.13,0.63-0.19,1.05-0.3c0.49,1.81,0.73,2.72,1.21,4.53c0.58-0.16,0.88-0.23,1.47-0.35
				c0.06,0.31,0.09,0.46,0.16,0.77c-0.92,0.19-1.38,0.3-2.28,0.58C170.84,4.66,170.51,3.62,169.87,1.52z"/>
			<path class="st11" d="M173.14,0.72c0.43-0.08,0.64-0.12,1.07-0.18c0.32,2.17,0.48,3.25,0.8,5.42c-0.35,0.05-0.52,0.08-0.87,0.15
				C173.74,3.95,173.54,2.87,173.14,0.72z"/>
			<path class="st11" d="M174.68,0.47c1.33-0.18,2-0.23,3.34-0.25c0.01,0.31,0.01,0.47,0.01,0.78c-0.44,0.01-0.66,0.02-1.1,0.04
				c0.1,1.87,0.16,2.81,0.26,4.69c-0.35,0.02-0.53,0.03-0.88,0.07c-0.17-1.87-0.26-2.8-0.43-4.67c-0.44,0.04-0.66,0.07-1.1,0.12
				C174.74,0.94,174.72,0.78,174.68,0.47z"/>
			<path class="st11" d="M179.5,2.55c0.55,0.02,0.82,0.04,1.37,0.08c-0.03,0.31-0.04,0.47-0.07,0.78c-0.53-0.05-0.8-0.06-1.33-0.08
				c-0.02,0.64-0.03,0.96-0.06,1.6c0.63,0.02,0.94,0.04,1.57,0.11c-0.03,0.31-0.05,0.47-0.08,0.78c-0.96-0.1-1.44-0.12-2.4-0.12
				c0-2.19,0-3.29-0.01-5.48c1.18,0,1.78,0.03,2.95,0.15c-0.03,0.31-0.05,0.47-0.08,0.78c-0.73-0.07-1.09-0.1-1.82-0.12
				C179.53,1.63,179.52,1.94,179.5,2.55z"/>
			<path class="st11" d="M184.3,4.16c-0.16,0.17-0.24,0.25-0.4,0.43c-0.14,0.66-0.21,0.99-0.35,1.64c-0.35-0.07-0.52-0.11-0.87-0.17
				c0.38-2.16,0.57-3.24,0.95-5.39c0.43,0.08,0.64,0.12,1.07,0.21c-0.2,0.93-0.3,1.39-0.5,2.32c0.01,0,0.01,0,0.02,0
				c0.71-0.82,1.08-1.22,1.87-1.99c0.42,0.11,0.63,0.17,1.05,0.3c-0.87,0.76-1.28,1.15-2.06,1.96c0.25,1.31,0.34,1.97,0.46,3.28
				c-0.35-0.11-0.53-0.16-0.88-0.25C184.55,5.56,184.48,5.09,184.3,4.16z"/>
			<path class="st11" d="M188.95,6.58c-0.38,0.84-0.99,1.1-1.85,0.77c-0.82-0.32-1.1-0.92-0.83-1.75c0.02-0.05,0.03-0.08,0.04-0.13
				c0.34,0.11,0.51,0.17,0.85,0.29c-0.03,0.07-0.04,0.11-0.07,0.18c-0.13,0.37-0.01,0.57,0.27,0.67c0.31,0.12,0.53,0.05,0.73-0.43
				c0.15-0.37,0.22-0.55,0.37-0.92c-0.01,0-0.01,0-0.02-0.01c-0.28,0.23-0.6,0.27-1,0.12c-0.67-0.25-0.88-0.77-0.63-1.54
				c0.12-0.38,0.18-0.57,0.31-0.95c0.27-0.83,0.99-1.14,2-0.76c1.01,0.39,1.35,1.1,0.99,1.9C189.64,5.05,189.41,5.56,188.95,6.58z
				 M188.78,4.47c0.15-0.37,0.22-0.55,0.37-0.91c0.15-0.36,0-0.58-0.32-0.7c-0.32-0.12-0.57-0.06-0.7,0.31
				c-0.13,0.37-0.2,0.56-0.34,0.93c-0.13,0.37,0,0.57,0.3,0.69C188.39,4.89,188.63,4.83,188.78,4.47z"/>
		</g>
	</g>
	<g>
		<g>
			<path class="st11" d="M164.06,42.77c0.56,0.27,0.85,0.4,1.42,0.64c-0.31,0.72-0.46,1.08-0.76,1.79
				c-0.39,0.91-1.19,1.19-2.28,0.66c-1.09-0.53-1.37-1.34-0.89-2.2c0.62-1.12,0.92-1.68,1.54-2.8c0.47-0.86,1.2-1.09,2.1-0.65
				c0.9,0.44,1.16,1.15,0.78,2.05c-0.09,0.22-0.14,0.33-0.23,0.55c-0.38-0.16-0.57-0.25-0.94-0.42c0.11-0.24,0.17-0.36,0.28-0.6
				c0.18-0.4,0.06-0.64-0.24-0.78c-0.3-0.15-0.56-0.09-0.76,0.3c-0.6,1.18-0.9,1.78-1.5,2.96c-0.2,0.39-0.06,0.64,0.29,0.81
				c0.35,0.17,0.63,0.12,0.81-0.27c0.19-0.41,0.29-0.62,0.48-1.03c-0.19-0.09-0.28-0.13-0.47-0.22
				C163.83,43.25,163.9,43.09,164.06,42.77z"/>
			<path class="st11" d="M168.06,41.51c-0.65,1.78-0.97,2.67-1.62,4.46c-0.15,0.41,0.02,0.64,0.38,0.77
				c0.36,0.12,0.63,0.05,0.77-0.37c0.59-1.8,0.88-2.71,1.47-4.51c0.36,0.12,0.55,0.18,0.91,0.28c-0.52,1.8-0.79,2.7-1.31,4.5
				c-0.28,0.94-1.03,1.32-2.16,0.93c-1.13-0.39-1.5-1.16-1.13-2.07c0.7-1.74,1.05-2.61,1.75-4.34
				C167.49,41.3,167.68,41.37,168.06,41.51z"/>
			<path class="st11" d="M172.86,49.07c-0.48-0.08-0.72-0.12-1.2-0.21c0-0.45,0-0.68,0.01-1.13c-0.56-0.11-0.84-0.17-1.4-0.31
				c-0.18,0.42-0.27,0.62-0.46,1.04c-0.43-0.11-0.65-0.16-1.08-0.28c1.13-2.24,1.66-3.37,2.63-5.67c0.57,0.14,0.86,0.2,1.44,0.31
				C172.74,45.31,172.75,46.56,172.86,49.07z M170.6,46.64c0.43,0.1,0.65,0.15,1.08,0.23c0.03-1.26,0.06-1.89,0.13-3.15
				c-0.01,0-0.01,0-0.02,0C171.33,44.9,171.1,45.48,170.6,46.64z"/>
			<path class="st11" d="M175.91,49.41c-0.05-0.16-0.09-0.26-0.05-0.76c0.03-0.39,0.04-0.58,0.07-0.96
				c0.04-0.57-0.17-0.79-0.67-0.84c-0.15-0.01-0.23-0.02-0.39-0.04c-0.11,1-0.16,1.49-0.27,2.49c-0.48-0.05-0.72-0.08-1.19-0.15
				c0.34-2.44,0.51-3.65,0.86-6.09c0.6,0.08,0.9,0.12,1.5,0.17c1.03,0.09,1.46,0.56,1.42,1.51c-0.01,0.19-0.01,0.29-0.02,0.48
				c-0.03,0.63-0.27,1.03-0.77,1.2c0,0.01,0,0.01,0,0.02c0.54,0.24,0.7,0.7,0.68,1.34c-0.02,0.38-0.02,0.57-0.04,0.95
				c-0.01,0.3-0.01,0.52,0.1,0.75C176.65,49.46,176.4,49.45,175.91,49.41z M175.17,44.06c-0.08,0.75-0.12,1.13-0.2,1.88
				c0.17,0.02,0.25,0.03,0.42,0.04c0.41,0.04,0.66-0.1,0.7-0.59c0.02-0.24,0.03-0.36,0.05-0.6c0.03-0.44-0.11-0.64-0.48-0.67
				C175.47,44.09,175.37,44.08,175.17,44.06z"/>
			<path class="st11" d="M177.91,43.35c0.63,0.01,0.95,0.01,1.58-0.01c1-0.03,1.53,0.45,1.61,1.43c0.1,1.24,0.15,1.86,0.25,3.1
				c0.08,0.98-0.47,1.58-1.67,1.61c-0.76,0.02-1.14,0.03-1.9,0.01C177.84,47.04,177.86,45.81,177.91,43.35z M178.93,44.23
				c0.02,1.76,0.03,2.64,0.05,4.39c0.26,0,0.4-0.01,0.66-0.01c0.37-0.01,0.59-0.18,0.57-0.62c-0.06-1.28-0.09-1.92-0.15-3.19
				c-0.02-0.44-0.22-0.59-0.55-0.58C179.27,44.23,179.16,44.23,178.93,44.23z"/>
			<path class="st11" d="M181.62,43.2c0.4-0.04,0.6-0.06,1-0.12c0.33,2.44,0.49,3.66,0.82,6.1c-0.48,0.06-0.72,0.09-1.2,0.14
				C181.99,46.87,181.87,45.65,181.62,43.2z"/>
			<path class="st11" d="M188.12,48.24c-0.47,0.13-0.71,0.19-1.18,0.3c-0.18-0.42-0.27-0.62-0.45-1.04
				c-0.56,0.13-0.84,0.19-1.41,0.29c0,0.45,0,0.68,0,1.13c-0.44,0.08-0.65,0.11-1.09,0.18c0.12-2.51,0.14-3.76,0.1-6.25
				c0.58-0.11,0.87-0.17,1.44-0.3C186.49,44.85,187.01,45.99,188.12,48.24z M185.07,46.94c0.43-0.08,0.65-0.13,1.08-0.22
				c-0.48-1.17-0.72-1.75-1.16-2.93c-0.01,0-0.01,0-0.02,0C185.03,45.05,185.05,45.68,185.07,46.94z"/>
			<path class="st11" d="M188.37,43.52c-0.01,0-0.01,0-0.02,0.01c0.54,1.7,0.81,2.55,1.35,4.24c-0.42,0.13-0.63,0.2-1.05,0.32
				c-0.68-2.37-1.02-3.55-1.69-5.91c0.49-0.14,0.73-0.21,1.21-0.37c0.85,1.27,1.3,1.89,2.24,3.12c0.01,0,0.01,0,0.02-0.01
				c-0.51-1.38-0.77-2.07-1.28-3.45c0.34-0.13,0.51-0.19,0.84-0.33c0.92,2.28,1.38,3.42,2.3,5.7c-0.47,0.19-0.7,0.28-1.17,0.45
				C189.96,45.81,189.41,45.06,188.37,43.52z"/>
			<path class="st11" d="M191.9,40.21c0.9-0.44,1.61-0.2,2.09,0.66c0.04,0.07,0.06,0.1,0.09,0.17c-0.36,0.2-0.54,0.29-0.91,0.48
				c-0.05-0.09-0.07-0.14-0.12-0.23c-0.2-0.39-0.45-0.45-0.75-0.31c-0.3,0.15-0.4,0.38-0.22,0.78c0.19,0.41,0.52,0.63,1.42,0.79
				c1.16,0.21,1.68,0.5,2.02,1.11c0.47,0.86,0.2,1.67-0.89,2.2s-1.89,0.24-2.28-0.66c-0.06-0.14-0.09-0.21-0.15-0.35
				c0.4-0.17,0.61-0.26,1.01-0.45c0.07,0.16,0.11,0.24,0.18,0.4c0.18,0.4,0.47,0.44,0.81,0.27c0.35-0.17,0.49-0.42,0.29-0.81
				c-0.2-0.4-0.57-0.58-1.48-0.76c-1.16-0.24-1.62-0.61-1.9-1.26C190.75,41.35,191,40.65,191.9,40.21z"/>
		</g>
	</g>
	<path class="st11" d="M184.49,36.79c0.56-0.56,4.48-3.54,6.63-5.17l-4.08,0.8l-5.94-1c0,0-4.18,4.68-2.98,7.9
		C179.8,38.67,183.92,37.36,184.49,36.79z"/>
	<circle class="st11" cx="196.27" cy="42.06" r="0.64"/>
	<circle class="st11" cx="160.74" cy="41.42" r="0.64"/>
	<path class="st13" d="M192.29,28.79h-1.34h-0.65l-0.2,0.62c-0.55,1.73-2.85,3.37-6.64,5.43c-2.41,1.31-4.73,2.25-5.53,2.57
		c-1.15-0.5-2.78-1.19-4.59-2.06c-3.58-1.72-7.57-3.59-8.34-5.87l-0.37-1.1l-0.67-5.81l-0.37-1.12l-0.86,1.25l0,6.32l-0.06,0.17
		l0.01,0.18c0.21,2.62,2.84,5.36,7.81,8.15c1.86,1.05,3.71,1.9,4.92,2.43c0.7,0.3,1.26,0.53,1.61,0.67c0.7,0.28,0.75,0.3,0.94,0.3
		c0.12,0,0.31,0,2.46-0.93c1.17-0.51,2.95-1.32,4.76-2.33c4.82-2.67,7.51-5.3,7.99-7.81l0.37-0.98L192.29,28.79z"/>
</g>
</svg>
