<?xml version="1.0" encoding="utf-8"?>
<!-- Generator: Adobe Illustrator 24.2.1, SVG Export Plug-In . SVG Version: 6.00 Build 0)  -->
<svg version="1.1" id="Layer_1" xmlns="http://www.w3.org/2000/svg" xmlns:xlink="http://www.w3.org/1999/xlink" x="0px" y="0px"
	 viewBox="0 0 50 50" style="enable-background:new 0 0 50 50;" xml:space="preserve">
<style type="text/css">
	.st0{fill:#C64479;}
	.st1{fill:#EA7728;}
	.st2{fill:#030303;}
	.st3{fill:#C54278;}
	.st4{fill:#D8673C;}
	.st5{fill:#A9396D;}
	.st6{fill:#FFFFFF;}
	.st7{fill:#0A0B0B;}
	.st8{enable-background:new    ;}
</style>
<g>
	<path class="st0" d="M31.06,12.6c-0.07-0.11-0.11-0.22-0.2-0.31c-0.17-0.14-0.36-0.19-0.56-0.11c-0.88,0.35-4.49,0.63-4.51,0.35
		c0.03-0.4-0.09-0.8,0.01-1.19c0.27-1.08,0.67-2.12,1.36-3.02c0.44-0.58,0.95-1.09,1.46-1.61c0.55-0.57,0.47-0.98-0.21-1.36
		c-0.39-0.22-0.79-0.41-1.19-0.6c-0.96,0-1.85,0.2-2.62,0.79c-0.27,0.21-0.55,0.39-0.83,0.57c-0.22,0.15-0.47,0.26-0.74,0.3
		c-0.42,0.06-0.68-0.15-0.7-0.57c-0.01-0.15,0.02-0.3,0.03-0.45c0.01-0.18,0.08-0.26,0.29-0.25c1.01,0.07,1.9-0.28,2.72-0.83
		c0.18-0.12,0.19-0.19,0.02-0.33c-0.41-0.36-0.85-0.69-1.31-0.99c-0.11-0.08-0.24-0.1-0.36-0.15c-0.31-0.08-0.62-0.11-0.94-0.09
		c-0.2,0.01-0.27-0.07-0.3-0.25c-0.04-0.29-0.07-0.6-0.3-0.8c-0.12-0.1-0.27-0.25-0.41-0.38c0,0,0,0-0.01,0l0,0
		c-0.42-0.35-0.86-0.67-1.33-0.97c-0.18-0.11-0.25-0.09-0.31,0.12c-0.29,0.95-0.37,1.9-0.01,2.85V3.31
		c0.01,0.04,0.05,0.14,0.14,0.33c0.08,0.18,0.07,0.26-0.1,0.4c-1.04,0.82-2.31,3.55-2.34,3.78c-0.01,0.01-0.02,0.03,0,0.04
		c-1.18,2.92,0.45,4.51,0.88,5.14c0.14,0.21,0.14,0.35,0.01,0.56c-0.34,0.56-0.48,1.16-0.3,1.81c0.26,0.99,0.82,1.82,1.42,2.63
		c0.09,0.12,0.17,0.12,0.3,0.06c0.88-0.45,1.63-1.02,1.8-2.08c0.04-0.22,0.14-0.26,0.34-0.17c0.07,0.04,1,0.35,1.83,0.44
		c1.04,0.11,1.59,0.07,2.02,0.01c1.01-0.15,2.52-1,3.39-1.57c-0.05-0.14,0.05-0.2,0.14-0.28c0.44-0.37,0.83-0.78,1.21-1.2
		c0.11-0.13,0.24-0.26,0.25-0.45C31.09,12.69,31.08,12.64,31.06,12.6z"/>
	<path class="st1" d="M31.1,11.86c0,0-0.09-0.1-0.17-0.09c-0.45,0.04-0.52-0.47-0.55-0.54c-0.02-0.06-0.06-0.13-0.1-0.13
		s-0.09,0.09-0.12,0.14c-0.09,0.19-0.18,0.37-0.27,0.56c-0.04,0.07-0.09,0.14-0.19,0.09c-0.07-0.04-0.06-0.11-0.04-0.17
		c0.03-0.11,1.07-3.27,1.12-3.82c0.04-0.4,0.02-0.8-0.14-1.2c-0.56-1.4-2.22-1.95-3.44-1.96c0.03,0.15,0.19,0.2,0.28,0.24
		c0.3,0.12,0.79,0.35,1.13,0.62c0.34,0.26,0.35,0.47,0.12,0.8c-0.19,0.27-0.43,0.49-0.67,0.72c-1.01,0.99-1.74,2.15-2.19,3.49
		c-0.21,0.63-0.29,1.79,0.03,2.26c0.5,0.73,3.39-0.2,4.26-0.56c0.25-0.11,0.47-0.11,0.69,0.05c0.16,0.12,0.22,0.34,0.23,0.37
		C31.36,12.5,31.36,12.16,31.1,11.86z"/>
	<path class="st2" d="M28.57,12.28c-0.21-0.06-0.37-0.56-0.46-0.56c-0.07,0-0.12,0.09-0.15,0.16c-0.05,0.12-0.1,0.24-0.16,0.35
		c-0.13,0.23-0.27,0.22-0.4,0c-0.04-0.07-0.07-0.15-0.11-0.22c-0.04-0.08-0.08-0.14-0.12-0.14s-0.08,0.07-0.12,0.14
		c-0.04,0.07-0.18,0.53-0.39,0.48c-0.19-0.04-0.33-0.16-0.37-0.35c-0.08-0.37-0.02-0.75,0.06-1.11c0.21-1.03,0.96-2.07,1.42-2.66
		c0.28-0.35,0.86-1.03,1.21-1.31c0.1-0.08,0.32-0.2,0.44-0.22c0.19-0.03,0.48,0,0.61,0.29c0.14,0.29,0.15,0.7,0.11,0.93
		c-0.19,1.01-1.1,3.36-1.3,3.91c-0.05,0.13-0.09,0.27-0.23,0.34L28.57,12.28z"/>
	<g>
		<path class="st3" d="M25.75,12.5L25.75,12.5L25.75,12.5z"/>
	</g>
	<path class="st4" d="M29.89,8.99"/>
	<path class="st5" d="M29.96,15.72c0.1,0.56,0.03,1.08-0.1,1.62c-0.03,0.13-0.13,0.15-0.25,0.13c-0.8-0.08-1.61-0.15-2.37-0.43
		c-0.45-0.17-0.87-0.39-1.16-0.81c0.02-0.07,0.04-0.14,0.12-0.15c1.09-0.16,2.01-0.69,2.9-1.3c0.11-0.07,0.21-0.2,0.37-0.12
		C29.49,14.67,29.89,15.3,29.96,15.72z"/>
	<ellipse class="st6" cx="23.49" cy="10.59" rx="1.58" ry="1.46"/>
	<path class="st7" d="M24.24,11.02c-0.38,0-0.67-0.27-0.67-0.64c0-0.34,0.31-0.64,0.65-0.64c0.35,0,0.64,0.29,0.65,0.64
		C24.87,10.74,24.6,11.02,24.24,11.02z"/>
</g>
<g class="st8">
	<path class="st0" d="M15.73,18.67c0,0.15-0.11,0.26-0.25,0.26c-0.05,0-0.05,0-0.19-0.05c-0.08-0.03-0.17-0.05-0.25-0.05
		c-0.16,0-0.28,0.08-0.28,0.2c0,0.05,0.03,0.11,0.08,0.14c0.07,0.05,0.07,0.05,0.3,0.11c0.54,0.15,0.77,0.38,0.77,0.77
		c0,0.21-0.08,0.42-0.21,0.56c-0.15,0.17-0.41,0.26-0.72,0.26c-0.48,0-0.83-0.17-0.83-0.41c0-0.15,0.11-0.27,0.24-0.27
		c0.07,0,0.07,0,0.34,0.1c0.08,0.03,0.19,0.05,0.27,0.05c0.19,0,0.31-0.1,0.31-0.25c0-0.08-0.03-0.14-0.09-0.17
		c-0.07-0.05-0.12-0.07-0.39-0.15c-0.28-0.08-0.4-0.14-0.5-0.24c-0.1-0.1-0.16-0.25-0.16-0.44c0-0.45,0.38-0.78,0.9-0.78
		C15.46,18.3,15.73,18.45,15.73,18.67z"/>
	<path class="st0" d="M16.16,19.24c0-0.19,0.11-0.31,0.27-0.31c0.12,0,0.2,0.05,0.25,0.19c0.16-0.15,0.28-0.2,0.49-0.2
		c0.19,0,0.34,0.05,0.47,0.16c0.14,0.13,0.19,0.26,0.19,0.51v0.88c0,0.13,0,0.16-0.04,0.22c-0.04,0.08-0.14,0.13-0.23,0.13
		c-0.1,0-0.19-0.05-0.23-0.13c-0.03-0.06-0.04-0.09-0.04-0.22v-0.75c0-0.21-0.12-0.34-0.3-0.34c-0.17,0-0.3,0.14-0.3,0.32v0.77
		c0,0.13,0,0.16-0.04,0.22c-0.04,0.08-0.13,0.13-0.23,0.13c-0.1,0-0.19-0.05-0.23-0.13c-0.03-0.06-0.04-0.09-0.04-0.22V19.24z"/>
	<path class="st0" d="M19.88,20.51c0,0.19-0.11,0.32-0.27,0.32c-0.13,0-0.22-0.07-0.27-0.21c-0.13,0.17-0.24,0.22-0.44,0.22
		c-0.2,0-0.38-0.07-0.53-0.2c-0.21-0.19-0.32-0.44-0.32-0.77c0-0.29,0.09-0.52,0.28-0.71c0.16-0.16,0.35-0.25,0.56-0.25
		c0.19,0,0.3,0.05,0.46,0.21c0.06-0.14,0.14-0.2,0.27-0.2c0.15,0,0.27,0.12,0.27,0.27V20.51z M18.59,19.87
		c0,0.28,0.15,0.47,0.37,0.47c0.22,0,0.37-0.19,0.37-0.46c0-0.27-0.15-0.46-0.37-0.46C18.74,19.41,18.59,19.6,18.59,19.87z"/>
	<path class="st0" d="M21.48,19.02c0.09,0.05,0.15,0.15,0.15,0.25c0,0.13-0.09,0.24-0.21,0.24c-0.05,0-0.06,0-0.19-0.05
		c-0.08-0.03-0.13-0.04-0.19-0.04c-0.23,0-0.39,0.19-0.39,0.46c0,0.28,0.16,0.46,0.41,0.46c0.07,0,0.14-0.02,0.21-0.05
		c0.09-0.04,0.11-0.05,0.15-0.05c0.12,0,0.22,0.11,0.22,0.24c0,0.07-0.04,0.15-0.1,0.2c-0.13,0.09-0.34,0.16-0.54,0.16
		c-0.26,0-0.48-0.09-0.65-0.28c-0.17-0.19-0.24-0.39-0.24-0.69c0-0.29,0.1-0.55,0.28-0.71c0.17-0.16,0.41-0.25,0.64-0.25
		C21.18,18.91,21.36,18.95,21.48,19.02z"/>
	<path class="st0" d="M22.39,20.47c0,0.13,0,0.16-0.04,0.22c-0.04,0.08-0.13,0.13-0.23,0.13c-0.1,0-0.19-0.05-0.23-0.13
		c-0.03-0.06-0.04-0.09-0.04-0.22v-1.99c0-0.13,0-0.16,0.04-0.22c0.04-0.08,0.13-0.13,0.23-0.13c0.09,0,0.19,0.05,0.23,0.13
		c0.03,0.06,0.04,0.09,0.04,0.22v1.08l0.49-0.5c0.11-0.11,0.16-0.14,0.24-0.14c0.15,0,0.26,0.12,0.26,0.27
		c0,0.08-0.03,0.13-0.15,0.24l-0.33,0.32l0.47,0.58c0.09,0.11,0.12,0.16,0.12,0.24c0,0.15-0.12,0.27-0.27,0.27
		c-0.1,0-0.16-0.04-0.26-0.17l-0.57-0.73V20.47z"/>
	<path class="st0" d="M23.9,20.28c-0.18,0-0.3-0.09-0.3-0.23c0-0.04,0.01-0.08,0.03-0.12l0.72-1.33c0.09-0.17,0.24-0.27,0.4-0.27
		c0.21,0,0.38,0.17,0.38,0.41v1.05h0.06c0.15,0,0.25,0.09,0.25,0.23c0,0.14-0.12,0.25-0.28,0.25h-0.03v0.21c0,0.13,0,0.16-0.03,0.22
		c-0.04,0.07-0.14,0.13-0.23,0.13c-0.09,0-0.19-0.05-0.22-0.13c-0.03-0.06-0.04-0.09-0.04-0.22v-0.21H23.9z M24.6,19.02l-0.4,0.77
		h0.4V19.02z"/>
	<path class="st0" d="M27.18,18.67c0,0.15-0.11,0.26-0.25,0.26c-0.05,0-0.05,0-0.19-0.05c-0.08-0.03-0.17-0.05-0.25-0.05
		c-0.16,0-0.28,0.08-0.28,0.2c0,0.05,0.03,0.11,0.08,0.14c0.07,0.05,0.07,0.05,0.3,0.11c0.54,0.15,0.77,0.38,0.77,0.77
		c0,0.21-0.08,0.42-0.21,0.56c-0.15,0.17-0.41,0.26-0.72,0.26c-0.48,0-0.83-0.17-0.83-0.41c0-0.15,0.11-0.27,0.24-0.27
		c0.07,0,0.07,0,0.33,0.1c0.08,0.03,0.19,0.05,0.27,0.05c0.19,0,0.31-0.1,0.31-0.25c0-0.08-0.03-0.14-0.09-0.17
		c-0.07-0.05-0.12-0.07-0.39-0.15c-0.28-0.08-0.4-0.14-0.5-0.24c-0.1-0.1-0.16-0.25-0.16-0.44c0-0.45,0.38-0.78,0.9-0.78
		C26.9,18.3,27.18,18.45,27.18,18.67z"/>
	<path class="st0" d="M27.61,19.24c0-0.19,0.11-0.31,0.27-0.31c0.12,0,0.2,0.05,0.25,0.19c0.16-0.15,0.29-0.2,0.49-0.2
		c0.19,0,0.34,0.05,0.47,0.16c0.14,0.13,0.19,0.26,0.19,0.51v0.88c0,0.13,0,0.16-0.04,0.22c-0.04,0.08-0.13,0.13-0.23,0.13
		c-0.1,0-0.19-0.05-0.23-0.13c-0.03-0.06-0.04-0.09-0.04-0.22v-0.75c0-0.21-0.12-0.34-0.3-0.34c-0.17,0-0.3,0.14-0.3,0.32v0.77
		c0,0.13,0,0.16-0.04,0.22c-0.04,0.08-0.13,0.13-0.23,0.13c-0.1,0-0.19-0.05-0.23-0.13c-0.03-0.06-0.04-0.09-0.04-0.22V19.24z"/>
	<path class="st0" d="M31.33,20.51c0,0.19-0.11,0.32-0.27,0.32c-0.13,0-0.21-0.07-0.27-0.21c-0.13,0.17-0.24,0.22-0.44,0.22
		s-0.38-0.07-0.53-0.2c-0.21-0.19-0.32-0.44-0.32-0.77c0-0.29,0.09-0.52,0.28-0.71c0.16-0.16,0.35-0.25,0.56-0.25
		c0.19,0,0.3,0.05,0.46,0.21c0.06-0.14,0.14-0.2,0.27-0.2c0.15,0,0.27,0.12,0.27,0.27V20.51z M30.04,19.87
		c0,0.28,0.15,0.47,0.37,0.47c0.22,0,0.37-0.19,0.37-0.46c0-0.27-0.15-0.46-0.37-0.46C30.19,19.41,30.04,19.6,30.04,19.87z"/>
	<path class="st0" d="M32.93,19.02c0.09,0.05,0.15,0.15,0.15,0.25c0,0.13-0.09,0.24-0.21,0.24c-0.05,0-0.06,0-0.19-0.05
		c-0.08-0.03-0.13-0.04-0.19-0.04c-0.23,0-0.39,0.19-0.39,0.46c0,0.28,0.16,0.46,0.41,0.46c0.07,0,0.14-0.02,0.21-0.05
		c0.09-0.04,0.11-0.05,0.15-0.05c0.12,0,0.22,0.11,0.22,0.24c0,0.07-0.04,0.15-0.1,0.2c-0.13,0.09-0.34,0.16-0.54,0.16
		c-0.26,0-0.48-0.09-0.65-0.28c-0.17-0.19-0.24-0.39-0.24-0.69c0-0.29,0.1-0.55,0.28-0.71c0.17-0.16,0.41-0.25,0.64-0.25
		C32.63,18.91,32.8,18.95,32.93,19.02z"/>
	<path class="st0" d="M33.83,20.47c0,0.13,0,0.16-0.04,0.22c-0.04,0.08-0.13,0.13-0.23,0.13c-0.1,0-0.19-0.05-0.23-0.13
		c-0.03-0.06-0.04-0.09-0.04-0.22v-1.99c0-0.13,0-0.16,0.04-0.22c0.04-0.08,0.13-0.13,0.23-0.13c0.09,0,0.19,0.05,0.23,0.13
		c0.03,0.06,0.04,0.09,0.04,0.22v1.08l0.49-0.5c0.11-0.11,0.16-0.14,0.25-0.14c0.15,0,0.26,0.12,0.26,0.27
		c0,0.08-0.03,0.13-0.15,0.24l-0.33,0.32l0.47,0.58c0.09,0.11,0.12,0.16,0.12,0.24c0,0.15-0.12,0.27-0.27,0.27
		c-0.1,0-0.16-0.04-0.26-0.17l-0.57-0.73V20.47z"/>
</g>
</svg>
