<?xml version="1.0" encoding="utf-8"?>
<!-- Generator: Adobe Illustrator 24.2.1, SVG Export Plug-In . SVG Version: 6.00 Build 0)  -->
<svg version="1.1" xmlns="http://www.w3.org/2000/svg" xmlns:xlink="http://www.w3.org/1999/xlink" x="0px" y="0px"
	 viewBox="0 0 1200 360" style="enable-background:new 0 0 1200 360;" xml:space="preserve">
<style type="text/css">
	.st0{fill:#DDF2EC;}
	.st1{fill:#AC5656;}
	.st2{font-family:'MyriadPro-Regular';}
	.st3{font-size:12px;}
	.st4{fill:#FFCB00;}
	.st5{font-family:'Abel-Regular';}
	.st6{fill:none;}
	.st7{fill:#FFFFFF;}
	.st8{fill:#AC5656;stroke:#000000;stroke-miterlimit:10;}
	.st9{fill:#FFFFFF;stroke:#231F20;stroke-miterlimit:10;}
	.st10{font-size:8.86px;}
	.st11{font-size:15.463px;}
	.st12{fill:none;stroke:#AC5656;stroke-width:0.5;stroke-miterlimit:10;}
	.st13{fill:none;stroke:#AC5656;stroke-linecap:round;stroke-miterlimit:10;}
	.st14{fill:#FF0034;}
	.st15{fill:#0043FF;}
</style>
<g id="Layer_1">
	<rect x="469.64" y="260.14" class="st0" width="158.05" height="27.94"/>
	<circle class="st1" cx="460.62" cy="71.86" r="12.92"/>
	<text transform="matrix(1 0 0 1 228.9863 64.769)" class="st2 st3">Dark roast tarot</text>
	<text transform="matrix(1 0 0 1 372.5317 174.2039)" class="st4 st5 st3">the wabi-sabi room</text>
	<path id="SVGID_x5F_1_x5F_" class="st6" d="M469.86,74.51c-1.47,5.1-6.79,8.05-11.89,6.58c-5.1-1.47-8.05-6.79-6.58-11.89
		c1.47-5.1,6.79-8.05,11.89-6.58C468.38,64.09,471.32,69.41,469.86,74.51z"/>
	<text>	<textPath  xlink:href="#SVGID_x5F_1_x5F_" startOffset="73.341%">
<tspan  class="st7 st5" style="font-size:5.2054px;">the wabi sabi room</tspan>	</textPath>
</text>
	<path id="SVGID_x5F_2_x5F_" class="st6" d="M473.55,56.5c0,8.48-6.88,15.36-15.36,15.36s-15.36-6.88-15.36-15.36
		s6.88-15.36,15.36-15.36S473.55,48.02,473.55,56.5z"/>
	<text>	<textPath  xlink:href="#SVGID_x5F_2_x5F_" startOffset="73.341%">
	</textPath>
</text>
	<circle class="st7" cx="460.62" cy="71.86" r="9.02"/>
	<circle class="st8" cx="586.58" cy="70.98" r="22"/>
	<path id="SVGID_x5F_3_x5F_" class="st6" d="M602.94,70.98c0,9.03-7.32,16.36-16.36,16.36s-16.36-7.32-16.36-16.36
		s7.32-16.36,16.36-16.36S602.94,61.95,602.94,70.98z"/>
	<text>	<textPath  xlink:href="#SVGID_x5F_3_x5F_" startOffset="73.341%">
<tspan  class="st7 st5 st10">the wabi sabi room</tspan>	</textPath>
</text>
	<circle class="st9" cx="586.58" cy="70.98" r="15.36"/>
	<text transform="matrix(0.7071 0.7071 -0.7071 0.7071 446.0495 70.5705)" class="st5 st10">Agency</text>
	<path class="st4" d="M542.54,124.54c23.25,0,42.09,18.84,42.09,42.09s-18.84,42.09-42.09,42.09c-23.25,0-42.09-18.84-42.09-42.09
		S519.29,124.54,542.54,124.54 M542.54,123.79c-23.62,0-42.84,19.22-42.84,42.84s19.22,42.84,42.84,42.84s42.84-19.22,42.84-42.84
		S566.16,123.79,542.54,123.79L542.54,123.79z"/>
	<g>
		<path class="st4" d="M520.4,144.48c-0.18,0.19-0.37,0.33-0.6,0.43c-0.22,0.1-0.45,0.15-0.69,0.16c-0.24,0.01-0.47-0.03-0.7-0.11
			c-0.23-0.08-0.44-0.21-0.62-0.39l-3.17-2.98l-0.86,0.92l-0.58-0.55l0.86-0.92l-1.22-1.15l0.48-0.71l1.32,1.25l1.22-1.29l0.58,0.55
			l-1.22,1.29l3.2,3.01c0.1,0.1,0.22,0.17,0.34,0.21c0.12,0.04,0.25,0.06,0.38,0.06c0.13,0,0.25-0.03,0.38-0.09
			c0.12-0.05,0.23-0.13,0.33-0.23l0.53-0.56l0.58,0.55L520.4,144.48z"/>
		<path class="st4" d="M525.08,140.61l-3.05-4.12c-0.1-0.14-0.22-0.24-0.36-0.33c-0.14-0.08-0.28-0.13-0.44-0.16
			c-0.15-0.02-0.31-0.02-0.47,0.02c-0.16,0.04-0.3,0.11-0.44,0.21l-0.45,0.33c-0.14,0.1-0.24,0.22-0.33,0.36
			c-0.08,0.14-0.13,0.29-0.15,0.44c-0.02,0.15-0.02,0.31,0.02,0.46c0.04,0.16,0.11,0.3,0.21,0.44l3.05,4.12l-0.68,0.5l-5.84-7.88
			l0.68-0.5l2.02,2.72c0.02-0.3,0.1-0.58,0.24-0.84c0.14-0.26,0.34-0.49,0.59-0.68l0.17-0.13c0.23-0.17,0.47-0.28,0.74-0.35
			s0.53-0.08,0.79-0.04c0.26,0.04,0.51,0.13,0.75,0.26c0.23,0.14,0.44,0.32,0.6,0.55l3.02,4.08L525.08,140.61z"/>
		<path class="st4" d="M530.71,136.37c0.01,0.27-0.03,0.53-0.12,0.78c-0.09,0.25-0.23,0.47-0.4,0.68c-0.18,0.2-0.4,0.37-0.66,0.49
			l-0.51,0.24c-0.26,0.12-0.52,0.19-0.79,0.2c-0.27,0.01-0.53-0.03-0.78-0.12c-0.25-0.09-0.47-0.22-0.68-0.41
			c-0.2-0.18-0.36-0.4-0.49-0.65l-1.34-2.86c-0.12-0.26-0.19-0.52-0.2-0.79c-0.01-0.27,0.03-0.53,0.12-0.78
			c0.09-0.25,0.23-0.47,0.41-0.68c0.18-0.2,0.4-0.36,0.66-0.49l0.51-0.24c0.26-0.12,0.52-0.18,0.79-0.19
			c0.27-0.01,0.53,0.03,0.78,0.12c0.25,0.09,0.48,0.23,0.68,0.41c0.2,0.18,0.37,0.4,0.49,0.66l0.7,1.49l-3.47,1.63l0.66,1.41
			c0.07,0.15,0.17,0.28,0.29,0.39c0.12,0.11,0.25,0.19,0.4,0.24c0.15,0.05,0.3,0.08,0.46,0.07c0.16,0,0.32-0.04,0.47-0.12l0.51-0.24
			c0.15-0.07,0.28-0.17,0.39-0.29c0.11-0.12,0.19-0.25,0.24-0.4c0.05-0.15,0.08-0.3,0.07-0.46c0-0.16-0.04-0.32-0.12-0.47l-0.2-0.42
			l0.82-0.23l0.12,0.25C530.63,135.84,530.7,136.1,530.71,136.37z M528.38,133.04c-0.07-0.15-0.17-0.28-0.29-0.39
			c-0.12-0.11-0.25-0.19-0.4-0.24c-0.15-0.05-0.3-0.08-0.46-0.07c-0.16,0.01-0.32,0.04-0.47,0.12l-0.51,0.24
			c-0.15,0.07-0.28,0.17-0.39,0.29c-0.11,0.12-0.19,0.25-0.24,0.4c-0.05,0.15-0.08,0.3-0.07,0.46c0.01,0.16,0.04,0.32,0.12,0.47
			l0.44,0.94l2.71-1.27L528.38,133.04z"/>
		<path class="st4" d="M541.77,135.27l-0.46,0.04l-2.12-5.1l-0.06-0.36l0.01,0.36l-1.14,5.41l-0.46,0.04l-2.98-6.75l0.85-0.08
			l2.15,5.11l0.06,0.36l-0.01-0.36l1.14-5.42l0.5-0.05l2.12,5.12l0.06,0.36l-0.01-0.36l1.17-5.42l0.85-0.08L541.77,135.27z"/>
		<path class="st4" d="M549.22,135.98l-0.35-0.76c-0.23,0.22-0.49,0.38-0.8,0.49c-0.31,0.11-0.63,0.14-0.97,0.09l-0.21-0.03
			c-0.28-0.04-0.53-0.14-0.77-0.28c-0.23-0.14-0.43-0.32-0.58-0.53c-0.16-0.21-0.27-0.45-0.34-0.71c-0.07-0.26-0.08-0.54-0.04-0.81
			l0.01-0.07c0.04-0.28,0.13-0.54,0.28-0.77c0.14-0.23,0.32-0.43,0.53-0.58c0.21-0.16,0.45-0.27,0.71-0.34
			c0.26-0.07,0.54-0.08,0.81-0.04l1.76,0.27l0.16-1.07c0.03-0.17,0.02-0.33-0.02-0.48c-0.04-0.16-0.11-0.3-0.2-0.42
			c-0.09-0.12-0.21-0.23-0.34-0.31c-0.14-0.09-0.29-0.14-0.46-0.17l-0.49-0.07c-0.17-0.02-0.33-0.02-0.48,0.02
			c-0.16,0.04-0.3,0.11-0.42,0.2c-0.12,0.09-0.23,0.21-0.31,0.34c-0.09,0.14-0.14,0.29-0.17,0.45l-0.04,0.25l-0.81-0.26l0.01-0.07
			c0.04-0.28,0.14-0.54,0.28-0.77c0.14-0.23,0.32-0.43,0.53-0.58c0.21-0.16,0.45-0.27,0.71-0.34c0.26-0.07,0.54-0.08,0.81-0.04
			l0.49,0.07c0.28,0.04,0.54,0.13,0.77,0.28c0.23,0.14,0.43,0.32,0.58,0.53c0.16,0.21,0.27,0.45,0.34,0.71
			c0.07,0.26,0.08,0.54,0.04,0.82l-0.76,5.02L549.22,135.98z M549.17,132.55l-1.76-0.27c-0.17-0.03-0.33-0.02-0.48,0.02
			c-0.16,0.04-0.3,0.11-0.42,0.2c-0.12,0.09-0.23,0.21-0.31,0.35c-0.09,0.14-0.14,0.29-0.17,0.46l-0.04,0.29
			c-0.02,0.17-0.02,0.33,0.02,0.48s0.11,0.3,0.2,0.42c0.09,0.12,0.21,0.23,0.34,0.31c0.14,0.08,0.29,0.14,0.46,0.17l0.55,0.08
			c0.17,0.02,0.33,0.02,0.49-0.02c0.16-0.04,0.3-0.11,0.42-0.2c0.12-0.09,0.23-0.21,0.31-0.34c0.09-0.14,0.14-0.29,0.17-0.46
			L549.17,132.55z"/>
		<path class="st4" d="M555.65,136.9c-0.19,0.2-0.4,0.36-0.64,0.47c-0.24,0.11-0.5,0.18-0.77,0.19c-0.27,0.02-0.54-0.02-0.81-0.12
			l-0.53-0.19c-0.27-0.1-0.5-0.24-0.7-0.42c-0.2-0.19-0.36-0.4-0.47-0.64c-0.11-0.24-0.18-0.49-0.19-0.77
			c-0.02-0.27,0.02-0.54,0.12-0.81l2.67-7.42l0.79,0.28l-1.15,3.19c0.26-0.15,0.53-0.24,0.83-0.27c0.3-0.03,0.59,0.01,0.89,0.12
			l0.2,0.07c0.27,0.1,0.5,0.24,0.7,0.42c0.2,0.19,0.36,0.4,0.47,0.64c0.11,0.24,0.18,0.49,0.19,0.77c0.02,0.27-0.02,0.54-0.12,0.81
			l-1.07,2.97C555.97,136.47,555.83,136.7,555.65,136.9z M556.36,132.9c0.06-0.16,0.08-0.32,0.07-0.48
			c-0.01-0.16-0.05-0.31-0.11-0.45c-0.07-0.14-0.16-0.27-0.28-0.38c-0.12-0.11-0.26-0.19-0.41-0.25l-0.53-0.19
			c-0.16-0.06-0.32-0.08-0.48-0.07c-0.16,0.01-0.31,0.05-0.45,0.11c-0.14,0.07-0.26,0.16-0.38,0.28c-0.11,0.12-0.19,0.26-0.25,0.42
			l-1.1,3.06c-0.06,0.16-0.08,0.32-0.07,0.48c0.01,0.16,0.05,0.31,0.11,0.45c0.07,0.14,0.16,0.27,0.28,0.38
			c0.12,0.11,0.26,0.19,0.42,0.25l0.53,0.19c0.16,0.06,0.32,0.08,0.48,0.07c0.16-0.01,0.31-0.05,0.45-0.11
			c0.14-0.07,0.26-0.16,0.37-0.28c0.11-0.12,0.19-0.26,0.25-0.41L556.36,132.9z"/>
		<path class="st4" d="M557.13,138.94l3.34-6.15l0.74,0.4l-3.34,6.15L557.13,138.94z M561.21,131.28l0.54-0.99l0.86,0.47l-0.54,0.98
			L561.21,131.28z"/>
		<path class="st4" d="M567.53,144.83c-0.2,0.2-0.42,0.34-0.67,0.43c-0.25,0.09-0.5,0.12-0.76,0.1c-0.26-0.02-0.51-0.08-0.76-0.2
			c-0.25-0.12-0.47-0.27-0.67-0.47l-0.4-0.39c-0.2-0.2-0.36-0.43-0.46-0.68c-0.11-0.26-0.16-0.52-0.17-0.79
			c-0.01-0.27,0.04-0.53,0.13-0.79s0.24-0.49,0.44-0.69l0.2-0.2l0.69,0.49l-0.33,0.33c-0.12,0.12-0.21,0.26-0.26,0.41
			c-0.05,0.16-0.08,0.31-0.07,0.47c0.01,0.16,0.04,0.32,0.11,0.47c0.07,0.15,0.16,0.29,0.28,0.41l0.4,0.39
			c0.12,0.12,0.25,0.21,0.4,0.29c0.15,0.07,0.29,0.12,0.45,0.14c0.15,0.02,0.3,0.01,0.44-0.04c0.14-0.04,0.27-0.13,0.39-0.25
			c0.18-0.18,0.28-0.36,0.32-0.55c0.04-0.19,0.03-0.39-0.03-0.59c-0.05-0.2-0.14-0.41-0.25-0.62c-0.11-0.21-0.23-0.43-0.35-0.65
			c-0.12-0.22-0.23-0.44-0.33-0.67c-0.1-0.23-0.16-0.46-0.18-0.69s0-0.47,0.08-0.7c0.08-0.24,0.24-0.47,0.47-0.71
			c0.2-0.2,0.42-0.35,0.66-0.44c0.24-0.09,0.49-0.13,0.74-0.12c0.25,0.01,0.5,0.07,0.74,0.18c0.24,0.11,0.46,0.26,0.66,0.46
			l0.35,0.35c0.2,0.2,0.35,0.42,0.46,0.68c0.1,0.25,0.16,0.51,0.16,0.78c0,0.26-0.05,0.52-0.15,0.78c-0.1,0.25-0.25,0.48-0.45,0.68
			l-0.02,0.02l-0.69-0.49l0.15-0.15c0.12-0.12,0.21-0.25,0.27-0.4c0.06-0.15,0.09-0.3,0.09-0.46s-0.03-0.31-0.09-0.46
			c-0.06-0.15-0.15-0.28-0.27-0.4l-0.35-0.35c-0.12-0.12-0.25-0.21-0.39-0.28c-0.14-0.07-0.28-0.11-0.43-0.12
			c-0.14-0.01-0.29,0.01-0.42,0.06c-0.14,0.05-0.27,0.13-0.39,0.25c-0.17,0.17-0.27,0.35-0.3,0.54c-0.03,0.19-0.02,0.38,0.04,0.58
			c0.05,0.2,0.14,0.41,0.25,0.62c0.11,0.21,0.23,0.43,0.35,0.65c0.12,0.22,0.22,0.45,0.32,0.68c0.1,0.23,0.15,0.46,0.18,0.69
			c0.02,0.23-0.01,0.47-0.09,0.71C567.92,144.36,567.77,144.6,567.53,144.83z"/>
		<path class="st4" d="M569.67,150.91l0.32-0.77c-0.31-0.02-0.61-0.11-0.9-0.26c-0.29-0.15-0.52-0.37-0.72-0.66l-0.12-0.18
			c-0.16-0.23-0.26-0.49-0.31-0.75c-0.05-0.27-0.05-0.53,0-0.79c0.05-0.26,0.15-0.5,0.3-0.73c0.15-0.23,0.34-0.42,0.57-0.58
			l0.06-0.04c0.23-0.16,0.49-0.26,0.75-0.31c0.27-0.05,0.53-0.05,0.79,0c0.26,0.05,0.5,0.15,0.73,0.3c0.23,0.15,0.42,0.34,0.58,0.57
			l0.99,1.48l0.9-0.6c0.14-0.09,0.25-0.21,0.34-0.34c0.09-0.14,0.15-0.28,0.18-0.43c0.03-0.15,0.03-0.31,0-0.46
			c-0.03-0.16-0.09-0.31-0.18-0.45l-0.27-0.41c-0.09-0.14-0.21-0.25-0.34-0.34c-0.14-0.09-0.28-0.15-0.43-0.18
			c-0.15-0.03-0.31-0.03-0.46,0c-0.16,0.03-0.31,0.09-0.45,0.18l-0.21,0.14l-0.35-0.77l0.06-0.04c0.23-0.16,0.49-0.26,0.75-0.31
			c0.27-0.05,0.53-0.05,0.79,0c0.26,0.05,0.5,0.15,0.73,0.3c0.23,0.15,0.42,0.34,0.58,0.58l0.27,0.41c0.16,0.23,0.26,0.49,0.31,0.75
			c0.05,0.27,0.05,0.53,0,0.79c-0.05,0.26-0.15,0.5-0.3,0.73c-0.15,0.23-0.34,0.42-0.58,0.58l-4.22,2.83L569.67,150.91z
			 M572.18,148.56l-0.99-1.48c-0.09-0.14-0.21-0.25-0.34-0.34c-0.14-0.09-0.28-0.15-0.43-0.18c-0.15-0.03-0.31-0.03-0.47,0
			s-0.31,0.09-0.45,0.19l-0.25,0.16c-0.14,0.09-0.25,0.21-0.34,0.34c-0.09,0.14-0.15,0.28-0.18,0.43s-0.03,0.31,0,0.47
			c0.03,0.16,0.09,0.31,0.18,0.45l0.31,0.47c0.09,0.14,0.21,0.25,0.34,0.34c0.14,0.09,0.28,0.15,0.43,0.18
			c0.15,0.03,0.31,0.03,0.47,0c0.16-0.03,0.31-0.09,0.45-0.18L572.18,148.56z"/>
		<path class="st4" d="M573.33,156.26c-0.27,0-0.53-0.06-0.78-0.16c-0.24-0.1-0.46-0.25-0.66-0.44c-0.19-0.19-0.35-0.42-0.45-0.68
			l-0.21-0.52c-0.11-0.26-0.16-0.53-0.16-0.8c0-0.27,0.06-0.53,0.16-0.78s0.25-0.46,0.44-0.66c0.19-0.19,0.42-0.35,0.68-0.45
			l7.28-3.01l0.32,0.78l-3.13,1.3c0.28,0.09,0.54,0.23,0.76,0.43c0.22,0.2,0.39,0.45,0.51,0.74l0.08,0.2
			c0.11,0.26,0.16,0.53,0.16,0.8c0,0.27-0.06,0.53-0.16,0.77c-0.1,0.24-0.25,0.46-0.44,0.66c-0.19,0.19-0.42,0.35-0.68,0.45
			l-2.92,1.21C573.87,156.21,573.6,156.26,573.33,156.26z M576.77,154.1c0.16-0.06,0.29-0.15,0.4-0.27c0.11-0.12,0.2-0.25,0.26-0.39
			c0.06-0.14,0.09-0.29,0.09-0.46c0-0.16-0.03-0.32-0.09-0.48l-0.21-0.52c-0.06-0.16-0.15-0.29-0.27-0.4
			c-0.12-0.11-0.24-0.2-0.39-0.26c-0.14-0.06-0.29-0.09-0.46-0.09c-0.16,0-0.32,0.03-0.48,0.09l-3.01,1.24
			c-0.16,0.06-0.29,0.15-0.4,0.27c-0.11,0.12-0.2,0.25-0.26,0.39c-0.06,0.14-0.09,0.29-0.09,0.46c0,0.16,0.03,0.32,0.09,0.48
			l0.21,0.52c0.06,0.16,0.15,0.29,0.27,0.4c0.12,0.11,0.25,0.2,0.39,0.26c0.14,0.06,0.29,0.09,0.46,0.09c0.16,0,0.32-0.03,0.48-0.09
			L576.77,154.1z"/>
		<path class="st4" d="M572.83,158.75l6.79-1.68l0.2,0.82l-6.8,1.68L572.83,158.75z M581.24,156.61l1.09-0.27l0.24,0.95l-1.09,0.27
			L581.24,156.61z"/>
		<path class="st4" d="M580.05,166.79c0-0.17-0.04-0.33-0.1-0.47c-0.07-0.15-0.16-0.27-0.27-0.38c-0.11-0.11-0.24-0.19-0.39-0.25
			c-0.15-0.06-0.31-0.09-0.48-0.09l-4.98,0.1l-0.02-0.84l7-0.14l0.01,0.28l-0.7,0.47c0.26,0.19,0.47,0.42,0.63,0.71
			c0.16,0.29,0.24,0.6,0.25,0.94l0.01,0.49l-0.94,0.02L580.05,166.79z"/>
		<path class="st4" d="M574.3,173.45c-0.23-0.14-0.43-0.32-0.59-0.53c-0.16-0.21-0.27-0.45-0.34-0.71
			c-0.07-0.26-0.08-0.53-0.04-0.81l0.08-0.55c0.04-0.28,0.13-0.54,0.27-0.77c0.14-0.23,0.32-0.43,0.53-0.59
			c0.21-0.16,0.45-0.27,0.71-0.34c0.26-0.07,0.54-0.08,0.82-0.04l3.12,0.46c0.28,0.04,0.54,0.13,0.77,0.27
			c0.23,0.14,0.43,0.32,0.59,0.53c0.16,0.21,0.27,0.45,0.34,0.71c0.07,0.26,0.08,0.54,0.04,0.81l-0.08,0.55
			c-0.04,0.28-0.13,0.54-0.27,0.77c-0.14,0.23-0.32,0.43-0.53,0.58c-0.21,0.16-0.45,0.27-0.71,0.34c-0.26,0.07-0.54,0.08-0.82,0.04
			l-3.12-0.46C574.79,173.68,574.53,173.59,574.3,173.45z M578.36,173.36c0.17,0.02,0.33,0.02,0.48-0.03
			c0.16-0.04,0.3-0.11,0.42-0.2c0.12-0.09,0.23-0.21,0.31-0.34c0.09-0.14,0.14-0.29,0.16-0.46l0.08-0.56
			c0.03-0.17,0.02-0.33-0.03-0.48c-0.04-0.16-0.11-0.3-0.2-0.42c-0.09-0.12-0.21-0.23-0.34-0.31c-0.14-0.08-0.29-0.14-0.46-0.16
			l-3.22-0.47c-0.17-0.02-0.33-0.02-0.48,0.03c-0.16,0.04-0.3,0.11-0.42,0.2c-0.13,0.09-0.23,0.21-0.31,0.34
			c-0.08,0.14-0.14,0.29-0.16,0.46l-0.08,0.56c-0.02,0.17-0.02,0.33,0.03,0.48c0.04,0.16,0.11,0.3,0.2,0.42
			c0.09,0.12,0.21,0.23,0.34,0.31c0.14,0.08,0.29,0.14,0.46,0.16L578.36,173.36z"/>
		<path class="st4" d="M572.32,179.6c-0.2-0.19-0.36-0.4-0.47-0.64c-0.11-0.24-0.18-0.49-0.19-0.77c-0.02-0.27,0.02-0.54,0.12-0.81
			l0.19-0.53c0.1-0.27,0.24-0.5,0.42-0.7c0.19-0.2,0.4-0.36,0.64-0.47c0.24-0.11,0.49-0.18,0.77-0.19c0.27-0.02,0.54,0.02,0.81,0.12
			l2.97,1.06c0.27,0.1,0.5,0.24,0.7,0.42c0.2,0.19,0.36,0.4,0.47,0.64c0.11,0.24,0.18,0.49,0.19,0.77c0.02,0.27-0.02,0.54-0.12,0.81
			l-0.19,0.53c-0.1,0.27-0.24,0.5-0.42,0.7s-0.4,0.36-0.64,0.47c-0.24,0.11-0.49,0.18-0.77,0.19c-0.27,0.02-0.54-0.02-0.81-0.12
			l-2.97-1.07C572.75,179.92,572.52,179.78,572.32,179.6z M576.32,180.31c0.16,0.06,0.32,0.08,0.48,0.07
			c0.16-0.01,0.31-0.05,0.45-0.11c0.14-0.07,0.26-0.16,0.37-0.28c0.11-0.12,0.19-0.26,0.25-0.42l0.19-0.53
			c0.06-0.16,0.08-0.32,0.07-0.48c-0.01-0.16-0.05-0.31-0.11-0.45c-0.07-0.14-0.16-0.26-0.28-0.38c-0.12-0.11-0.26-0.19-0.42-0.25
			l-3.06-1.1c-0.16-0.06-0.32-0.08-0.48-0.07s-0.31,0.05-0.45,0.11c-0.14,0.07-0.27,0.16-0.38,0.28c-0.11,0.12-0.19,0.26-0.25,0.42
			l-0.19,0.53c-0.06,0.16-0.08,0.32-0.07,0.48c0.01,0.16,0.05,0.31,0.11,0.45c0.07,0.14,0.16,0.26,0.28,0.37
			c0.12,0.11,0.26,0.19,0.42,0.25L576.32,180.31z"/>
		<path class="st4" d="M566.6,186.91l4.25,2.87c0.14,0.09,0.29,0.16,0.45,0.19c0.16,0.03,0.31,0.03,0.46,0
			c0.15-0.03,0.3-0.09,0.43-0.17s0.25-0.2,0.35-0.34l0.23-0.34c0.1-0.14,0.16-0.29,0.19-0.45c0.03-0.16,0.03-0.31,0-0.47
			c-0.03-0.15-0.09-0.3-0.17-0.43c-0.09-0.14-0.2-0.25-0.34-0.35l-4.25-2.88l0.47-0.69l4.25,2.88c0.14,0.09,0.29,0.16,0.45,0.19
			c0.16,0.03,0.31,0.03,0.47,0c0.15-0.03,0.3-0.09,0.43-0.18c0.14-0.09,0.25-0.2,0.35-0.34l0.23-0.34c0.09-0.14,0.16-0.29,0.19-0.45
			c0.03-0.16,0.03-0.31,0-0.47c-0.03-0.15-0.09-0.29-0.17-0.43c-0.09-0.14-0.2-0.25-0.34-0.35l-4.25-2.87l0.47-0.7l5.8,3.92
			l-0.16,0.23l-0.85-0.02c0.11,0.3,0.14,0.62,0.11,0.94c-0.04,0.33-0.15,0.63-0.34,0.91l-0.04,0.06c-0.22,0.33-0.5,0.57-0.85,0.72
			c-0.34,0.15-0.69,0.21-1.06,0.17c0.08,0.16,0.15,0.33,0.18,0.51c0.04,0.18,0.05,0.36,0.04,0.54c-0.01,0.18-0.04,0.36-0.1,0.54
			c-0.06,0.18-0.14,0.35-0.25,0.51l-0.04,0.06c-0.16,0.23-0.35,0.42-0.58,0.57c-0.23,0.15-0.47,0.25-0.73,0.3
			c-0.26,0.05-0.52,0.05-0.79,0c-0.27-0.05-0.52-0.16-0.75-0.32l-4.21-2.85L566.6,186.91z"/>
	</g>
	<path class="st4" d="M542.54,137.24c16.23,0,29.38,13.16,29.38,29.38s-13.16,29.38-29.38,29.38c-16.23,0-29.38-13.16-29.38-29.38
		S526.31,137.24,542.54,137.24 M542.54,136.49c-16.62,0-30.13,13.52-30.13,30.13s13.52,30.13,30.13,30.13
		c16.62,0,30.13-13.52,30.13-30.13S559.15,136.49,542.54,136.49L542.54,136.49z"/>
	<text transform="matrix(0.7071 0.7071 -0.7071 0.7071 435.6576 94.9942)" class="st5 st11">Agency</text>
	<g>
		<path class="st4" d="M508.88,186.2l0.37-0.69c-0.29-0.05-0.56-0.15-0.81-0.32c-0.25-0.17-0.45-0.39-0.6-0.67l-0.09-0.17
			c-0.12-0.23-0.2-0.47-0.22-0.73c-0.02-0.25,0-0.5,0.07-0.73c0.07-0.24,0.19-0.45,0.34-0.65c0.16-0.2,0.35-0.36,0.58-0.48
			l0.06-0.03c0.23-0.12,0.47-0.2,0.73-0.22c0.25-0.02,0.5,0,0.73,0.07s0.45,0.18,0.65,0.34c0.2,0.16,0.36,0.35,0.48,0.58l0.78,1.46
			l0.88-0.47c0.14-0.07,0.25-0.17,0.35-0.29c0.09-0.12,0.16-0.24,0.2-0.38c0.04-0.14,0.06-0.28,0.04-0.43
			c-0.01-0.15-0.06-0.29-0.13-0.43l-0.22-0.4c-0.07-0.14-0.17-0.25-0.29-0.35c-0.12-0.09-0.24-0.16-0.38-0.2
			c-0.14-0.04-0.28-0.06-0.43-0.04c-0.15,0.01-0.29,0.06-0.43,0.13l-0.21,0.11l-0.26-0.75l0.06-0.03c0.23-0.12,0.47-0.2,0.72-0.22
			c0.25-0.02,0.5,0,0.73,0.07s0.45,0.19,0.65,0.34c0.2,0.16,0.36,0.35,0.48,0.58l0.22,0.4c0.12,0.23,0.2,0.47,0.22,0.73
			c0.02,0.25,0,0.5-0.07,0.73c-0.07,0.23-0.19,0.45-0.34,0.65c-0.16,0.2-0.35,0.36-0.58,0.48l-4.16,2.23L508.88,186.2z
			 M511.4,184.26l-0.78-1.46c-0.07-0.14-0.17-0.25-0.29-0.35c-0.12-0.09-0.25-0.16-0.39-0.2c-0.14-0.04-0.28-0.05-0.43-0.04
			c-0.15,0.01-0.29,0.06-0.43,0.13l-0.24,0.13c-0.14,0.07-0.25,0.17-0.35,0.29c-0.09,0.12-0.16,0.24-0.2,0.38
			c-0.04,0.14-0.06,0.28-0.04,0.43c0.01,0.15,0.06,0.29,0.13,0.43l0.25,0.46c0.07,0.14,0.17,0.25,0.29,0.35
			c0.12,0.09,0.24,0.16,0.38,0.2c0.14,0.04,0.28,0.06,0.43,0.04c0.15-0.01,0.29-0.06,0.43-0.13L511.4,184.26z"/>
		<path class="st4" d="M511.89,192.9c-0.23,0.06-0.47,0.07-0.7,0.03c-0.23-0.04-0.45-0.12-0.67-0.25c-0.21-0.13-0.4-0.29-0.57-0.5
			l-0.2-0.25c-0.16-0.21-0.28-0.43-0.36-0.66c-0.08-0.24-0.11-0.47-0.1-0.7c0.01-0.23,0.08-0.46,0.19-0.67s0.27-0.41,0.47-0.57
			l0.02-0.02c0.2-0.16,0.41-0.27,0.63-0.33c0.22-0.06,0.45-0.07,0.67-0.05c-0.03-0.23,0-0.46,0.09-0.69
			c0.09-0.22,0.23-0.42,0.43-0.58c0.18-0.14,0.37-0.24,0.59-0.29s0.42-0.04,0.62,0.01c0.01-0.27,0.08-0.53,0.2-0.78
			s0.3-0.47,0.53-0.65l0.38-0.31c0.21-0.16,0.43-0.28,0.67-0.35c0.24-0.07,0.49-0.09,0.73-0.06c0.24,0.03,0.48,0.1,0.7,0.22
			c0.22,0.12,0.42,0.28,0.58,0.49l0.2,0.25c0.2,0.25,0.33,0.52,0.38,0.82c0.06,0.3,0.05,0.59-0.03,0.88l0.78-0.08l0.16,0.2
			l-1.77,1.42c-0.2,0.16-0.43,0.28-0.67,0.35c-0.24,0.07-0.49,0.09-0.73,0.06c-0.24-0.03-0.48-0.1-0.7-0.22
			c-0.22-0.12-0.42-0.28-0.58-0.49l-0.71-0.88c-0.06-0.07-0.12-0.12-0.2-0.17c-0.08-0.04-0.16-0.07-0.24-0.08
			c-0.08-0.01-0.17,0-0.25,0.02c-0.09,0.03-0.16,0.07-0.23,0.12c-0.07,0.06-0.12,0.12-0.17,0.2c-0.04,0.08-0.07,0.16-0.08,0.24
			c-0.01,0.09,0,0.17,0.02,0.25c0.02,0.08,0.06,0.16,0.12,0.23l0.67,0.83c0.16,0.21,0.28,0.42,0.36,0.66
			c0.08,0.24,0.11,0.47,0.1,0.7s-0.08,0.46-0.19,0.67c-0.11,0.22-0.27,0.4-0.47,0.57l-0.02,0.02
			C512.34,192.72,512.12,192.84,511.89,192.9z M512.13,191.94c0.12-0.1,0.21-0.21,0.27-0.33c0.06-0.12,0.09-0.25,0.09-0.39
			c0-0.13-0.02-0.27-0.07-0.4c-0.05-0.14-0.12-0.27-0.22-0.39l-0.25-0.31c-0.1-0.12-0.21-0.22-0.33-0.3
			c-0.12-0.08-0.25-0.13-0.38-0.16c-0.13-0.03-0.26-0.02-0.4,0.01c-0.13,0.03-0.26,0.1-0.38,0.19l-0.08,0.06
			c-0.12,0.1-0.21,0.21-0.27,0.33c-0.06,0.12-0.09,0.25-0.09,0.38c0,0.13,0.02,0.27,0.07,0.41c0.05,0.14,0.12,0.27,0.22,0.39
			l0.25,0.31c0.1,0.12,0.21,0.22,0.33,0.3c0.12,0.08,0.25,0.13,0.38,0.16c0.13,0.02,0.26,0.02,0.4-0.01
			c0.13-0.03,0.26-0.09,0.38-0.19L512.13,191.94z M516.46,188.52c0.12-0.1,0.22-0.21,0.29-0.34c0.07-0.13,0.11-0.27,0.13-0.42
			c0.01-0.14,0-0.29-0.04-0.43c-0.04-0.14-0.11-0.28-0.21-0.4l-0.4-0.51c-0.1-0.12-0.21-0.22-0.35-0.29s-0.27-0.11-0.41-0.13
			c-0.14-0.02-0.29,0-0.43,0.04c-0.14,0.04-0.28,0.11-0.4,0.21l-0.45,0.36c-0.12,0.1-0.22,0.21-0.29,0.35
			c-0.07,0.13-0.11,0.27-0.13,0.41s0,0.29,0.04,0.43c0.04,0.15,0.11,0.28,0.21,0.4l0.4,0.51c0.1,0.12,0.21,0.22,0.34,0.29
			c0.13,0.07,0.27,0.11,0.41,0.13s0.29,0.01,0.43-0.03c0.14-0.04,0.28-0.11,0.4-0.21L516.46,188.52z"/>
		<path class="st4" d="M518.81,195.84c-0.23,0.11-0.46,0.17-0.71,0.19c-0.25,0.02-0.49-0.01-0.73-0.09
			c-0.24-0.08-0.46-0.2-0.66-0.37l-0.39-0.34c-0.2-0.17-0.35-0.37-0.46-0.6s-0.17-0.46-0.19-0.71c-0.02-0.25,0.01-0.49,0.09-0.73
			c0.08-0.24,0.2-0.46,0.37-0.66l1.92-2.22c0.17-0.2,0.37-0.35,0.6-0.46c0.23-0.11,0.46-0.18,0.71-0.19
			c0.25-0.02,0.49,0.01,0.73,0.09c0.24,0.08,0.46,0.2,0.66,0.37l0.39,0.34c0.2,0.17,0.35,0.37,0.46,0.6
			c0.11,0.23,0.18,0.46,0.19,0.71s-0.01,0.49-0.09,0.73c-0.08,0.24-0.2,0.46-0.37,0.66l-1,1.16l-2.69-2.33l-0.95,1.09
			c-0.1,0.12-0.18,0.25-0.22,0.39c-0.05,0.14-0.06,0.29-0.05,0.43s0.05,0.28,0.11,0.42c0.06,0.13,0.16,0.25,0.27,0.36l0.39,0.34
			c0.12,0.1,0.25,0.18,0.39,0.22c0.14,0.05,0.29,0.06,0.43,0.05c0.14-0.01,0.28-0.05,0.42-0.11c0.14-0.07,0.25-0.16,0.36-0.28
			l0.28-0.33l0.51,0.61l-0.17,0.2C519.23,195.57,519.04,195.73,518.81,195.84z M520.77,192.61c0.1-0.12,0.18-0.25,0.22-0.39
			c0.04-0.14,0.06-0.29,0.05-0.43s-0.05-0.28-0.11-0.42s-0.16-0.25-0.27-0.36l-0.39-0.34c-0.12-0.1-0.25-0.18-0.39-0.22
			c-0.14-0.04-0.29-0.06-0.43-0.05c-0.14,0.01-0.28,0.05-0.42,0.11s-0.25,0.16-0.36,0.28l-0.63,0.73l2.1,1.82L520.77,192.61z"/>
		<path class="st4" d="M523.41,200.04l2.42-4.1c0.08-0.13,0.13-0.28,0.15-0.42c0.02-0.15,0.01-0.29-0.03-0.43
			c-0.04-0.14-0.1-0.27-0.19-0.39c-0.09-0.12-0.2-0.22-0.34-0.3l-0.45-0.26c-0.13-0.08-0.28-0.13-0.43-0.15
			c-0.15-0.02-0.29-0.01-0.43,0.03s-0.27,0.1-0.39,0.19c-0.12,0.09-0.22,0.2-0.3,0.33l-2.42,4.1l-0.67-0.4l3.3-5.6l0.22,0.13
			l0.03,0.78c0.28-0.12,0.57-0.17,0.87-0.16c0.3,0.01,0.59,0.1,0.87,0.26l0.17,0.1c0.23,0.13,0.41,0.3,0.56,0.51
			c0.15,0.2,0.26,0.42,0.32,0.66c0.06,0.24,0.08,0.48,0.04,0.73c-0.03,0.25-0.12,0.49-0.25,0.72l-2.39,4.06L523.41,200.04z"/>
		<path class="st4" d="M530.73,202c-0.17,0.19-0.37,0.33-0.59,0.43c-0.22,0.1-0.46,0.16-0.71,0.18s-0.5-0.02-0.75-0.11l-0.49-0.18
			c-0.25-0.09-0.46-0.22-0.65-0.39c-0.19-0.17-0.33-0.37-0.43-0.59s-0.16-0.46-0.18-0.71c-0.01-0.25,0.02-0.5,0.11-0.75l1-2.76
			c0.09-0.25,0.22-0.46,0.39-0.65c0.17-0.19,0.37-0.33,0.59-0.43c0.22-0.1,0.46-0.16,0.71-0.18c0.25-0.01,0.5,0.02,0.75,0.11
			l0.49,0.18c0.25,0.09,0.46,0.22,0.65,0.39c0.18,0.17,0.33,0.37,0.43,0.59c0.1,0.22,0.16,0.46,0.18,0.71
			c0.01,0.25-0.02,0.5-0.11,0.75l-0.09,0.25l-0.78-0.15l0.15-0.41c0.05-0.15,0.08-0.29,0.07-0.44c-0.01-0.15-0.04-0.29-0.1-0.42
			c-0.06-0.13-0.15-0.25-0.25-0.35c-0.11-0.1-0.24-0.18-0.38-0.24l-0.49-0.18c-0.15-0.05-0.3-0.08-0.45-0.07
			c-0.15,0.01-0.29,0.04-0.42,0.1c-0.13,0.06-0.25,0.15-0.35,0.25c-0.1,0.11-0.18,0.24-0.23,0.38l-1.03,2.84
			c-0.05,0.15-0.08,0.3-0.07,0.44c0.01,0.15,0.04,0.29,0.1,0.42c0.06,0.13,0.15,0.25,0.25,0.35s0.24,0.18,0.38,0.23l0.49,0.18
			c0.15,0.05,0.3,0.08,0.44,0.07c0.15-0.01,0.29-0.04,0.42-0.1c0.13-0.06,0.25-0.15,0.35-0.25c0.1-0.11,0.18-0.24,0.23-0.38
			l0.15-0.41l0.69,0.39l-0.09,0.25C531.04,201.6,530.91,201.82,530.73,202z"/>
		<path class="st4" d="M533.57,206.41l-0.74-0.13l1.69-2.91l-1.03-6.22l0.77,0.14l0.81,5.15l-0.03,0.33l0.08-0.33l2.53-4.55
			l0.77,0.14L533.57,206.41z"/>
	</g>
	<g>
		<path class="st1" d="M728.5,242.14c23.25,0,42.09,18.84,42.09,42.09c0,23.25-18.84,42.09-42.09,42.09
			c-23.25,0-42.09-18.84-42.09-42.09C686.41,260.98,705.25,242.14,728.5,242.14 M728.5,241.39c-23.62,0-42.84,19.22-42.84,42.84
			c0,23.62,19.22,42.84,42.84,42.84s42.84-19.22,42.84-42.84C771.34,260.61,752.12,241.39,728.5,241.39L728.5,241.39z"/>
	</g>
	<path id="SVGID_x5F_4_x5F_" class="st6" d="M757.77,295.29c-6.11,16.17-24.17,24.32-40.33,18.21
		c-16.17-6.11-24.32-24.17-18.21-40.33c6.11-16.17,24.17-24.32,40.33-18.21S763.88,279.12,757.77,295.29z"/>
	<text>	<textPath  xlink:href="#SVGID_x5F_4_x5F_" startOffset="73.341%">
<tspan  class="st1 st5" style="font-size:14px; letter-spacing:25;">the wabi-sabi room</tspan>	</textPath>
</text>
	<g>
		<path class="st1" d="M728.5,254.84c16.23,0,29.38,13.16,29.38,29.38c0,16.23-13.16,29.38-29.38,29.38
			c-16.23,0-29.38-13.16-29.38-29.38C699.11,268,712.27,254.84,728.5,254.84 M728.5,254.09c-16.62,0-30.13,13.52-30.13,30.13
			c0,16.62,13.52,30.13,30.13,30.13c16.62,0,30.13-13.52,30.13-30.13C758.63,267.61,745.11,254.09,728.5,254.09L728.5,254.09z"/>
	</g>
	<path id="SVGID_x5F_5_x5F_" class="st6" d="M689.46,284.76c0.29,20.95,17.51,37.69,38.46,37.4c20.95-0.29,37.69-17.51,37.4-38.46
		s-17.51-37.69-38.46-37.4C705.91,246.59,689.17,263.81,689.46,284.76z"/>
	<text>	<textPath  xlink:href="#SVGID_x5F_5_x5F_" startOffset="141.3737%">
<tspan  class="st1 st5" style="font-size:13px;">agency</tspan>	</textPath>
</text>
	<g>
		<path class="st1" d="M708.63,124.54c23.25,0,42.09,18.84,42.09,42.09s-18.84,42.09-42.09,42.09c-23.25,0-42.09-18.84-42.09-42.09
			S685.38,124.54,708.63,124.54 M708.63,123.54c-23.76,0-43.09,19.33-43.09,43.09s19.33,43.09,43.09,43.09s43.09-19.33,43.09-43.09
			S732.39,123.54,708.63,123.54L708.63,123.54z"/>
	</g>
	<path id="SVGID_x5F_6_x5F_" class="st6" d="M737.9,177.69c-6.11,16.17-24.17,24.32-40.33,18.21
		c-16.17-6.11-24.32-24.17-18.21-40.33c6.11-16.17,24.17-24.32,40.33-18.21C735.86,143.47,744.01,161.52,737.9,177.69z"/>
	<text>	<textPath  xlink:href="#SVGID_x5F_6_x5F_" startOffset="73.341%">
<tspan  class="st1 st5" style="font-size:13px; letter-spacing:25;">the wabi-sabi room</tspan>	</textPath>
</text>
	<g>
		<path class="st1" d="M708.63,137.24c16.23,0,29.38,13.16,29.38,29.38s-13.16,29.38-29.38,29.38c-16.23,0-29.38-13.16-29.38-29.38
			S692.4,137.24,708.63,137.24 M708.63,136.24c-16.75,0-30.38,13.63-30.38,30.38s13.63,30.38,30.38,30.38s30.38-13.63,30.38-30.38
			S725.38,136.24,708.63,136.24L708.63,136.24z"/>
	</g>
	<path id="SVGID_x5F_7_x5F_" class="st6" d="M669.59,167.16c0.29,20.95,17.51,37.69,38.46,37.4c20.95-0.29,37.69-17.51,37.4-38.46
		s-17.51-37.69-38.46-37.4C686.05,128.99,669.3,146.21,669.59,167.16z"/>
	<text>	<textPath  xlink:href="#SVGID_x5F_7_x5F_" startOffset="141.3737%">
<tspan  class="st1 st5" style="font-size:13.061px;">agency</tspan>	</textPath>
</text>
	<path class="st1" d="M811.72,99.66c-5.38,6.81-13.71,11.19-23.07,11.19c-16.23,0-29.38-13.16-29.38-29.38
		c0-2.79,0.4-5.49,1.13-8.05l-11.47-5.86c-1.53,4.36-2.37,9.04-2.37,13.92c0,23.25,18.84,42.09,42.09,42.09
		c14.3,0,26.92-7.14,34.53-18.03L811.72,99.66z"/>
	<circle class="st12" cx="788.66" cy="81.47" r="42.09"/>
	<path id="SVGID_x5F_8_x5F_" class="st6" d="M817.93,92.53c-6.11,16.17-24.17,24.32-40.33,18.21
		c-16.17-6.11-24.32-24.17-18.21-40.33c6.11-16.17,24.17-24.32,40.33-18.21C815.89,58.31,824.04,76.36,817.93,92.53z"/>
	<text>	<textPath  xlink:href="#SVGID_x5F_8_x5F_" startOffset="73.341%">
<tspan  class="st1 st5" style="font-size:13.061px;">the wabi-sabi room</tspan>	</textPath>
</text>
	<circle class="st12" cx="788.66" cy="81.47" r="29.38"/>
	<g>
		<path id="SVGID_x5F_9_x5F_" class="st6" d="M751.71,90.04c4.73,20.41,25.11,33.11,45.52,28.38c20.41-4.73,33.11-25.11,28.38-45.52
			s-25.11-33.11-45.52-28.38S746.98,69.63,751.71,90.04z"/>
		<text>		<textPath  xlink:href="#SVGID_x5F_9_x5F_" startOffset="141.3737%">
<tspan  class="st7 st5" style="font-size:13.061px;">agency</tspan>		</textPath>
</text>
	</g>
	<line class="st13" x1="746.57" y1="66.34" x2="825.13" y2="106.52"/>
	<rect x="496.29" y="242.14" class="st4" width="38.22" height="28.64"/>
	<rect x="521.86" y="242.14" class="st14" width="38.22" height="28.64"/>
	<rect x="554.21" y="242.14" class="st15" width="38.22" height="28.64"/>
</g>
<g id="Layer_2">
	<g>
		<path class="st4" d="M563.76,138.03c-0.24-0.26-1.1-0.83-1.41-0.99c-0.32-0.16-0.22-0.41-0.14-0.54c0.07-0.13,0,0,0,0
			c0.07-0.13,0.32-0.31,0.61-0.12c0.29,0.19,1.16,0.75,1.42,0.99c0.26,0.25,0.21,0.45,0.13,0.58c-0.08,0.14,0,0,0,0
			C564.28,138.09,564,138.29,563.76,138.03z"/>
	</g>
</g>
</svg>
