<?xml version="1.0" encoding="utf-8"?>
<!-- Generator: Adobe Illustrator 24.2.1, SVG Export Plug-In . SVG Version: 6.00 Build 0)  -->
<svg version="1.1" id="Layer_1" xmlns="http://www.w3.org/2000/svg" xmlns:xlink="http://www.w3.org/1999/xlink" x="0px" y="0px"
	 viewBox="0 0 1200 360" style="enable-background:new 0 0 1200 360;" xml:space="preserve">
<style type="text/css">
	.st0{fill:#DDF2EC;}
	.st1{fill:#AC5656;}
	.st2{font-family:'MyriadPro-Regular';}
	.st3{font-size:12px;}
	.st4{fill:#FFCB00;}
	.st5{font-family:'Abel-Regular';}
	.st6{fill:none;}
	.st7{font-family:'ArialMT';}
	.st8{fill:#FFFFFF;}
	.st9{font-size:5.2054px;}
	.st10{fill:#AC5656;stroke:#000000;stroke-miterlimit:10;}
	.st11{font-size:8.86px;}
	.st12{fill:#FFFFFF;stroke:#231F20;stroke-miterlimit:10;}
	.st13{font-size:15.463px;}
	.st14{font-size:14px;}
	.st15{letter-spacing:24;}
	.st16{font-size:13px;}
	.st17{fill:none;stroke:#AC5656;stroke-width:0.5;stroke-miterlimit:10;}
	.st18{font-size:13.061px;}
	.st19{fill:none;stroke:#AC5656;stroke-linecap:round;stroke-miterlimit:10;}
	.st20{fill:#FF0034;}
	.st21{fill:#0043FF;}
</style>
<rect x="469.6" y="260.1" class="st0" width="158" height="27.9"/>
<circle class="st1" cx="460.6" cy="71.9" r="12.9"/>
<text transform="matrix(1 0 0 1 228.9863 64.769)" class="st2 st3">Dark roast tarot</text>
<text transform="matrix(1 0 0 1 372.5317 174.2039)" class="st4 st5 st3">the wabi-sabi room</text>
<path id="SVGID_x5F_1_x5F_" class="st6" d="M469.9,74.5c-1.5,5.1-6.8,8.1-11.9,6.6s-8-6.8-6.6-11.9s6.8-8,11.9-6.6
	C468.4,64.1,471.3,69.4,469.9,74.5z"/>
<text transform="matrix(0.9399 0.3415 -0.3415 0.9399 462.3433 62.2556)" class="st7 st3"> </text>
<text transform="matrix(0.8158 0.5784 -0.5784 0.8158 465.444 63.4907)" class="st8 st5 st9">t</text>
<text transform="matrix(0.6713 0.7412 -0.7412 0.6713 466.9452 64.52)" class="st8 st5 st9">h</text>
<text transform="matrix(0.4717 0.8818 -0.8818 0.4717 468.5378 66.2811)" class="st8 st5 st9">e</text>
<text transform="matrix(0.3021 0.9533 -0.9533 0.3021 469.6051 68.3912)" class="st8 st5 st9"> </text>
<text transform="matrix(6.572495e-02 0.9978 -0.9978 6.572495e-02 470.1013 69.5186)" class="st8 st5 st9">w</text>
<text transform="matrix(-0.2335 0.9724 -0.9724 -0.2335 470.2433 72.9526)" class="st8 st5 st9">a</text>
<text class="st7 st3"> </text>
<path id="SVGID_x5F_2_x5F_" class="st6" d="M473.5,56.5c0,8.5-6.9,15.4-15.4,15.4s-15.4-6.9-15.4-15.4s6.9-15.4,15.4-15.4
	S473.5,48,473.5,56.5z"/>
<text transform="matrix(1 4.200406e-03 -4.200406e-03 1 456.5888 41.1331)" class="st7 st3"> </text>
<text transform="matrix(0.9758 0.2188 -0.2188 0.9758 459.936 41.1472)" class="st7 st3"> </text>
<text class="st7 st3"> </text>
<circle class="st8" cx="460.6" cy="71.9" r="9"/>
<circle class="st10" cx="586.6" cy="71" r="22"/>
<path id="SVGID_x5F_3_x5F_" class="st6" d="M602.9,71c0,9-7.3,16.4-16.4,16.4S570.2,80,570.2,71s7.3-16.4,16.4-16.4
	S602.9,62,602.9,71z"/>
<text transform="matrix(1 -2.358207e-03 2.358207e-03 1 584.8735 54.624)" class="st7 st3"> </text>
<text transform="matrix(0.9816 0.1912 -0.1912 0.9816 588.2167 54.6282)" class="st8 st5 st11">t</text>
<text transform="matrix(0.9168 0.3994 -0.3994 0.9168 591.2645 55.1713)" class="st8 st5 st11">h</text>
<text transform="matrix(0.7918 0.6108 -0.6108 0.7918 594.9702 56.7889)" class="st8 st5 st11">e</text>
<text transform="matrix(0.6665 0.7455 -0.7455 0.6665 598.0999 59.3201)" class="st8 st5 st11"> </text>
<text transform="matrix(0.4703 0.8825 -0.8825 0.4703 599.6557 60.7243)" class="st8 st5 st11">w</text>
<text transform="matrix(0.1855 0.9827 -0.9827 0.1855 602.2827 65.9512)" class="st8 st5 st11">a</text>
<text class="st7 st3"> </text>
<circle class="st12" cx="586.6" cy="71" r="15.4"/>
<text transform="matrix(0.7071 0.7071 -0.7071 0.7071 446.05 70.5705)" class="st5 st11">Agency</text>
<path class="st4" d="M542.5,124.5c23.2,0,42.1,18.8,42.1,42.1s-18.8,42.1-42.1,42.1s-42.1-18.8-42.1-42.1S519.3,124.5,542.5,124.5
	 M542.5,123.8c-23.6,0-42.8,19.2-42.8,42.8s19.2,42.8,42.8,42.8s42.8-19.2,42.8-42.8S566.2,123.8,542.5,123.8L542.5,123.8z"/>
<g>
	<path class="st4" d="M520.4,144.5c-0.2,0.2-0.4,0.3-0.6,0.4c-0.2,0.1-0.5,0.1-0.7,0.2c-0.2,0-0.5,0-0.7-0.1
		c-0.2-0.1-0.4-0.2-0.6-0.4l-3.2-3l-0.9,0.9l-0.6-0.6l0.9-0.9l-1.2-1.1l0.5-0.7l1.3,1.2l1.2-1.3l0.6,0.6l-1.2,1.3l3.2,3
		c0.1,0.1,0.2,0.2,0.3,0.2c0.1,0,0.2,0.1,0.4,0.1s0.2,0,0.4-0.1c0.1-0.1,0.2-0.1,0.3-0.2l0.5-0.6l0.6,0.6L520.4,144.5z"/>
	<path class="st4" d="M525.1,140.6l-3-4.1c-0.1-0.1-0.2-0.2-0.4-0.3c-0.1-0.1-0.3-0.1-0.4-0.2c-0.2,0-0.3,0-0.5,0
		c-0.2,0-0.3,0.1-0.4,0.2l-0.5,0.3c-0.1,0.1-0.2,0.2-0.3,0.4c-0.1,0.1-0.1,0.3-0.2,0.4c0,0.1,0,0.3,0,0.5c0,0.2,0.1,0.3,0.2,0.4
		l3,4.1l-0.7,0.5l-5.8-7.9l0.7-0.5l2,2.7c0-0.3,0.1-0.6,0.2-0.8s0.3-0.5,0.6-0.7l0.2-0.1c0.2-0.2,0.5-0.3,0.7-0.4s0.5-0.1,0.8,0
		c0.3,0,0.5,0.1,0.8,0.3c0.2,0.1,0.4,0.3,0.6,0.6l3,4.1L525.1,140.6z"/>
	<path class="st4" d="M530.7,136.4c0,0.3,0,0.5-0.1,0.8c-0.1,0.2-0.2,0.5-0.4,0.7c-0.2,0.2-0.4,0.4-0.7,0.5l-0.5,0.2
		c-0.3,0.1-0.5,0.2-0.8,0.2c-0.3,0-0.5,0-0.8-0.1s-0.5-0.2-0.7-0.4c-0.2-0.2-0.4-0.4-0.5-0.6l-1.3-2.9c-0.1-0.3-0.2-0.5-0.2-0.8
		c0-0.3,0-0.5,0.1-0.8c0.1-0.2,0.2-0.5,0.4-0.7c0.2-0.2,0.4-0.4,0.7-0.5l0.5-0.2c0.3-0.1,0.5-0.2,0.8-0.2c0.3,0,0.5,0,0.8,0.1
		s0.5,0.2,0.7,0.4c0.2,0.2,0.4,0.4,0.5,0.7l0.7,1.5l-3.5,1.6l0.7,1.4c0.1,0.1,0.2,0.3,0.3,0.4s0.2,0.2,0.4,0.2s0.3,0.1,0.5,0.1
		c0.2,0,0.3,0,0.5-0.1l0.5-0.2c0.2-0.1,0.3-0.2,0.4-0.3s0.2-0.2,0.2-0.4s0.1-0.3,0.1-0.5c0-0.2,0-0.3-0.1-0.5l-0.2-0.4l0.8-0.2
		l0.1,0.2C530.6,135.8,530.7,136.1,530.7,136.4z M528.4,133c-0.1-0.1-0.2-0.3-0.3-0.4s-0.2-0.2-0.4-0.2s-0.3-0.1-0.5-0.1
		c-0.2,0-0.3,0-0.5,0.1l-0.5,0.2c-0.2,0.1-0.3,0.2-0.4,0.3s-0.2,0.2-0.2,0.4s-0.1,0.3-0.1,0.5s0,0.3,0.1,0.5l0.4,0.9l2.7-1.3
		L528.4,133z"/>
	<path class="st4" d="M541.8,135.3l-0.5,0l-2.1-5.1l-0.1-0.4l0,0.4l-1.1,5.4l-0.5,0l-3-6.8l0.8-0.1l2.2,5.1l0.1,0.4l0-0.4l1.1-5.4
		l0.5-0.1l2.1,5.1l0.1,0.4l0-0.4l1.2-5.4l0.8-0.1L541.8,135.3z"/>
	<path class="st4" d="M549.2,136l-0.3-0.8c-0.2,0.2-0.5,0.4-0.8,0.5s-0.6,0.1-1,0.1l-0.2,0c-0.3,0-0.5-0.1-0.8-0.3
		c-0.2-0.1-0.4-0.3-0.6-0.5c-0.2-0.2-0.3-0.4-0.3-0.7c-0.1-0.3-0.1-0.5,0-0.8l0-0.1c0-0.3,0.1-0.5,0.3-0.8c0.1-0.2,0.3-0.4,0.5-0.6
		c0.2-0.2,0.5-0.3,0.7-0.3c0.3-0.1,0.5-0.1,0.8,0l1.8,0.3l0.2-1.1c0-0.2,0-0.3,0-0.5c0-0.2-0.1-0.3-0.2-0.4s-0.2-0.2-0.3-0.3
		c-0.1-0.1-0.3-0.1-0.5-0.2l-0.5-0.1c-0.2,0-0.3,0-0.5,0c-0.2,0-0.3,0.1-0.4,0.2s-0.2,0.2-0.3,0.3c-0.1,0.1-0.1,0.3-0.2,0.4l0,0.2
		l-0.8-0.3l0-0.1c0-0.3,0.1-0.5,0.3-0.8c0.1-0.2,0.3-0.4,0.5-0.6c0.2-0.2,0.5-0.3,0.7-0.3c0.3-0.1,0.5-0.1,0.8,0l0.5,0.1
		c0.3,0,0.5,0.1,0.8,0.3c0.2,0.1,0.4,0.3,0.6,0.5c0.2,0.2,0.3,0.4,0.3,0.7c0.1,0.3,0.1,0.5,0,0.8l-0.8,5L549.2,136z M549.2,132.6
		l-1.8-0.3c-0.2,0-0.3,0-0.5,0c-0.2,0-0.3,0.1-0.4,0.2s-0.2,0.2-0.3,0.4c-0.1,0.1-0.1,0.3-0.2,0.5l0,0.3c0,0.2,0,0.3,0,0.5
		s0.1,0.3,0.2,0.4s0.2,0.2,0.3,0.3c0.1,0.1,0.3,0.1,0.5,0.2l0.5,0.1c0.2,0,0.3,0,0.5,0c0.2,0,0.3-0.1,0.4-0.2s0.2-0.2,0.3-0.3
		c0.1-0.1,0.1-0.3,0.2-0.5L549.2,132.6z"/>
	<path class="st4" d="M555.7,136.9c-0.2,0.2-0.4,0.4-0.6,0.5s-0.5,0.2-0.8,0.2c-0.3,0-0.5,0-0.8-0.1l-0.5-0.2
		c-0.3-0.1-0.5-0.2-0.7-0.4c-0.2-0.2-0.4-0.4-0.5-0.6s-0.2-0.5-0.2-0.8c0-0.3,0-0.5,0.1-0.8l2.7-7.4l0.8,0.3l-1.2,3.2
		c0.3-0.1,0.5-0.2,0.8-0.3s0.6,0,0.9,0.1l0.2,0.1c0.3,0.1,0.5,0.2,0.7,0.4c0.2,0.2,0.4,0.4,0.5,0.6s0.2,0.5,0.2,0.8
		c0,0.3,0,0.5-0.1,0.8l-1.1,3C556,136.5,555.8,136.7,555.7,136.9z M556.4,132.9c0.1-0.2,0.1-0.3,0.1-0.5c0-0.2,0-0.3-0.1-0.4
		c-0.1-0.1-0.2-0.3-0.3-0.4c-0.1-0.1-0.3-0.2-0.4-0.2l-0.5-0.2c-0.2-0.1-0.3-0.1-0.5-0.1s-0.3,0.1-0.5,0.1c-0.1,0.1-0.3,0.2-0.4,0.3
		c-0.1,0.1-0.2,0.3-0.2,0.4l-1.1,3.1c-0.1,0.2-0.1,0.3-0.1,0.5c0,0.2,0,0.3,0.1,0.4c0.1,0.1,0.2,0.3,0.3,0.4
		c0.1,0.1,0.3,0.2,0.4,0.2l0.5,0.2c0.2,0.1,0.3,0.1,0.5,0.1s0.3-0.1,0.5-0.1c0.1-0.1,0.3-0.2,0.4-0.3s0.2-0.3,0.2-0.4L556.4,132.9z"
		/>
	<path class="st4" d="M557.1,138.9l3.3-6.1l0.7,0.4l-3.3,6.1L557.1,138.9z M561.2,131.3l0.5-1l0.9,0.5l-0.5,1L561.2,131.3z"/>
	<path class="st4" d="M567.5,144.8c-0.2,0.2-0.4,0.3-0.7,0.4s-0.5,0.1-0.8,0.1c-0.3,0-0.5-0.1-0.8-0.2s-0.5-0.3-0.7-0.5l-0.4-0.4
		c-0.2-0.2-0.4-0.4-0.5-0.7c-0.1-0.3-0.2-0.5-0.2-0.8c0-0.3,0-0.5,0.1-0.8s0.2-0.5,0.4-0.7l0.2-0.2l0.7,0.5l-0.3,0.3
		c-0.1,0.1-0.2,0.3-0.3,0.4c0,0.2-0.1,0.3-0.1,0.5s0,0.3,0.1,0.5s0.2,0.3,0.3,0.4l0.4,0.4c0.1,0.1,0.2,0.2,0.4,0.3
		c0.2,0.1,0.3,0.1,0.5,0.1c0.2,0,0.3,0,0.4,0c0.1,0,0.3-0.1,0.4-0.2c0.2-0.2,0.3-0.4,0.3-0.6s0-0.4,0-0.6c0-0.2-0.1-0.4-0.2-0.6
		c-0.1-0.2-0.2-0.4-0.3-0.6s-0.2-0.4-0.3-0.7c-0.1-0.2-0.2-0.5-0.2-0.7s0-0.5,0.1-0.7c0.1-0.2,0.2-0.5,0.5-0.7
		c0.2-0.2,0.4-0.4,0.7-0.4s0.5-0.1,0.7-0.1c0.2,0,0.5,0.1,0.7,0.2c0.2,0.1,0.5,0.3,0.7,0.5l0.3,0.4c0.2,0.2,0.3,0.4,0.5,0.7
		c0.1,0.2,0.2,0.5,0.2,0.8c0,0.3,0,0.5-0.2,0.8c-0.1,0.2-0.2,0.5-0.5,0.7l0,0l-0.7-0.5l0.2-0.1c0.1-0.1,0.2-0.2,0.3-0.4
		s0.1-0.3,0.1-0.5s0-0.3-0.1-0.5c-0.1-0.1-0.2-0.3-0.3-0.4l-0.3-0.4c-0.1-0.1-0.2-0.2-0.4-0.3c-0.1-0.1-0.3-0.1-0.4-0.1
		c-0.1,0-0.3,0-0.4,0.1c-0.1,0.1-0.3,0.1-0.4,0.2c-0.2,0.2-0.3,0.4-0.3,0.5c0,0.2,0,0.4,0,0.6c0,0.2,0.1,0.4,0.2,0.6
		c0.1,0.2,0.2,0.4,0.3,0.6s0.2,0.4,0.3,0.7c0.1,0.2,0.2,0.5,0.2,0.7c0,0.2,0,0.5-0.1,0.7C567.9,144.4,567.8,144.6,567.5,144.8z"/>
	<path class="st4" d="M569.7,150.9l0.3-0.8c-0.3,0-0.6-0.1-0.9-0.3c-0.3-0.1-0.5-0.4-0.7-0.7l-0.1-0.2c-0.2-0.2-0.3-0.5-0.3-0.8
		c0-0.3,0-0.5,0-0.8s0.2-0.5,0.3-0.7c0.2-0.2,0.3-0.4,0.6-0.6l0.1,0c0.2-0.2,0.5-0.3,0.8-0.3c0.3-0.1,0.5-0.1,0.8,0
		c0.3,0.1,0.5,0.1,0.7,0.3c0.2,0.1,0.4,0.3,0.6,0.6l1,1.5l0.9-0.6c0.1-0.1,0.2-0.2,0.3-0.3c0.1-0.1,0.2-0.3,0.2-0.4
		c0-0.1,0-0.3,0-0.5c0-0.2-0.1-0.3-0.2-0.4l-0.3-0.4c-0.1-0.1-0.2-0.2-0.3-0.3c-0.1-0.1-0.3-0.1-0.4-0.2c-0.2,0-0.3,0-0.5,0
		c-0.2,0-0.3,0.1-0.5,0.2l-0.2,0.1l-0.3-0.8l0.1,0c0.2-0.2,0.5-0.3,0.8-0.3c0.3-0.1,0.5-0.1,0.8,0c0.3,0.1,0.5,0.1,0.7,0.3
		c0.2,0.1,0.4,0.3,0.6,0.6l0.3,0.4c0.2,0.2,0.3,0.5,0.3,0.8c0,0.3,0,0.5,0,0.8s-0.2,0.5-0.3,0.7c-0.2,0.2-0.3,0.4-0.6,0.6l-4.2,2.8
		L569.7,150.9z M572.2,148.6l-1-1.5c-0.1-0.1-0.2-0.2-0.3-0.3c-0.1-0.1-0.3-0.1-0.4-0.2c-0.2,0-0.3,0-0.5,0s-0.3,0.1-0.5,0.2
		l-0.2,0.2c-0.1,0.1-0.2,0.2-0.3,0.3c-0.1,0.1-0.2,0.3-0.2,0.4s0,0.3,0,0.5s0.1,0.3,0.2,0.4l0.3,0.5c0.1,0.1,0.2,0.2,0.3,0.3
		c0.1,0.1,0.3,0.1,0.4,0.2c0.2,0,0.3,0,0.5,0s0.3-0.1,0.5-0.2L572.2,148.6z"/>
	<path class="st4" d="M573.3,156.3c-0.3,0-0.5-0.1-0.8-0.2c-0.2-0.1-0.5-0.2-0.7-0.4c-0.2-0.2-0.3-0.4-0.5-0.7l-0.2-0.5
		c-0.1-0.3-0.2-0.5-0.2-0.8s0.1-0.5,0.2-0.8s0.2-0.5,0.4-0.7c0.2-0.2,0.4-0.4,0.7-0.4l7.3-3l0.3,0.8l-3.1,1.3
		c0.3,0.1,0.5,0.2,0.8,0.4c0.2,0.2,0.4,0.4,0.5,0.7l0.1,0.2c0.1,0.3,0.2,0.5,0.2,0.8s-0.1,0.5-0.2,0.8s-0.2,0.5-0.4,0.7
		c-0.2,0.2-0.4,0.4-0.7,0.4l-2.9,1.2C573.9,156.2,573.6,156.3,573.3,156.3z M576.8,154.1c0.2-0.1,0.3-0.1,0.4-0.3
		c0.1-0.1,0.2-0.2,0.3-0.4s0.1-0.3,0.1-0.5c0-0.2,0-0.3-0.1-0.5l-0.2-0.5c-0.1-0.2-0.2-0.3-0.3-0.4s-0.2-0.2-0.4-0.3
		c-0.1-0.1-0.3-0.1-0.5-0.1c-0.2,0-0.3,0-0.5,0.1l-3,1.2c-0.2,0.1-0.3,0.1-0.4,0.3c-0.1,0.1-0.2,0.2-0.3,0.4s-0.1,0.3-0.1,0.5
		c0,0.2,0,0.3,0.1,0.5l0.2,0.5c0.1,0.2,0.2,0.3,0.3,0.4s0.2,0.2,0.4,0.3s0.3,0.1,0.5,0.1c0.2,0,0.3,0,0.5-0.1L576.8,154.1z"/>
	<path class="st4" d="M572.8,158.8l6.8-1.7l0.2,0.8l-6.8,1.7L572.8,158.8z M581.2,156.6l1.1-0.3l0.2,0.9l-1.1,0.3L581.2,156.6z"/>
	<path class="st4" d="M580,166.8c0-0.2,0-0.3-0.1-0.5c-0.1-0.1-0.2-0.3-0.3-0.4c-0.1-0.1-0.2-0.2-0.4-0.2s-0.3-0.1-0.5-0.1l-5,0.1
		l0-0.8l7-0.1l0,0.3l-0.7,0.5c0.3,0.2,0.5,0.4,0.6,0.7c0.2,0.3,0.2,0.6,0.2,0.9l0,0.5l-0.9,0L580,166.8z"/>
	<path class="st4" d="M574.3,173.4c-0.2-0.1-0.4-0.3-0.6-0.5c-0.2-0.2-0.3-0.4-0.3-0.7c-0.1-0.3-0.1-0.5,0-0.8l0.1-0.6
		c0-0.3,0.1-0.5,0.3-0.8c0.1-0.2,0.3-0.4,0.5-0.6s0.5-0.3,0.7-0.3c0.3-0.1,0.5-0.1,0.8,0l3.1,0.5c0.3,0,0.5,0.1,0.8,0.3
		c0.2,0.1,0.4,0.3,0.6,0.5c0.2,0.2,0.3,0.4,0.3,0.7c0.1,0.3,0.1,0.5,0,0.8l-0.1,0.6c0,0.3-0.1,0.5-0.3,0.8c-0.1,0.2-0.3,0.4-0.5,0.6
		c-0.2,0.2-0.5,0.3-0.7,0.3c-0.3,0.1-0.5,0.1-0.8,0l-3.1-0.5C574.8,173.7,574.5,173.6,574.3,173.4z M578.4,173.4c0.2,0,0.3,0,0.5,0
		c0.2,0,0.3-0.1,0.4-0.2s0.2-0.2,0.3-0.3c0.1-0.1,0.1-0.3,0.2-0.5l0.1-0.6c0-0.2,0-0.3,0-0.5c0-0.2-0.1-0.3-0.2-0.4
		s-0.2-0.2-0.3-0.3c-0.1-0.1-0.3-0.1-0.5-0.2l-3.2-0.5c-0.2,0-0.3,0-0.5,0c-0.2,0-0.3,0.1-0.4,0.2c-0.1,0.1-0.2,0.2-0.3,0.3
		c-0.1,0.1-0.1,0.3-0.2,0.5l-0.1,0.6c0,0.2,0,0.3,0,0.5c0,0.2,0.1,0.3,0.2,0.4s0.2,0.2,0.3,0.3c0.1,0.1,0.3,0.1,0.5,0.2L578.4,173.4
		z"/>
	<path class="st4" d="M572.3,179.6c-0.2-0.2-0.4-0.4-0.5-0.6s-0.2-0.5-0.2-0.8c0-0.3,0-0.5,0.1-0.8l0.2-0.5c0.1-0.3,0.2-0.5,0.4-0.7
		c0.2-0.2,0.4-0.4,0.6-0.5s0.5-0.2,0.8-0.2c0.3,0,0.5,0,0.8,0.1l3,1.1c0.3,0.1,0.5,0.2,0.7,0.4c0.2,0.2,0.4,0.4,0.5,0.6
		s0.2,0.5,0.2,0.8c0,0.3,0,0.5-0.1,0.8l-0.2,0.5c-0.1,0.3-0.2,0.5-0.4,0.7s-0.4,0.4-0.6,0.5s-0.5,0.2-0.8,0.2c-0.3,0-0.5,0-0.8-0.1
		l-3-1.1C572.8,179.9,572.5,179.8,572.3,179.6z M576.3,180.3c0.2,0.1,0.3,0.1,0.5,0.1s0.3-0.1,0.5-0.1c0.1-0.1,0.3-0.2,0.4-0.3
		s0.2-0.3,0.2-0.4l0.2-0.5c0.1-0.2,0.1-0.3,0.1-0.5c0-0.2,0-0.3-0.1-0.4c-0.1-0.1-0.2-0.3-0.3-0.4c-0.1-0.1-0.3-0.2-0.4-0.2
		l-3.1-1.1c-0.2-0.1-0.3-0.1-0.5-0.1s-0.3,0.1-0.5,0.1c-0.1,0.1-0.3,0.2-0.4,0.3s-0.2,0.3-0.2,0.4l-0.2,0.5
		c-0.1,0.2-0.1,0.3-0.1,0.5c0,0.2,0,0.3,0.1,0.4c0.1,0.1,0.2,0.3,0.3,0.4c0.1,0.1,0.3,0.2,0.4,0.2L576.3,180.3z"/>
	<path class="st4" d="M566.6,186.9l4.2,2.9c0.1,0.1,0.3,0.2,0.5,0.2c0.2,0,0.3,0,0.5,0s0.3-0.1,0.4-0.2s0.2-0.2,0.3-0.3l0.2-0.3
		c0.1-0.1,0.2-0.3,0.2-0.4s0-0.3,0-0.5c0-0.1-0.1-0.3-0.2-0.4c-0.1-0.1-0.2-0.2-0.3-0.4l-4.2-2.9l0.5-0.7l4.2,2.9
		c0.1,0.1,0.3,0.2,0.5,0.2c0.2,0,0.3,0,0.5,0c0.2,0,0.3-0.1,0.4-0.2c0.1-0.1,0.2-0.2,0.3-0.3l0.2-0.3c0.1-0.1,0.2-0.3,0.2-0.4
		s0-0.3,0-0.5c0-0.1-0.1-0.3-0.2-0.4c-0.1-0.1-0.2-0.2-0.3-0.4l-4.2-2.9l0.5-0.7l5.8,3.9l-0.2,0.2l-0.8,0c0.1,0.3,0.1,0.6,0.1,0.9
		c0,0.3-0.2,0.6-0.3,0.9l0,0.1c-0.2,0.3-0.5,0.6-0.8,0.7c-0.3,0.1-0.7,0.2-1.1,0.2c0.1,0.2,0.2,0.3,0.2,0.5c0,0.2,0,0.4,0,0.5
		s0,0.4-0.1,0.5s-0.1,0.4-0.2,0.5l0,0.1c-0.2,0.2-0.3,0.4-0.6,0.6c-0.2,0.1-0.5,0.2-0.7,0.3s-0.5,0.1-0.8,0
		c-0.3-0.1-0.5-0.2-0.8-0.3l-4.2-2.9L566.6,186.9z"/>
</g>
<path class="st4" d="M542.5,137.2c16.2,0,29.4,13.2,29.4,29.4S558.8,196,542.5,196c-16.2,0-29.4-13.2-29.4-29.4
	S526.3,137.2,542.5,137.2 M542.5,136.5c-16.6,0-30.1,13.5-30.1,30.1s13.5,30.1,30.1,30.1c16.6,0,30.1-13.5,30.1-30.1
	S559.2,136.5,542.5,136.5L542.5,136.5z"/>
<text transform="matrix(0.7071 0.7071 -0.7071 0.7071 435.6574 94.9943)" class="st5 st13">Agency</text>
<g>
	<path class="st4" d="M508.9,186.2l0.4-0.7c-0.3-0.1-0.6-0.1-0.8-0.3c-0.2-0.2-0.5-0.4-0.6-0.7l-0.1-0.2c-0.1-0.2-0.2-0.5-0.2-0.7
		c0-0.2,0-0.5,0.1-0.7c0.1-0.2,0.2-0.4,0.3-0.6c0.2-0.2,0.4-0.4,0.6-0.5l0.1,0c0.2-0.1,0.5-0.2,0.7-0.2c0.2,0,0.5,0,0.7,0.1
		s0.5,0.2,0.6,0.3c0.2,0.2,0.4,0.4,0.5,0.6l0.8,1.5l0.9-0.5c0.1-0.1,0.2-0.2,0.3-0.3c0.1-0.1,0.2-0.2,0.2-0.4c0-0.1,0.1-0.3,0-0.4
		c0-0.1-0.1-0.3-0.1-0.4l-0.2-0.4c-0.1-0.1-0.2-0.2-0.3-0.4c-0.1-0.1-0.2-0.2-0.4-0.2s-0.3-0.1-0.4,0c-0.1,0-0.3,0.1-0.4,0.1
		l-0.2,0.1l-0.3-0.8l0.1,0c0.2-0.1,0.5-0.2,0.7-0.2s0.5,0,0.7,0.1s0.5,0.2,0.7,0.3c0.2,0.2,0.4,0.4,0.5,0.6l0.2,0.4
		c0.1,0.2,0.2,0.5,0.2,0.7c0,0.2,0,0.5-0.1,0.7s-0.2,0.4-0.3,0.6c-0.2,0.2-0.3,0.4-0.6,0.5l-4.2,2.2L508.9,186.2z M511.4,184.3
		l-0.8-1.5c-0.1-0.1-0.2-0.2-0.3-0.4c-0.1-0.1-0.2-0.2-0.4-0.2s-0.3-0.1-0.4,0c-0.1,0-0.3,0.1-0.4,0.1l-0.2,0.1
		c-0.1,0.1-0.2,0.2-0.4,0.3c-0.1,0.1-0.2,0.2-0.2,0.4s-0.1,0.3,0,0.4c0,0.1,0.1,0.3,0.1,0.4l0.2,0.5c0.1,0.1,0.2,0.2,0.3,0.4
		c0.1,0.1,0.2,0.2,0.4,0.2s0.3,0.1,0.4,0c0.1,0,0.3-0.1,0.4-0.1L511.4,184.3z"/>
	<path class="st4" d="M511.9,192.9c-0.2,0.1-0.5,0.1-0.7,0c-0.2,0-0.5-0.1-0.7-0.2c-0.2-0.1-0.4-0.3-0.6-0.5l-0.2-0.2
		c-0.2-0.2-0.3-0.4-0.4-0.7c-0.1-0.2-0.1-0.5-0.1-0.7c0-0.2,0.1-0.5,0.2-0.7s0.3-0.4,0.5-0.6l0,0c0.2-0.2,0.4-0.3,0.6-0.3
		s0.5-0.1,0.7-0.1c0-0.2,0-0.5,0.1-0.7c0.1-0.2,0.2-0.4,0.4-0.6c0.2-0.1,0.4-0.2,0.6-0.3s0.4,0,0.6,0c0-0.3,0.1-0.5,0.2-0.8
		s0.3-0.5,0.5-0.6l0.4-0.3c0.2-0.2,0.4-0.3,0.7-0.4s0.5-0.1,0.7-0.1s0.5,0.1,0.7,0.2c0.2,0.1,0.4,0.3,0.6,0.5l0.2,0.2
		c0.2,0.2,0.3,0.5,0.4,0.8c0.1,0.3,0,0.6,0,0.9l0.8-0.1l0.2,0.2l-1.8,1.4c-0.2,0.2-0.4,0.3-0.7,0.4s-0.5,0.1-0.7,0.1
		s-0.5-0.1-0.7-0.2c-0.2-0.1-0.4-0.3-0.6-0.5l-0.7-0.9c-0.1-0.1-0.1-0.1-0.2-0.2c-0.1,0-0.2-0.1-0.2-0.1s-0.2,0-0.2,0
		c-0.1,0-0.2,0.1-0.2,0.1c-0.1,0.1-0.1,0.1-0.2,0.2c0,0.1-0.1,0.2-0.1,0.2c0,0.1,0,0.2,0,0.2s0.1,0.2,0.1,0.2l0.7,0.8
		c0.2,0.2,0.3,0.4,0.4,0.7c0.1,0.2,0.1,0.5,0.1,0.7s-0.1,0.5-0.2,0.7c-0.1,0.2-0.3,0.4-0.5,0.6l0,0
		C512.3,192.7,512.1,192.8,511.9,192.9z M512.1,191.9c0.1-0.1,0.2-0.2,0.3-0.3s0.1-0.2,0.1-0.4c0-0.1,0-0.3-0.1-0.4
		c0-0.1-0.1-0.3-0.2-0.4l-0.2-0.3c-0.1-0.1-0.2-0.2-0.3-0.3s-0.2-0.1-0.4-0.2s-0.3,0-0.4,0c-0.1,0-0.3,0.1-0.4,0.2l-0.1,0.1
		c-0.1,0.1-0.2,0.2-0.3,0.3s-0.1,0.2-0.1,0.4s0,0.3,0.1,0.4c0,0.1,0.1,0.3,0.2,0.4l0.2,0.3c0.1,0.1,0.2,0.2,0.3,0.3s0.2,0.1,0.4,0.2
		c0.1,0,0.3,0,0.4,0C511.8,192.2,511.9,192.1,512.1,191.9L512.1,191.9z M516.5,188.5c0.1-0.1,0.2-0.2,0.3-0.3
		c0.1-0.1,0.1-0.3,0.1-0.4c0-0.1,0-0.3,0-0.4s-0.1-0.3-0.2-0.4l-0.4-0.5c-0.1-0.1-0.2-0.2-0.3-0.3s-0.3-0.1-0.4-0.1
		c-0.1,0-0.3,0-0.4,0s-0.3,0.1-0.4,0.2l-0.5,0.4c-0.1,0.1-0.2,0.2-0.3,0.4c-0.1,0.1-0.1,0.3-0.1,0.4s0,0.3,0,0.4
		c0,0.1,0.1,0.3,0.2,0.4l0.4,0.5c0.1,0.1,0.2,0.2,0.3,0.3c0.1,0.1,0.3,0.1,0.4,0.1s0.3,0,0.4,0s0.3-0.1,0.4-0.2L516.5,188.5z"/>
	<path class="st4" d="M518.8,195.8c-0.2,0.1-0.5,0.2-0.7,0.2s-0.5,0-0.7-0.1s-0.5-0.2-0.7-0.4l-0.4-0.3c-0.2-0.2-0.3-0.4-0.5-0.6
		s-0.2-0.5-0.2-0.7s0-0.5,0.1-0.7c0.1-0.2,0.2-0.5,0.4-0.7l1.9-2.2c0.2-0.2,0.4-0.4,0.6-0.5s0.5-0.2,0.7-0.2c0.2,0,0.5,0,0.7,0.1
		s0.5,0.2,0.7,0.4l0.4,0.3c0.2,0.2,0.3,0.4,0.5,0.6c0.1,0.2,0.2,0.5,0.2,0.7s0,0.5-0.1,0.7c-0.1,0.2-0.2,0.5-0.4,0.7l-1,1.2
		l-2.7-2.3l-1,1.1c-0.1,0.1-0.2,0.2-0.2,0.4c0,0.1-0.1,0.3,0,0.4s0,0.3,0.1,0.4c0.1,0.1,0.2,0.2,0.3,0.4l0.4,0.3
		c0.1,0.1,0.2,0.2,0.4,0.2c0.1,0.1,0.3,0.1,0.4,0.1s0.3-0.1,0.4-0.1c0.1-0.1,0.2-0.2,0.4-0.3l0.3-0.3l0.5,0.6l-0.2,0.2
		C519.2,195.6,519,195.7,518.8,195.8z M520.8,192.6c0.1-0.1,0.2-0.2,0.2-0.4s0.1-0.3,0-0.4s0-0.3-0.1-0.4s-0.2-0.2-0.3-0.4l-0.4-0.3
		c-0.1-0.1-0.2-0.2-0.4-0.2c-0.1,0-0.3-0.1-0.4-0.1s-0.3,0.1-0.4,0.1s-0.2,0.2-0.4,0.3l-0.6,0.7l2.1,1.8L520.8,192.6z"/>
	<path class="st4" d="M523.4,200l2.4-4.1c0.1-0.1,0.1-0.3,0.2-0.4c0-0.1,0-0.3,0-0.4c0-0.1-0.1-0.3-0.2-0.4s-0.2-0.2-0.3-0.3
		l-0.5-0.3c-0.1-0.1-0.3-0.1-0.4-0.1c-0.2,0-0.3,0-0.4,0s-0.3,0.1-0.4,0.2s-0.2,0.2-0.3,0.3l-2.4,4.1l-0.7-0.4l3.3-5.6l0.2,0.1
		l0,0.8c0.3-0.1,0.6-0.2,0.9-0.2s0.6,0.1,0.9,0.3l0.2,0.1c0.2,0.1,0.4,0.3,0.6,0.5c0.2,0.2,0.3,0.4,0.3,0.7s0.1,0.5,0,0.7
		c0,0.2-0.1,0.5-0.2,0.7l-2.4,4.1L523.4,200z"/>
	<path class="st4" d="M530.7,202c-0.2,0.2-0.4,0.3-0.6,0.4c-0.2,0.1-0.5,0.2-0.7,0.2s-0.5,0-0.8-0.1l-0.5-0.2
		c-0.2-0.1-0.5-0.2-0.7-0.4s-0.3-0.4-0.4-0.6s-0.2-0.5-0.2-0.7c0-0.2,0-0.5,0.1-0.8l1-2.8c0.1-0.2,0.2-0.5,0.4-0.6
		c0.2-0.2,0.4-0.3,0.6-0.4c0.2-0.1,0.5-0.2,0.7-0.2c0.2,0,0.5,0,0.8,0.1l0.5,0.2c0.2,0.1,0.5,0.2,0.7,0.4c0.2,0.2,0.3,0.4,0.4,0.6
		s0.2,0.5,0.2,0.7c0,0.2,0,0.5-0.1,0.8l-0.1,0.2l-0.8-0.1l0.2-0.4c0-0.1,0.1-0.3,0.1-0.4c0-0.1,0-0.3-0.1-0.4s-0.2-0.2-0.2-0.4
		c-0.1-0.1-0.2-0.2-0.4-0.2l-0.5-0.2c-0.2-0.1-0.3-0.1-0.5-0.1s-0.3,0-0.4,0.1c-0.1,0.1-0.2,0.1-0.3,0.2c-0.1,0.1-0.2,0.2-0.2,0.4
		l-1,2.8c0,0.1-0.1,0.3-0.1,0.4c0,0.1,0,0.3,0.1,0.4s0.2,0.2,0.2,0.4s0.2,0.2,0.4,0.2l0.5,0.2c0.2,0.1,0.3,0.1,0.4,0.1
		c0.2,0,0.3,0,0.4-0.1c0.1-0.1,0.2-0.1,0.3-0.2c0.1-0.1,0.2-0.2,0.2-0.4l0.2-0.4l0.7,0.4l-0.1,0.2C531,201.6,530.9,201.8,530.7,202z
		"/>
	<path class="st4" d="M533.6,206.4l-0.7-0.1l1.7-2.9l-1-6.2l0.8,0.1l0.8,5.1l0,0.3l0.1-0.3l2.5-4.6l0.8,0.1L533.6,206.4z"/>
</g>
<g>
	<path class="st1" d="M728.5,242.1c23.2,0,42.1,18.8,42.1,42.1s-18.8,42.1-42.1,42.1s-42.1-18.8-42.1-42.1S705.2,242.1,728.5,242.1
		 M728.5,241.4c-23.6,0-42.8,19.2-42.8,42.8c0,23.6,19.2,42.8,42.8,42.8s42.8-19.2,42.8-42.8C771.3,260.6,752.1,241.4,728.5,241.4
		L728.5,241.4z"/>
</g>
<path id="SVGID_x5F_4_x5F_" class="st6" d="M757.8,295.3c-6.1,16.2-24.2,24.3-40.3,18.2c-16.2-6.1-24.3-24.2-18.2-40.3
	c6.1-16.2,24.2-24.3,40.3-18.2S763.9,279.1,757.8,295.3z"/>
<text transform="matrix(0.9519 0.3063 -0.3063 0.9519 736.4662 253.9222)" class="st7 st3"> </text>
<text transform="matrix(0.9046 0.4262 -0.4262 0.9046 739.6638 254.8999)" class="st1 st5 st14 st15">t</text>
<text transform="matrix(0.1518 0.9884 -0.9884 0.1518 758.9548 276.3672)" class="st1 st5 st14 st15">h</text>
<text class="st7 st3"> </text>
<g>
	<path class="st1" d="M728.5,254.8c16.2,0,29.4,13.2,29.4,29.4c0,16.2-13.2,29.4-29.4,29.4c-16.2,0-29.4-13.2-29.4-29.4
		C699.1,268,712.3,254.8,728.5,254.8 M728.5,254.1c-16.6,0-30.1,13.5-30.1,30.1c0,16.6,13.5,30.1,30.1,30.1
		c16.6,0,30.1-13.5,30.1-30.1S745.1,254.1,728.5,254.1L728.5,254.1z"/>
</g>
<path id="SVGID_x5F_5_x5F_" class="st6" d="M689.5,284.8c0.3,21,17.5,37.7,38.5,37.4s37.7-17.5,37.4-38.5s-17.5-37.7-38.5-37.4
	C705.9,246.6,689.2,263.8,689.5,284.8z"/>
<text class="st7 st3"> </text>
<g>
	<path class="st1" d="M708.6,124.5c23.2,0,42.1,18.8,42.1,42.1s-18.8,42.1-42.1,42.1s-42.1-18.8-42.1-42.1S685.4,124.5,708.6,124.5
		 M708.6,123.5c-23.8,0-43.1,19.3-43.1,43.1s19.3,43.1,43.1,43.1s43.1-19.3,43.1-43.1S732.4,123.5,708.6,123.5L708.6,123.5z"/>
</g>
<path id="SVGID_x5F_6_x5F_" class="st6" d="M737.9,177.7c-6.1,16.2-24.2,24.3-40.3,18.2c-16.2-6.1-24.3-24.2-18.2-40.3
	c6.1-16.2,24.2-24.3,40.3-18.2C735.9,143.5,744,161.5,737.9,177.7z"/>
<text transform="matrix(0.9519 0.3063 -0.3063 0.9519 716.5985 136.3231)" class="st7 st3"> </text>
<text transform="matrix(0.907 0.4211 -0.4211 0.907 719.7905 137.3125)" class="st1 st5 st16 st15">t</text>
<text transform="matrix(0.1698 0.9855 -0.9855 0.1698 738.9763 158.4327)" class="st1 st5 st16 st15">h</text>
<text class="st7 st3"> </text>
<g>
	<path class="st1" d="M708.6,137.2c16.2,0,29.4,13.2,29.4,29.4S724.9,196,708.6,196c-16.2,0-29.4-13.2-29.4-29.4
		S692.4,137.2,708.6,137.2 M708.6,136.2c-16.8,0-30.4,13.6-30.4,30.4s13.6,30.4,30.4,30.4s30.4-13.6,30.4-30.4
		S725.4,136.2,708.6,136.2L708.6,136.2z"/>
</g>
<path id="SVGID_x5F_7_x5F_" class="st6" d="M669.6,167.2c0.3,20.9,17.5,37.7,38.5,37.4c21-0.3,37.7-17.5,37.4-38.5
	s-17.5-37.7-38.5-37.4C686,129,669.3,146.2,669.6,167.2z"/>
<text class="st7 st3"> </text>
<path class="st1" d="M811.7,99.7c-5.4,6.8-13.7,11.2-23.1,11.2c-16.2,0-29.4-13.2-29.4-29.4c0-2.8,0.4-5.5,1.1-8.1l-11.5-5.9
	c-1.5,4.4-2.4,9-2.4,13.9c0,23.2,18.8,42.1,42.1,42.1c14.3,0,26.9-7.1,34.5-18L811.7,99.7z"/>
<circle class="st17" cx="788.7" cy="81.5" r="42.1"/>
<path id="SVGID_x5F_8_x5F_" class="st6" d="M817.9,92.5c-6.1,16.2-24.2,24.3-40.3,18.2c-16.2-6.1-24.3-24.2-18.2-40.3
	c6.1-16.2,24.2-24.3,40.3-18.2C815.9,58.3,824,76.4,817.9,92.5z"/>
<text transform="matrix(0.9519 0.3063 -0.3063 0.9519 796.6285 51.1632)" class="st7 st3"> </text>
<text transform="matrix(0.9069 0.4214 -0.4214 0.9069 799.8205 52.1517)" class="st1 st5 st18">t</text>
<text transform="matrix(0.824 0.5666 -0.5666 0.824 803.9727 54.0165)" class="st1 st5 st18">h</text>
<text transform="matrix(0.7015 0.7127 -0.7127 0.7015 808.8763 57.3902)" class="st1 st5 st18">e</text>
<text transform="matrix(0.5927 0.8054 -0.8054 0.5927 812.9608 61.6896)" class="st1 st5 st18"> </text>
<text transform="matrix(0.4348 0.9005 -0.9005 0.4348 814.97 63.9905)" class="st1 st5 st18">w</text>
<text transform="matrix(0.2169 0.9762 -0.9762 0.2169 818.5738 71.8128)" class="st1 st5 st18">a</text>
<text transform="matrix(2.849703e-02 0.9996 -0.9996 2.849703e-02 819.8629 77.6202)" class="st1 st5 st18">b</text>
<text transform="matrix(-0.113 0.9936 -0.9936 -0.113 819.9223 83.5517)" class="st1 st5 st18">i</text>
<text transform="matrix(-0.2179 0.976 -0.976 -0.2179 819.6199 86.4166)" class="st1 st5 st18">-</text>
<text class="st7 st3"> </text>
<circle class="st17" cx="788.7" cy="81.5" r="29.4"/>
<g>
	<path id="SVGID_x5F_9_x5F_" class="st6" d="M751.7,90c4.7,20.4,25.1,33.1,45.5,28.4c20.4-4.7,33.1-25.1,28.4-45.5
		s-25.1-33.1-45.5-28.4S747,69.6,751.7,90z"/>
	<text class="st7 st3"> </text>
</g>
<line class="st19" x1="746.6" y1="66.3" x2="825.1" y2="106.5"/>
<rect x="496.3" y="242.1" class="st4" width="38.2" height="28.6"/>
<rect x="521.9" y="242.1" class="st20" width="38.2" height="28.6"/>
<rect x="554.2" y="242.1" class="st21" width="38.2" height="28.6"/>
<g>
	<path class="st4" d="M563.8,138c-0.2-0.3-1.1-0.8-1.4-1c-0.3-0.2-0.2-0.4-0.1-0.5c0.1-0.1,0,0,0,0c0.1-0.1,0.3-0.3,0.6-0.1
		s1.2,0.8,1.4,1c0.3,0.2,0.2,0.4,0.1,0.6c-0.1,0.1,0,0,0,0C564.3,138.1,564,138.3,563.8,138z"/>
</g>
</svg>
