<?xml version="1.0" encoding="utf-8"?>
<!-- Generator: Adobe Illustrator 24.2.1, SVG Export Plug-In . SVG Version: 6.00 Build 0)  -->
<svg version="1.1" id="Layer_1" xmlns="http://www.w3.org/2000/svg" xmlns:xlink="http://www.w3.org/1999/xlink" x="0px" y="0px"
	 viewBox="0 0 600 600" style="enable-background:new 0 0 600 600;" xml:space="preserve">
<style type="text/css">
	.st0{fill:#FFCC04;}
</style>
<g>
	<path class="st0" d="M144.7,146.61c-1.21,1.28-2.58,2.27-4.14,2.95c-1.55,0.68-3.14,1.04-4.78,1.08c-1.63,0.04-3.25-0.23-4.83-0.79
		c-1.59-0.56-3.02-1.45-4.31-2.66l-21.9-20.62l-5.96,6.33l-4.02-3.79l5.96-6.32l-8.45-7.96l3.29-4.88l9.14,8.61l8.42-8.93l4.02,3.79
		l-8.42,8.93l22.11,20.82c0.7,0.67,1.49,1.15,2.34,1.46c0.86,0.31,1.73,0.45,2.62,0.42c0.89-0.03,1.76-0.23,2.61-0.6
		c0.85-0.37,1.61-0.91,2.27-1.62l3.63-3.86l4.03,3.79L144.7,146.61z"/>
	<path class="st0" d="M177.02,119.89l-21.09-28.45c-0.69-0.94-1.52-1.69-2.49-2.25c-0.95-0.55-1.97-0.91-3.03-1.07
		c-1.06-0.16-2.13-0.11-3.22,0.15c-1.08,0.26-2.09,0.73-3.03,1.42L141.06,92c-0.93,0.69-1.69,1.52-2.25,2.48
		c-0.56,0.96-0.91,1.98-1.07,3.04c-0.16,1.05-0.11,2.12,0.14,3.21c0.26,1.08,0.74,2.09,1.42,3.03l21.09,28.45l-4.67,3.46
		l-40.32-54.4l4.66-3.46l13.95,18.81c0.12-2.05,0.66-3.98,1.63-5.79c0.97-1.81,2.32-3.37,4.07-4.66l1.18-0.87
		c1.56-1.17,3.26-1.96,5.1-2.4c1.83-0.44,3.65-0.52,5.45-0.25c1.81,0.27,3.52,0.88,5.15,1.82c1.62,0.95,3.01,2.21,4.18,3.78
		l20.89,28.19L177.02,119.89z"/>
	<path class="st0" d="M215.88,90.61c0.07,1.88-0.2,3.68-0.83,5.39c-0.62,1.72-1.55,3.28-2.8,4.69c-1.26,1.41-2.77,2.53-4.53,3.36
		l-3.5,1.65c-1.76,0.83-3.59,1.28-5.47,1.35c-1.88,0.07-3.68-0.21-5.4-0.83c-1.71-0.61-3.27-1.55-4.68-2.8
		c-1.41-1.25-2.52-2.76-3.35-4.52l-9.29-19.74c-0.83-1.76-1.28-3.59-1.35-5.47c-0.06-1.88,0.21-3.68,0.82-5.4
		c0.62-1.72,1.55-3.28,2.81-4.69c1.25-1.4,2.76-2.52,4.53-3.35l3.5-1.65c1.77-0.83,3.59-1.27,5.48-1.34
		c1.88-0.07,3.67,0.21,5.39,0.82c1.72,0.62,3.29,1.56,4.68,2.81c1.41,1.25,2.53,2.76,3.36,4.53l4.84,10.3l-23.97,11.27l4.58,9.74
		c0.5,1.06,1.16,1.95,2,2.69c0.83,0.74,1.75,1.28,2.76,1.65c1,0.36,2.07,0.52,3.18,0.49c1.11-0.03,2.19-0.3,3.24-0.8l3.51-1.65
		c1.05-0.5,1.94-1.16,2.68-1.99c0.73-0.84,1.29-1.76,1.65-2.76c0.36-1,0.53-2.06,0.49-3.18c-0.03-1.11-0.3-2.2-0.8-3.25L208.05,85
		l5.66-1.61l0.82,1.75C215.36,86.9,215.81,88.73,215.88,90.61z M199.85,67.57c-0.5-1.06-1.16-1.95-1.99-2.68
		c-0.83-0.74-1.75-1.29-2.76-1.65c-1.01-0.36-2.07-0.53-3.18-0.49c-1.11,0.04-2.19,0.3-3.25,0.8l-3.5,1.65
		c-1.05,0.5-1.95,1.16-2.68,2c-0.74,0.83-1.29,1.75-1.65,2.76c-0.36,1-0.53,2.06-0.49,3.17c0.04,1.11,0.31,2.2,0.8,3.25l3.05,6.49
		l18.71-8.81L199.85,67.57z"/>
	<path class="st0" d="M292.3,82.96l-3.15,0.29l-14.67-35.24l-0.42-2.47l0.05,2.51l-7.9,37.35l-3.2,0.3l-20.57-46.64l5.88-0.54
		l14.87,35.32l0.42,2.47l-0.05-2.51l7.89-37.44l3.48-0.33l14.63,35.34l0.42,2.48l-0.05-2.51l8.07-37.46l5.87-0.55L292.3,82.96z"/>
	<path class="st0" d="M343.76,87.93l-2.45-5.24c-1.57,1.52-3.41,2.64-5.53,3.39c-2.11,0.75-4.34,0.95-6.67,0.6l-1.45-0.22
		c-1.93-0.3-3.69-0.94-5.3-1.93c-1.61-0.99-2.94-2.22-4.03-3.69c-1.08-1.47-1.86-3.11-2.33-4.93c-0.48-1.82-0.57-3.7-0.27-5.63
		l0.07-0.47c0.29-1.93,0.93-3.7,1.92-5.3c0.98-1.6,2.22-2.94,3.69-4.02c1.47-1.09,3.12-1.86,4.93-2.33c1.82-0.48,3.7-0.57,5.63-0.27
		l12.14,1.83l1.11-7.38c0.18-1.16,0.12-2.27-0.17-3.35c-0.27-1.07-0.74-2.05-1.37-2.9c-0.64-0.86-1.42-1.59-2.37-2.18
		c-0.94-0.59-2-0.97-3.15-1.14l-3.36-0.51c-1.15-0.17-2.27-0.12-3.35,0.17c-1.08,0.28-2.04,0.74-2.9,1.38
		c-0.86,0.63-1.59,1.42-2.18,2.37c-0.59,0.94-0.97,1.99-1.14,3.14l-0.26,1.73l-5.6-1.81l0.07-0.47c0.28-1.93,0.93-3.7,1.92-5.3
		c1-1.6,2.22-2.94,3.69-4.02c1.47-1.09,3.11-1.87,4.94-2.33c1.82-0.47,3.7-0.57,5.63-0.27l3.35,0.51c1.93,0.29,3.7,0.93,5.3,1.92
		c1.61,0.99,2.94,2.22,4.03,3.69c1.09,1.47,1.87,3.12,2.33,4.94c0.48,1.82,0.57,3.7,0.27,5.63l-5.24,34.68L343.76,87.93z
		 M343.44,64.19l-12.14-1.83c-1.16-0.18-2.27-0.12-3.35,0.16c-1.07,0.29-2.05,0.75-2.91,1.4c-0.86,0.65-1.58,1.45-2.18,2.39
		c-0.59,0.94-0.97,2-1.14,3.15l-0.3,2c-0.17,1.15-0.12,2.27,0.16,3.35c0.28,1.08,0.75,2.05,1.37,2.91c0.64,0.86,1.43,1.59,2.38,2.17
		c0.94,0.59,1.99,0.97,3.14,1.14l3.82,0.58c1.16,0.17,2.28,0.12,3.35-0.17c1.07-0.28,2.05-0.74,2.91-1.37
		c0.86-0.63,1.58-1.42,2.17-2.37c0.59-0.94,0.97-1.99,1.15-3.14L343.44,64.19z"/>
	<path class="st0" d="M388.16,94.23c-1.29,1.38-2.75,2.46-4.4,3.23c-1.66,0.78-3.42,1.22-5.3,1.33c-1.88,0.11-3.74-0.16-5.57-0.83
		l-3.64-1.31c-1.84-0.66-3.45-1.63-4.83-2.91c-1.38-1.28-2.46-2.75-3.23-4.4c-0.78-1.65-1.22-3.41-1.34-5.3
		c-0.11-1.88,0.17-3.74,0.83-5.57l18.41-51.23l5.47,1.96l-7.93,22.04c1.78-1.03,3.69-1.65,5.74-1.85c2.04-0.2,4.08,0.07,6.13,0.8
		l1.38,0.5c1.83,0.66,3.44,1.63,4.82,2.91c1.38,1.28,2.46,2.75,3.24,4.4c0.77,1.65,1.21,3.41,1.33,5.3
		c0.11,1.88-0.17,3.74-0.83,5.57l-7.38,20.53C390.42,91.24,389.45,92.85,388.16,94.23z M393.1,66.6c0.4-1.1,0.55-2.2,0.49-3.31
		c-0.07-1.11-0.33-2.15-0.79-3.12c-0.45-0.97-1.09-1.83-1.9-2.59c-0.81-0.76-1.77-1.34-2.86-1.73l-3.65-1.31
		c-1.09-0.39-2.2-0.56-3.31-0.49c-1.11,0.07-2.15,0.33-3.12,0.79c-0.97,0.45-1.82,1.09-2.59,1.9c-0.76,0.82-1.34,1.77-1.73,2.87
		l-7.61,21.15c-0.39,1.1-0.55,2.2-0.49,3.31c0.06,1.11,0.33,2.15,0.79,3.12c0.45,0.97,1.09,1.83,1.91,2.59
		c0.81,0.76,1.77,1.34,2.87,1.73l3.64,1.31c1.09,0.39,2.21,0.56,3.32,0.49c1.11-0.07,2.15-0.33,3.12-0.79
		c0.96-0.46,1.82-1.09,2.59-1.91c0.76-0.82,1.34-1.77,1.73-2.86L393.1,66.6z"/>
	<path class="st0" d="M398.4,108.34l23.07-42.5l5.1,2.77l-23.06,42.5L398.4,108.34z M426.58,55.41l3.7-6.81l5.94,3.22l-3.7,6.8
		L426.58,55.41z"/>
	<path class="st0" d="M470.27,149.04c-1.37,1.38-2.91,2.37-4.61,2.97c-1.7,0.6-3.44,0.84-5.22,0.71c-1.78-0.12-3.53-0.58-5.25-1.38
		c-1.72-0.8-3.27-1.88-4.65-3.25l-2.75-2.73c-1.39-1.37-2.46-2.95-3.2-4.73c-0.74-1.77-1.13-3.59-1.18-5.45
		c-0.04-1.85,0.27-3.68,0.91-5.48c0.65-1.79,1.65-3.39,3.03-4.78l1.36-1.38l4.79,3.42l-2.26,2.28c-0.82,0.83-1.42,1.77-1.79,2.85
		c-0.38,1.07-0.54,2.17-0.49,3.27c0.05,1.12,0.3,2.21,0.75,3.27c0.46,1.07,1.1,2.01,1.91,2.83l2.76,2.73
		c0.82,0.82,1.74,1.48,2.74,1.99c1.01,0.51,2.03,0.83,3.08,0.96c1.05,0.13,2.07,0.04,3.05-0.27c0.99-0.31,1.9-0.87,2.72-1.7
		c1.22-1.23,1.95-2.5,2.19-3.82c0.24-1.31,0.18-2.67-0.19-4.07c-0.36-1.4-0.93-2.83-1.72-4.3c-0.79-1.47-1.6-2.96-2.45-4.49
		c-0.84-1.52-1.6-3.06-2.29-4.62c-0.68-1.57-1.11-3.15-1.27-4.75c-0.17-1.61,0.03-3.22,0.57-4.85c0.55-1.63,1.64-3.25,3.25-4.89
		c1.37-1.38,2.9-2.39,4.58-3.01c1.68-0.62,3.39-0.89,5.12-0.81c1.73,0.08,3.44,0.49,5.12,1.24c1.67,0.75,3.2,1.81,4.59,3.18
		l2.41,2.39c1.39,1.37,2.44,2.93,3.14,4.67c0.71,1.75,1.07,3.53,1.08,5.36c0.01,1.82-0.33,3.62-1.02,5.37
		c-0.69,1.75-1.73,3.32-3.1,4.7l-0.13,0.13l-4.79-3.42l1.03-1.04c0.82-0.82,1.43-1.75,1.84-2.8c0.41-1.04,0.6-2.09,0.6-3.16
		c0-1.07-0.22-2.12-0.63-3.15c-0.41-1.04-1.04-1.96-1.86-2.78l-2.42-2.39c-0.82-0.82-1.72-1.47-2.69-1.94
		c-0.98-0.47-1.96-0.75-2.94-0.82c-1-0.07-1.97,0.06-2.92,0.4c-0.96,0.34-1.85,0.92-2.67,1.74c-1.18,1.19-1.87,2.42-2.07,3.7
		c-0.21,1.29-0.12,2.62,0.25,4.01c0.37,1.39,0.95,2.81,1.74,4.28c0.78,1.46,1.59,2.96,2.39,4.5c0.81,1.53,1.54,3.09,2.21,4.68
		c0.66,1.59,1.07,3.19,1.22,4.8c0.16,1.62-0.04,3.24-0.61,4.88C472.97,145.77,471.88,147.4,470.27,149.04z"/>
	<path class="st0" d="M485.04,191.01l2.21-5.35c-2.17-0.13-4.25-0.74-6.23-1.79c-1.98-1.06-3.63-2.57-4.94-4.53l-0.81-1.22
		c-1.09-1.62-1.81-3.36-2.15-5.21c-0.36-1.85-0.35-3.67,0.01-5.46c0.35-1.79,1.04-3.47,2.08-5.05c1.02-1.58,2.34-2.91,3.97-4
		l0.39-0.26c1.62-1.09,3.36-1.8,5.21-2.15c1.85-0.34,3.67-0.34,5.46,0.01c1.78,0.36,3.47,1.05,5.05,2.08c1.58,1.02,2.9,2.35,4,3.97
		l6.83,10.2l6.2-4.15c0.97-0.65,1.75-1.44,2.35-2.37c0.61-0.93,1.02-1.92,1.22-2.97c0.2-1.05,0.21-2.12,0.01-3.21
		c-0.2-1.1-0.63-2.13-1.27-3.1l-1.9-2.83c-0.65-0.97-1.44-1.75-2.37-2.36c-0.94-0.6-1.94-1.01-2.98-1.22
		c-1.05-0.21-2.12-0.21-3.21,0c-1.1,0.21-2.13,0.63-3.09,1.27l-1.46,0.97l-2.44-5.35l0.39-0.27c1.62-1.08,3.36-1.8,5.21-2.15
		c1.85-0.35,3.68-0.35,5.46,0.01c1.79,0.36,3.47,1.05,5.05,2.07c1.58,1.03,2.91,2.35,3.99,3.98l1.89,2.82
		c1.08,1.62,1.8,3.36,2.16,5.21c0.34,1.85,0.34,3.67-0.01,5.46c-0.36,1.79-1.04,3.47-2.07,5.05c-1.03,1.58-2.35,2.91-3.98,3.99
		l-29.15,19.51L485.04,191.01z M502.35,174.77l-6.83-10.2c-0.65-0.96-1.44-1.76-2.37-2.36c-0.94-0.61-1.94-1.01-2.99-1.21
		c-1.07-0.2-2.15-0.2-3.24,0.01s-2.12,0.63-3.09,1.28l-1.69,1.13c-0.97,0.65-1.75,1.44-2.36,2.37c-0.6,0.94-1.01,1.93-1.22,2.97
		c-0.21,1.05-0.21,2.12-0.01,3.21c0.21,1.1,0.63,2.13,1.27,3.09l2.16,3.22c0.64,0.96,1.43,1.76,2.37,2.36
		c0.94,0.61,1.92,1.01,2.97,1.22c1.05,0.21,2.12,0.21,3.21,0.01c1.1-0.2,2.13-0.63,3.1-1.27L502.35,174.77z"/>
	<path class="st0" d="M510.27,227.98c-1.88-0.02-3.67-0.38-5.36-1.08c-1.68-0.69-3.19-1.71-4.55-3.02
		c-1.34-1.32-2.39-2.88-3.13-4.68l-1.48-3.58c-0.75-1.8-1.1-3.64-1.09-5.52c0.02-1.89,0.38-3.67,1.08-5.36s1.71-3.2,3.03-4.55
		c1.31-1.35,2.87-2.39,4.67-3.13l50.31-20.8l2.22,5.37l-21.64,8.95c1.96,0.62,3.7,1.62,5.22,3c1.53,1.38,2.7,3.08,3.53,5.08
		l0.56,1.35c0.75,1.8,1.1,3.64,1.09,5.53c-0.02,1.88-0.38,3.67-1.08,5.35c-0.7,1.68-1.71,3.2-3.03,4.55
		c-1.31,1.35-2.88,2.39-4.67,3.14l-20.16,8.33C514,227.64,512.15,228,510.27,227.98z M534.05,213.07c1.08-0.45,2.01-1.06,2.79-1.86
		c0.77-0.8,1.37-1.69,1.77-2.68c0.41-0.99,0.62-2.04,0.64-3.15c0.01-1.12-0.21-2.21-0.65-3.29l-1.48-3.58
		c-0.45-1.07-1.07-2-1.87-2.78c-0.8-0.78-1.69-1.37-2.67-1.78c-0.99-0.41-2.03-0.62-3.15-0.64c-1.11-0.01-2.21,0.2-3.29,0.64
		l-20.77,8.59c-1.08,0.44-2.01,1.07-2.79,1.87c-0.77,0.8-1.37,1.69-1.78,2.68c-0.41,0.98-0.62,2.04-0.64,3.15
		c-0.01,1.11,0.2,2.21,0.64,3.28l1.48,3.58c0.44,1.07,1.07,2,1.86,2.78c0.8,0.78,1.7,1.37,2.68,1.78c0.98,0.4,2.04,0.62,3.15,0.64
		c1.12,0.01,2.2-0.2,3.28-0.64L534.05,213.07z"/>
	<path class="st0" d="M506.82,245.18l46.93-11.58l1.4,5.64l-46.94,11.58L506.82,245.18z M564.93,230.36l7.51-1.86l1.63,6.56
		l-7.52,1.85L564.93,230.36z"/>
	<path class="st0" d="M556.7,300.69c-0.02-1.16-0.27-2.25-0.72-3.26c-0.47-1.02-1.08-1.9-1.85-2.64c-0.77-0.74-1.67-1.32-2.71-1.75
		c-1.03-0.41-2.12-0.61-3.29-0.59l-34.42,0.68l-0.12-5.81l48.35-0.95l0.04,1.94l-4.85,3.26c1.81,1.29,3.27,2.92,4.36,4.89
		c1.09,1.98,1.66,4.15,1.71,6.51l0.07,3.4l-6.47,0.13L556.7,300.69z"/>
	<path class="st0" d="M517.02,346.7c-1.61-0.98-2.95-2.21-4.04-3.68c-1.09-1.46-1.87-3.1-2.36-4.92c-0.48-1.82-0.58-3.69-0.29-5.63
		l0.56-3.83c0.28-1.93,0.91-3.7,1.9-5.3c0.98-1.61,2.21-2.96,3.67-4.04c1.46-1.09,3.11-1.88,4.92-2.36c1.82-0.49,3.7-0.58,5.63-0.3
		l21.58,3.16c1.93,0.28,3.7,0.91,5.31,1.9c1.6,0.98,2.95,2.21,4.05,3.67c1.09,1.46,1.87,3.11,2.35,4.92c0.48,1.82,0.58,3.7,0.3,5.63
		l-0.56,3.83c-0.28,1.93-0.91,3.7-1.9,5.31c-0.98,1.61-2.2,2.95-3.67,4.04c-1.46,1.09-3.11,1.88-4.92,2.36
		c-1.82,0.48-3.7,0.58-5.63,0.3l-21.59-3.16C520.4,348.32,518.62,347.68,517.02,346.7z M545.08,346.06
		c1.15,0.17,2.26,0.11,3.34-0.18c1.08-0.29,2.05-0.76,2.9-1.39c0.86-0.63,1.58-1.43,2.16-2.38c0.59-0.94,0.96-2,1.13-3.15l0.56-3.83
		c0.18-1.15,0.11-2.26-0.18-3.34c-0.29-1.08-0.75-2.05-1.4-2.9c-0.63-0.86-1.42-1.57-2.37-2.16c-0.94-0.59-2-0.96-3.15-1.13
		l-22.24-3.26c-1.15-0.17-2.27-0.11-3.34,0.18c-1.08,0.29-2.05,0.76-2.9,1.39c-0.87,0.63-1.58,1.43-2.17,2.38
		c-0.59,0.94-0.96,2-1.13,3.15l-0.56,3.83c-0.17,1.15-0.11,2.27,0.18,3.34c0.29,1.08,0.75,2.05,1.39,2.91
		c0.64,0.86,1.43,1.57,2.38,2.16c0.94,0.58,2,0.96,3.15,1.13L545.08,346.06z"/>
	<path class="st0" d="M503.34,389.16c-1.39-1.28-2.47-2.74-3.25-4.39c-0.77-1.65-1.22-3.42-1.34-5.29
		c-0.11-1.88,0.17-3.74,0.82-5.58l1.31-3.65c0.66-1.84,1.63-3.45,2.9-4.83c1.28-1.38,2.75-2.46,4.39-3.24
		c1.65-0.78,3.41-1.23,5.3-1.34c1.87-0.12,3.73,0.16,5.58,0.82l20.53,7.35c1.83,0.66,3.45,1.63,4.83,2.91
		c1.37,1.28,2.46,2.74,3.24,4.39c0.78,1.65,1.23,3.41,1.34,5.29c0.11,1.88-0.17,3.74-0.82,5.58l-1.31,3.65
		c-0.66,1.84-1.63,3.45-2.9,4.83c-1.28,1.38-2.75,2.46-4.4,3.24c-1.65,0.78-3.41,1.23-5.29,1.34c-1.87,0.11-3.73-0.16-5.58-0.82
		l-20.53-7.36C506.33,391.41,504.72,390.44,503.34,389.16z M530.97,394.06c1.09,0.4,2.2,0.56,3.31,0.49
		c1.11-0.07,2.15-0.33,3.12-0.79c0.96-0.46,1.82-1.1,2.59-1.91c0.76-0.82,1.34-1.77,1.74-2.87l1.3-3.64
		c0.39-1.1,0.55-2.21,0.48-3.32c-0.07-1.11-0.33-2.15-0.79-3.12c-0.46-0.96-1.09-1.83-1.91-2.59c-0.82-0.76-1.77-1.34-2.87-1.73
		l-21.16-7.58c-1.1-0.39-2.2-0.55-3.32-0.49c-1.11,0.07-2.15,0.33-3.11,0.79c-0.96,0.46-1.83,1.09-2.59,1.91
		c-0.76,0.81-1.34,1.76-1.73,2.87l-1.3,3.64c-0.4,1.09-0.55,2.2-0.48,3.31c0.07,1.11,0.33,2.15,0.79,3.12
		c0.46,0.97,1.09,1.82,1.91,2.59c0.81,0.76,1.77,1.34,2.87,1.73L530.97,394.06z"/>
	<path class="st0" d="M463.83,439.68l29.33,19.85c0.96,0.65,1.99,1.09,3.09,1.3c1.09,0.21,2.17,0.22,3.21,0.01
		c1.05-0.2,2.05-0.6,2.98-1.2s1.73-1.38,2.39-2.35l1.61-2.38c0.66-0.96,1.09-2,1.29-3.09c0.21-1.09,0.22-2.17,0.03-3.24
		c-0.19-1.06-0.59-2.06-1.19-2.99c-0.61-0.94-1.39-1.74-2.35-2.39l-29.32-19.86l3.23-4.77l29.32,19.86c0.96,0.65,2,1.08,3.09,1.29
		c1.1,0.21,2.17,0.21,3.22-0.01c1.06-0.22,2.06-0.62,3-1.23c0.94-0.6,1.73-1.38,2.38-2.35l1.62-2.38c0.65-0.96,1.09-2,1.3-3.09
		c0.2-1.09,0.21-2.17,0.01-3.22c-0.2-1.05-0.6-2.04-1.2-2.97c-0.6-0.94-1.39-1.74-2.35-2.39l-29.32-19.85l3.25-4.81l40.04,27.11
		l-1.09,1.61l-5.84-0.13c0.74,2.1,1,4.27,0.74,6.52c-0.25,2.25-1.03,4.35-2.35,6.31l-0.27,0.39c-1.53,2.27-3.48,3.93-5.84,5
		c-2.35,1.07-4.79,1.47-7.32,1.21c0.58,1.11,1,2.29,1.26,3.53c0.26,1.23,0.35,2.48,0.28,3.73c-0.05,1.25-0.3,2.49-0.7,3.74
		c-0.41,1.25-0.98,2.43-1.75,3.55l-0.26,0.39c-1.09,1.62-2.44,2.93-4.02,3.95c-1.58,1.03-3.27,1.7-5.06,2.05
		c-1.79,0.34-3.61,0.34-5.46-0.02c-1.85-0.36-3.59-1.09-5.2-2.18l-29.06-19.67L463.83,439.68z"/>
</g>
<path class="st0" d="M297.61,8.86C137.05,8.86,6.88,139.03,6.88,299.59s130.16,290.72,290.72,290.72
	c160.56,0,290.72-130.16,290.72-290.72S458.17,8.86,297.61,8.86z M297.61,502.55c-112.1,0-202.97-90.87-202.97-202.97
	c0-112.1,90.87-202.97,202.97-202.97c112.1,0,202.97,90.87,202.97,202.97C500.57,411.68,409.7,502.55,297.61,502.55z"/>
<g>
	<path class="st0" d="M65.09,434.79l2.54-4.74c-2-0.32-3.87-1.07-5.6-2.23c-1.73-1.15-3.12-2.7-4.15-4.63l-0.64-1.2
		c-0.86-1.6-1.36-3.26-1.51-5.01c-0.16-1.74,0.01-3.42,0.51-5.04c0.49-1.63,1.28-3.12,2.37-4.49c1.09-1.36,2.44-2.48,4.04-3.33
		l0.39-0.2c1.6-0.86,3.26-1.36,5.01-1.52c1.74-0.15,3.42,0.01,5.04,0.51c1.62,0.49,3.12,1.27,4.48,2.37
		c1.37,1.09,2.48,2.44,3.33,4.03l5.38,10.05l6.11-3.27c0.95-0.51,1.75-1.17,2.4-1.98c0.64-0.81,1.11-1.69,1.4-2.64
		c0.29-0.94,0.38-1.94,0.3-2.97c-0.09-1.03-0.39-2.03-0.9-2.98l-1.49-2.78c-0.51-0.96-1.17-1.75-1.98-2.4
		c-0.81-0.64-1.69-1.11-2.64-1.39c-0.95-0.29-1.94-0.39-2.97-0.3c-1.03,0.09-2.02,0.39-2.97,0.9l-1.43,0.77l-1.78-5.17l0.39-0.21
		c1.6-0.85,3.26-1.36,5.01-1.52c1.74-0.15,3.42,0.01,5.05,0.51c1.62,0.49,3.11,1.29,4.48,2.38c1.37,1.09,2.48,2.44,3.33,4.03
		l1.49,2.78c0.85,1.6,1.36,3.26,1.51,5.01c0.16,1.74-0.02,3.42-0.5,5.05c-0.49,1.62-1.29,3.12-2.37,4.48
		c-1.1,1.37-2.44,2.48-4.04,3.33l-28.72,15.39L65.09,434.79z M82.57,421.35l-5.38-10.05c-0.51-0.95-1.17-1.75-1.98-2.39
		c-0.81-0.65-1.7-1.11-2.66-1.39c-0.96-0.28-1.96-0.38-2.99-0.29c-1.03,0.09-2.02,0.38-2.98,0.9l-1.66,0.9
		c-0.95,0.51-1.75,1.17-2.4,1.98c-0.64,0.81-1.11,1.69-1.4,2.64c-0.29,0.96-0.38,1.94-0.3,2.97c0.09,1.03,0.39,2.02,0.9,2.97
		l1.7,3.16c0.51,0.96,1.17,1.76,1.98,2.4c0.81,0.65,1.69,1.11,2.64,1.4c0.95,0.29,1.94,0.38,2.97,0.3c1.03-0.09,2.02-0.39,2.97-0.9
		L82.57,421.35z"/>
	<path class="st0" d="M85.93,481.03c-1.62,0.41-3.22,0.49-4.81,0.24c-1.6-0.26-3.13-0.84-4.6-1.72c-1.47-0.88-2.77-2.02-3.91-3.44
		l-1.4-1.75c-1.13-1.42-1.97-2.94-2.5-4.57c-0.53-1.63-0.76-3.26-0.66-4.86c0.1-1.61,0.52-3.16,1.28-4.65
		c0.76-1.48,1.84-2.8,3.26-3.93l0.14-0.11c1.37-1.09,2.82-1.85,4.37-2.26c1.54-0.4,3.08-0.51,4.62-0.33
		c-0.21-1.62-0.02-3.21,0.59-4.77c0.61-1.55,1.6-2.87,2.97-3.97c1.23-0.98,2.59-1.65,4.07-1.97c1.48-0.32,2.92-0.29,4.31,0.09
		c0.08-1.86,0.54-3.65,1.38-5.36c0.84-1.71,2.05-3.22,3.65-4.49l2.63-2.11c1.42-1.13,2.96-1.93,4.65-2.39
		c1.69-0.47,3.37-0.61,5.06-0.42c1.69,0.19,3.3,0.69,4.84,1.52c1.54,0.83,2.88,1.95,4.01,3.37l1.39,1.75
		c1.37,1.71,2.25,3.6,2.65,5.66c0.39,2.05,0.33,4.08-0.21,6.08l5.4-0.55l1.12,1.41l-12.26,9.81c-1.41,1.13-2.96,1.93-4.65,2.39
		c-1.69,0.47-3.37,0.61-5.05,0.42c-1.69-0.19-3.3-0.69-4.84-1.52c-1.54-0.83-2.88-1.95-4.01-3.37l-4.88-6.09
		c-0.38-0.48-0.85-0.86-1.39-1.14c-0.54-0.28-1.1-0.45-1.69-0.53c-0.58-0.07-1.17-0.02-1.76,0.15c-0.59,0.18-1.13,0.45-1.61,0.84
		c-0.48,0.38-0.86,0.84-1.15,1.38c-0.29,0.52-0.47,1.09-0.53,1.69c-0.07,0.59-0.02,1.18,0.15,1.75c0.16,0.59,0.44,1.12,0.82,1.59
		l4.6,5.75c1.13,1.42,1.97,2.93,2.5,4.57c0.54,1.63,0.76,3.25,0.66,4.86s-0.52,3.16-1.28,4.65c-0.76,1.49-1.84,2.79-3.26,3.93
		l-0.14,0.11C89.06,479.85,87.54,480.61,85.93,481.03z M87.61,474.44c0.84-0.67,1.47-1.44,1.89-2.3c0.42-0.86,0.63-1.74,0.65-2.66
		c0.02-0.91-0.14-1.83-0.48-2.78c-0.34-0.94-0.85-1.83-1.53-2.68l-1.72-2.15c-0.67-0.85-1.44-1.54-2.28-2.08
		c-0.84-0.55-1.71-0.9-2.61-1.09c-0.89-0.18-1.81-0.16-2.74,0.05c-0.93,0.22-1.81,0.66-2.66,1.34l-0.55,0.44
		c-0.84,0.67-1.47,1.44-1.87,2.29c-0.41,0.85-0.62,1.74-0.65,2.66c-0.03,0.92,0.12,1.85,0.47,2.8c0.34,0.94,0.85,1.83,1.53,2.68
		l1.73,2.16c0.67,0.84,1.43,1.53,2.28,2.08c0.85,0.54,1.72,0.9,2.63,1.07c0.91,0.17,1.82,0.15,2.74-0.05
		c0.91-0.21,1.79-0.65,2.64-1.33L87.61,474.44z M117.5,450.8c0.84-0.67,1.51-1.47,1.99-2.38c0.49-0.92,0.78-1.87,0.88-2.87
		c0.1-1,0.01-2-0.26-2.99c-0.27-1-0.75-1.92-1.43-2.76l-2.79-3.49c-0.67-0.84-1.47-1.51-2.38-2c-0.91-0.49-1.86-0.78-2.85-0.89
		c-0.98-0.11-1.98-0.03-2.97,0.24c-1,0.27-1.92,0.75-2.76,1.42l-3.12,2.49c-0.84,0.68-1.51,1.48-1.99,2.39
		c-0.49,0.92-0.79,1.86-0.89,2.85c-0.11,0.98-0.03,1.98,0.25,2.97c0.27,1.01,0.75,1.92,1.42,2.77l2.8,3.49
		c0.67,0.84,1.47,1.51,2.38,2c0.91,0.49,1.87,0.79,2.86,0.91c0.99,0.12,1.99,0.05,2.99-0.23c0.99-0.27,1.92-0.75,2.76-1.42
		L117.5,450.8z"/>
	<path class="st0" d="M133.7,501.36c-1.57,0.77-3.21,1.21-4.89,1.34c-1.69,0.11-3.37-0.09-5.04-0.62c-1.66-0.54-3.18-1.4-4.55-2.58
		l-2.72-2.35c-1.37-1.19-2.44-2.57-3.2-4.14s-1.21-3.2-1.33-4.89c-0.12-1.69,0.08-3.37,0.62-5.03c0.53-1.67,1.4-3.18,2.58-4.55
		l13.27-15.31c1.18-1.37,2.57-2.44,4.14-3.2c1.57-0.77,3.2-1.21,4.89-1.34c1.69-0.11,3.37,0.09,5.04,0.62
		c1.67,0.54,3.18,1.39,4.55,2.58l2.72,2.35c1.37,1.19,2.44,2.56,3.2,4.14c0.77,1.57,1.21,3.2,1.33,4.89
		c0.12,1.69-0.08,3.37-0.62,5.03c-0.54,1.67-1.4,3.18-2.58,4.55l-6.92,7.99l-18.59-16.11l-6.55,7.55c-0.71,0.82-1.22,1.73-1.53,2.7
		c-0.31,0.99-0.44,1.98-0.36,2.97c0.07,0.99,0.33,1.96,0.78,2.89c0.45,0.93,1.08,1.74,1.9,2.46l2.72,2.35
		c0.82,0.71,1.72,1.22,2.7,1.53c0.98,0.32,1.98,0.44,2.96,0.36c0.99-0.07,1.95-0.33,2.88-0.78c0.93-0.45,1.75-1.09,2.46-1.91
		l1.95-2.25l3.5,4.2l-1.18,1.36C136.65,499.53,135.27,500.59,133.7,501.36z M147.23,479.08c0.71-0.82,1.22-1.72,1.53-2.7
		c0.31-0.98,0.44-1.97,0.36-2.96s-0.33-1.96-0.78-2.89c-0.45-0.93-1.08-1.75-1.9-2.46l-2.72-2.35c-0.82-0.71-1.72-1.22-2.71-1.54
		c-0.98-0.31-1.97-0.43-2.96-0.36c-0.99,0.07-1.95,0.33-2.88,0.78c-0.93,0.45-1.75,1.09-2.46,1.9l-4.36,5.04l14.52,12.58
		L147.23,479.08z"/>
	<path class="st0" d="M165.51,530.4l16.68-28.34c0.55-0.93,0.89-1.91,1.02-2.93c0.13-1.03,0.07-2.02-0.18-2.98
		c-0.25-0.96-0.68-1.86-1.29-2.69c-0.61-0.84-1.39-1.52-2.32-2.07l-3.1-1.83c-0.93-0.55-1.91-0.88-2.94-1.02
		c-1.03-0.13-2.02-0.07-2.98,0.18c-0.96,0.25-1.86,0.67-2.69,1.29c-0.84,0.61-1.53,1.38-2.08,2.31l-16.68,28.33l-4.64-2.73
		l22.77-38.68l1.55,0.91l0.22,5.42c1.9-0.81,3.91-1.17,6-1.07c2.1,0.1,4.09,0.7,5.98,1.82l1.17,0.68c1.56,0.92,2.86,2.08,3.9,3.49
		c1.04,1.41,1.77,2.93,2.2,4.57c0.42,1.64,0.52,3.33,0.3,5.06c-0.23,1.74-0.8,3.39-1.72,4.94l-16.53,28.07L165.51,530.4z"/>
	<path class="st0" d="M216.07,543.92c-1.19,1.28-2.56,2.28-4.1,2.99c-1.53,0.72-3.17,1.13-4.92,1.22c-1.75,0.09-3.47-0.17-5.17-0.78
		l-3.38-1.23c-1.7-0.62-3.19-1.53-4.47-2.73c-1.28-1.19-2.28-2.56-2.99-4.09s-1.12-3.18-1.22-4.92c-0.1-1.74,0.17-3.47,0.78-5.17
		l6.92-19.04c0.62-1.71,1.53-3.2,2.72-4.47c1.2-1.28,2.56-2.27,4.1-2.99c1.53-0.72,3.18-1.12,4.92-1.22
		c1.75-0.09,3.47,0.17,5.18,0.79l3.38,1.23c1.71,0.62,3.2,1.52,4.47,2.72c1.27,1.2,2.27,2.56,2.99,4.09
		c0.71,1.54,1.12,3.18,1.21,4.92c0.1,1.75-0.16,3.47-0.78,5.17l-0.61,1.69l-5.37-1.02l1.02-2.81c0.36-1.01,0.52-2.04,0.46-3.07
		c-0.06-1.03-0.3-2-0.72-2.9c-0.42-0.9-1.01-1.71-1.76-2.4c-0.76-0.71-1.64-1.25-2.65-1.63l-3.38-1.23
		c-1.02-0.37-2.04-0.53-3.08-0.46c-1.03,0.06-2,0.3-2.9,0.72c-0.9,0.41-1.7,1.01-2.41,1.76c-0.71,0.75-1.25,1.63-1.62,2.64
		l-7.13,19.62c-0.37,1.02-0.53,2.04-0.46,3.07c0.06,1.04,0.3,2,0.72,2.9c0.42,0.9,1.01,1.71,1.76,2.41
		c0.75,0.71,1.64,1.25,2.65,1.62l3.38,1.23c1.02,0.37,2.04,0.53,3.07,0.47c1.04-0.06,2-0.3,2.9-0.72c0.9-0.42,1.7-1.01,2.41-1.76
		c0.71-0.76,1.25-1.64,1.62-2.66l1.02-2.8l4.77,2.66l-0.61,1.69C218.17,541.16,217.26,542.65,216.07,543.92z"/>
	<path class="st0" d="M235.66,574.35l-5.14-0.92l11.69-20.09l-7.14-42.97l5.31,0.94l5.56,35.56l-0.23,2.31l0.58-2.26l17.44-31.45
		l5.31,0.94L235.66,574.35z"/>
</g>
<g>
	<path class="st0" d="M444.21,102.05c-1.65-1.82-7.58-5.74-9.76-6.85c-2.18-1.11-1.5-2.82-1-3.7c0.5-0.88,0,0,0,0
		c0.5-0.88,2.19-2.16,4.19-0.86c2,1.3,7.99,5.17,9.78,6.86c1.8,1.69,1.45,3.08,0.89,4.03c-0.55,0.95,0,0,0,0
		C447.76,102.48,445.86,103.86,444.21,102.05z"/>
</g>
</svg>
