<?xml version="1.0" encoding="utf-8"?>
<!-- Generator: Adobe Illustrator 24.2.1, SVG Export Plug-In . SVG Version: 6.00 Build 0)  -->
<svg version="1.1" id="Layer_1" xmlns="http://www.w3.org/2000/svg" xmlns:xlink="http://www.w3.org/1999/xlink" x="0px" y="0px"
	 viewBox="0 0 400 400" style="enable-background:new 0 0 400 400;" xml:space="preserve">
<style type="text/css">
	.st0{fill:#FFCC04;}
</style>
<path class="st0" d="M200.19,6.53c106.94,0,193.64,86.7,193.64,193.64s-86.7,193.64-193.64,193.64
	c-106.94,0-193.64-86.7-193.64-193.64S93.25,6.53,200.19,6.53 M200.19,3.08C91.52,3.08,3.1,91.5,3.1,200.17
	s88.41,197.09,197.09,197.09s197.09-88.41,197.09-197.09S308.87,3.08,200.19,3.08L200.19,3.08z"/>
<g>
	<path class="st0" d="M98.34,98.28c-0.81,0.85-1.72,1.51-2.76,1.96c-1.03,0.45-2.09,0.69-3.18,0.72c-1.09,0.03-2.17-0.15-3.22-0.53
		c-1.06-0.37-2.01-0.97-2.87-1.77L71.73,84.93l-3.97,4.21l-2.68-2.52l3.97-4.21l-5.63-5.3l2.19-3.25l6.09,5.73l5.61-5.95l2.68,2.52
		l-5.61,5.95l14.73,13.87c0.47,0.44,0.99,0.77,1.56,0.97c0.57,0.2,1.15,0.3,1.74,0.28c0.59-0.02,1.17-0.15,1.74-0.4
		c0.56-0.25,1.07-0.61,1.51-1.08l2.42-2.57l2.68,2.53L98.34,98.28z"/>
	<path class="st0" d="M119.87,80.48l-14.04-18.95c-0.46-0.62-1.01-1.12-1.66-1.5c-0.64-0.37-1.31-0.61-2.02-0.71
		c-0.71-0.11-1.42-0.07-2.14,0.1c-0.72,0.17-1.39,0.49-2.02,0.95l-2.07,1.54c-0.62,0.46-1.12,1.01-1.5,1.65
		c-0.37,0.64-0.6,1.32-0.71,2.02c-0.11,0.7-0.07,1.42,0.09,2.14c0.17,0.72,0.49,1.4,0.95,2.02l14.05,18.95l-3.11,2.3L78.84,54.76
		l3.11-2.3l9.29,12.53c0.08-1.37,0.44-2.65,1.09-3.86c0.65-1.21,1.55-2.24,2.71-3.11l0.79-0.58c1.04-0.78,2.17-1.31,3.39-1.6
		c1.22-0.29,2.43-0.35,3.63-0.17c1.21,0.18,2.35,0.58,3.43,1.22c1.08,0.64,2.01,1.47,2.78,2.52l13.92,18.77L119.87,80.48z"/>
	<path class="st0" d="M145.76,60.98c0.04,1.25-0.13,2.45-0.55,3.59c-0.41,1.15-1.04,2.18-1.86,3.12c-0.84,0.94-1.84,1.68-3.02,2.24
		l-2.33,1.1c-1.17,0.55-2.39,0.85-3.65,0.9c-1.25,0.04-2.45-0.14-3.6-0.55c-1.14-0.41-2.18-1.03-3.12-1.87
		c-0.94-0.83-1.68-1.84-2.23-3.01l-6.18-13.15c-0.55-1.17-0.85-2.39-0.9-3.64c-0.04-1.25,0.14-2.45,0.55-3.59
		c0.41-1.15,1.04-2.18,1.87-3.12c0.84-0.93,1.84-1.68,3.02-2.23l2.33-1.1c1.18-0.55,2.39-0.85,3.65-0.89
		c1.25-0.05,2.45,0.14,3.59,0.55c1.14,0.42,2.19,1.04,3.12,1.87c0.94,0.83,1.68,1.84,2.24,3.01l3.23,6.86l-15.97,7.51l3.05,6.49
		c0.33,0.71,0.77,1.3,1.33,1.79c0.55,0.49,1.17,0.85,1.84,1.1c0.67,0.24,1.38,0.35,2.12,0.33c0.74-0.02,1.46-0.2,2.16-0.53l2.34-1.1
		c0.7-0.33,1.29-0.77,1.79-1.33c0.49-0.56,0.86-1.17,1.1-1.84c0.24-0.67,0.35-1.37,0.32-2.12c-0.02-0.74-0.2-1.46-0.53-2.17
		l-0.91-1.94l3.77-1.07l0.55,1.16C145.41,58.51,145.71,59.73,145.76,60.98z M135.08,45.63c-0.33-0.7-0.77-1.3-1.33-1.79
		c-0.55-0.49-1.17-0.86-1.84-1.1c-0.67-0.24-1.38-0.35-2.12-0.33c-0.74,0.02-1.46,0.2-2.16,0.53l-2.33,1.1
		c-0.7,0.33-1.3,0.77-1.79,1.33c-0.49,0.55-0.86,1.17-1.1,1.84c-0.24,0.67-0.35,1.37-0.33,2.11c0.03,0.74,0.2,1.46,0.53,2.17
		l2.03,4.32l12.46-5.87L135.08,45.63z"/>
	<path class="st0" d="M196.66,55.89l-2.1,0.19l-9.77-23.47l-0.28-1.64l0.03,1.67l-5.26,24.88l-2.13,0.2l-13.7-31.07l3.92-0.36
		l9.9,23.52l0.28,1.65l-0.03-1.67l5.25-24.94l2.32-0.22l9.75,23.54l0.28,1.65l-0.03-1.67l5.38-24.95l3.91-0.37L196.66,55.89z"/>
	<path class="st0" d="M230.93,59.19l-1.63-3.49c-1.04,1.01-2.27,1.76-3.68,2.26c-1.41,0.5-2.89,0.63-4.45,0.4l-0.97-0.15
		c-1.29-0.2-2.46-0.62-3.53-1.28c-1.07-0.66-1.96-1.48-2.68-2.46c-0.72-0.98-1.24-2.07-1.55-3.29c-0.32-1.22-0.38-2.46-0.18-3.75
		l0.05-0.31c0.19-1.28,0.62-2.46,1.28-3.53c0.66-1.07,1.48-1.96,2.46-2.68c0.98-0.72,2.08-1.24,3.29-1.55
		c1.21-0.32,2.46-0.38,3.75-0.18l8.09,1.22l0.74-4.91c0.12-0.77,0.08-1.51-0.11-2.23c-0.18-0.71-0.49-1.36-0.91-1.93
		c-0.42-0.58-0.95-1.06-1.58-1.45c-0.63-0.39-1.33-0.65-2.1-0.76l-2.24-0.34c-0.77-0.11-1.51-0.08-2.23,0.11
		c-0.72,0.19-1.36,0.49-1.93,0.92c-0.58,0.42-1.06,0.95-1.45,1.58c-0.4,0.63-0.64,1.32-0.76,2.09l-0.18,1.15l-3.73-1.2l0.04-0.31
		c0.19-1.29,0.62-2.46,1.28-3.53c0.66-1.07,1.48-1.96,2.46-2.68c0.98-0.72,2.07-1.24,3.29-1.55c1.21-0.31,2.46-0.38,3.75-0.18
		l2.23,0.34c1.29,0.19,2.47,0.62,3.53,1.28c1.07,0.66,1.96,1.48,2.68,2.46c0.72,0.98,1.24,2.08,1.55,3.29
		c0.32,1.21,0.38,2.46,0.18,3.75l-3.49,23.1L230.93,59.19z M230.72,43.38l-8.09-1.22c-0.77-0.12-1.51-0.08-2.23,0.11
		c-0.71,0.19-1.36,0.5-1.94,0.93c-0.57,0.43-1.05,0.96-1.45,1.59c-0.39,0.63-0.65,1.33-0.76,2.1l-0.2,1.33
		c-0.11,0.77-0.08,1.51,0.11,2.23c0.19,0.72,0.5,1.36,0.91,1.94c0.42,0.57,0.95,1.06,1.58,1.45c0.63,0.39,1.33,0.65,2.09,0.76
		l2.55,0.39c0.77,0.11,1.52,0.08,2.23-0.11c0.71-0.19,1.36-0.49,1.94-0.91c0.57-0.42,1.05-0.95,1.44-1.58
		c0.39-0.63,0.65-1.33,0.77-2.09L230.72,43.38z"/>
	<path class="st0" d="M260.51,63.39c-0.86,0.92-1.83,1.64-2.93,2.15c-1.1,0.52-2.28,0.81-3.53,0.89c-1.25,0.07-2.49-0.11-3.71-0.55
		l-2.43-0.87c-1.22-0.44-2.3-1.09-3.21-1.94c-0.92-0.85-1.64-1.83-2.15-2.93c-0.52-1.1-0.81-2.27-0.89-3.53
		c-0.07-1.25,0.11-2.49,0.55-3.71l12.26-34.12l3.64,1.31l-5.28,14.68c1.19-0.69,2.46-1.1,3.82-1.23c1.36-0.13,2.72,0.04,4.08,0.53
		l0.92,0.33c1.22,0.44,2.29,1.09,3.21,1.94c0.92,0.85,1.64,1.83,2.16,2.93c0.51,1.1,0.81,2.27,0.89,3.53
		c0.07,1.25-0.11,2.49-0.55,3.71l-4.92,13.68C262.01,61.4,261.36,62.47,260.51,63.39z M263.8,44.99c0.27-0.73,0.37-1.46,0.33-2.21
		c-0.04-0.74-0.22-1.43-0.53-2.08c-0.3-0.64-0.73-1.22-1.27-1.73c-0.54-0.51-1.18-0.89-1.91-1.15L258,36.96
		c-0.73-0.26-1.46-0.37-2.2-0.33c-0.74,0.05-1.43,0.22-2.08,0.53c-0.64,0.3-1.22,0.73-1.73,1.27c-0.51,0.54-0.89,1.18-1.15,1.91
		l-5.07,14.09c-0.26,0.73-0.37,1.46-0.32,2.21c0.04,0.74,0.22,1.43,0.52,2.08c0.3,0.64,0.73,1.22,1.27,1.73
		c0.54,0.51,1.18,0.89,1.91,1.15l2.42,0.87c0.73,0.26,1.47,0.37,2.21,0.33c0.74-0.04,1.43-0.22,2.08-0.52
		c0.64-0.3,1.21-0.73,1.72-1.27c0.51-0.54,0.89-1.18,1.15-1.91L263.8,44.99z"/>
	<path class="st0" d="M267.32,72.79l15.36-28.31l3.4,1.84l-15.36,28.31L267.32,72.79z M286.1,37.53l2.46-4.53l3.95,2.15l-2.46,4.53
		L286.1,37.53z"/>
	<path class="st0" d="M315.2,99.9c-0.91,0.92-1.94,1.58-3.07,1.98c-1.13,0.4-2.29,0.56-3.48,0.47c-1.19-0.08-2.35-0.39-3.5-0.92
		c-1.15-0.53-2.18-1.25-3.1-2.17l-1.83-1.82c-0.92-0.91-1.64-1.96-2.13-3.15c-0.49-1.18-0.75-2.39-0.78-3.63
		c-0.02-1.24,0.18-2.45,0.61-3.65c0.43-1.2,1.1-2.26,2.02-3.18l0.91-0.92l3.19,2.28l-1.5,1.52c-0.55,0.55-0.95,1.18-1.19,1.9
		c-0.25,0.71-0.36,1.44-0.32,2.18c0.03,0.74,0.2,1.47,0.5,2.18c0.31,0.71,0.73,1.34,1.27,1.88l1.84,1.82
		c0.55,0.55,1.16,0.99,1.83,1.33c0.67,0.34,1.35,0.55,2.05,0.64c0.7,0.09,1.38,0.02,2.03-0.18c0.66-0.2,1.26-0.58,1.81-1.13
		c0.81-0.82,1.3-1.66,1.46-2.54c0.16-0.87,0.12-1.78-0.13-2.71c-0.24-0.93-0.62-1.89-1.15-2.86c-0.53-0.98-1.06-1.97-1.63-2.99
		c-0.56-1.01-1.07-2.04-1.53-3.08c-0.46-1.04-0.74-2.1-0.85-3.17c-0.11-1.07,0.02-2.15,0.38-3.23c0.37-1.08,1.09-2.17,2.17-3.26
		c0.91-0.92,1.93-1.59,3.05-2c1.12-0.42,2.26-0.6,3.41-0.54c1.15,0.05,2.29,0.33,3.41,0.83c1.11,0.5,2.13,1.2,3.06,2.12l1.6,1.59
		c0.92,0.91,1.62,1.95,2.09,3.11c0.48,1.16,0.71,2.35,0.72,3.57c0.01,1.22-0.22,2.41-0.68,3.57c-0.46,1.17-1.15,2.21-2.07,3.13
		l-0.09,0.09l-3.19-2.28l0.68-0.69c0.55-0.55,0.95-1.17,1.23-1.86c0.27-0.69,0.4-1.39,0.4-2.1c0-0.71-0.14-1.41-0.42-2.1
		c-0.27-0.69-0.69-1.3-1.24-1.85l-1.62-1.59c-0.55-0.55-1.15-0.98-1.79-1.29c-0.65-0.31-1.3-0.5-1.96-0.55
		c-0.66-0.05-1.31,0.04-1.94,0.27c-0.64,0.22-1.23,0.61-1.78,1.16c-0.78,0.79-1.24,1.61-1.38,2.46c-0.14,0.86-0.08,1.74,0.17,2.67
		c0.25,0.93,0.64,1.87,1.16,2.85c0.52,0.97,1.06,1.97,1.59,2.99c0.54,1.02,1.03,2.06,1.47,3.12c0.44,1.06,0.71,2.12,0.81,3.2
		c0.11,1.08-0.03,2.16-0.41,3.25C317,97.72,316.27,98.81,315.2,99.9z"/>
	<path class="st0" d="M325.04,127.86l1.47-3.56c-1.44-0.09-2.83-0.49-4.15-1.2c-1.32-0.71-2.41-1.71-3.29-3.02l-0.54-0.81
		c-0.73-1.08-1.2-2.24-1.43-3.47c-0.24-1.23-0.24-2.45,0-3.64c0.23-1.19,0.69-2.31,1.38-3.36c0.68-1.05,1.56-1.94,2.64-2.66
		l0.26-0.18c1.08-0.72,2.24-1.2,3.47-1.43c1.23-0.23,2.44-0.23,3.64,0c1.19,0.24,2.31,0.7,3.36,1.39c1.05,0.68,1.93,1.56,2.66,2.64
		l4.55,6.8l4.13-2.77c0.64-0.43,1.17-0.96,1.57-1.58c0.41-0.62,0.68-1.28,0.82-1.98c0.13-0.7,0.14-1.41,0-2.14
		c-0.13-0.73-0.42-1.42-0.85-2.06l-1.26-1.88c-0.43-0.65-0.96-1.17-1.58-1.57c-0.63-0.4-1.29-0.67-1.99-0.81
		c-0.7-0.14-1.41-0.14-2.14,0c-0.73,0.14-1.42,0.42-2.06,0.85l-0.97,0.65l-1.63-3.57l0.26-0.18c1.08-0.72,2.24-1.2,3.47-1.43
		c1.23-0.23,2.45-0.23,3.64,0c1.19,0.24,2.31,0.7,3.37,1.38c1.05,0.69,1.94,1.57,2.66,2.65l1.26,1.88c0.72,1.08,1.2,2.24,1.44,3.47
		c0.23,1.23,0.23,2.45-0.01,3.64c-0.24,1.19-0.69,2.31-1.38,3.37c-0.69,1.05-1.57,1.94-2.65,2.66l-19.42,13L325.04,127.86z
		 M336.57,117.03l-4.55-6.79c-0.43-0.64-0.96-1.17-1.58-1.57c-0.63-0.41-1.29-0.67-1.99-0.81c-0.71-0.13-1.43-0.13-2.16,0
		s-1.42,0.42-2.06,0.85l-1.13,0.75c-0.64,0.43-1.17,0.96-1.57,1.58c-0.4,0.62-0.67,1.28-0.81,1.98s-0.14,1.41-0.01,2.14
		c0.14,0.73,0.42,1.42,0.85,2.06l1.44,2.15c0.43,0.64,0.95,1.17,1.58,1.57c0.62,0.4,1.28,0.67,1.98,0.81c0.7,0.14,1.42,0.14,2.14,0
		c0.73-0.13,1.42-0.42,2.07-0.85L336.57,117.03z"/>
	<path class="st0" d="M341.84,152.48c-1.25-0.01-2.44-0.25-3.57-0.72c-1.12-0.46-2.13-1.14-3.03-2.01
		c-0.89-0.88-1.59-1.92-2.09-3.12l-0.98-2.39c-0.5-1.2-0.73-2.43-0.72-3.68c0.01-1.26,0.26-2.44,0.72-3.57
		c0.46-1.12,1.14-2.13,2.02-3.03c0.87-0.9,1.91-1.59,3.11-2.09l33.51-13.85l1.48,3.57l-14.42,5.96c1.31,0.41,2.47,1.08,3.48,2
		c1.02,0.92,1.8,2.05,2.35,3.39l0.37,0.9c0.5,1.2,0.73,2.43,0.72,3.68c-0.02,1.25-0.25,2.44-0.72,3.57
		c-0.47,1.12-1.14,2.13-2.02,3.03c-0.87,0.9-1.92,1.59-3.11,2.09l-13.43,5.55C344.33,152.25,343.1,152.49,341.84,152.48z
		 M357.68,142.55c0.72-0.3,1.34-0.71,1.86-1.24c0.51-0.53,0.91-1.13,1.18-1.78c0.27-0.66,0.42-1.36,0.43-2.1
		c0.01-0.75-0.14-1.47-0.43-2.19l-0.98-2.38c-0.3-0.71-0.71-1.33-1.24-1.85c-0.53-0.52-1.12-0.91-1.78-1.19
		c-0.66-0.27-1.35-0.41-2.1-0.43c-0.74-0.01-1.47,0.13-2.19,0.43l-13.83,5.72c-0.72,0.29-1.34,0.71-1.86,1.24
		c-0.51,0.53-0.91,1.13-1.18,1.78c-0.27,0.66-0.41,1.36-0.43,2.1c-0.01,0.74,0.13,1.47,0.43,2.19l0.99,2.39
		c0.29,0.71,0.71,1.33,1.24,1.85c0.53,0.52,1.13,0.91,1.79,1.19c0.66,0.27,1.36,0.41,2.1,0.42c0.75,0.01,1.47-0.13,2.19-0.43
		L357.68,142.55z"/>
	<path class="st0" d="M339.55,163.94l31.26-7.71l0.93,3.76l-31.27,7.71L339.55,163.94z M378.25,154.07l5.01-1.24l1.08,4.37
		l-5.01,1.24L378.25,154.07z"/>
	<path class="st0" d="M372.76,200.91c-0.01-0.78-0.18-1.5-0.48-2.17c-0.31-0.68-0.72-1.26-1.23-1.76c-0.51-0.49-1.11-0.88-1.8-1.16
		c-0.69-0.28-1.42-0.41-2.19-0.4l-22.92,0.45l-0.08-3.87l32.2-0.63l0.02,1.29l-3.23,2.17c1.21,0.86,2.18,1.94,2.91,3.26
		c0.73,1.32,1.11,2.76,1.14,4.33l0.05,2.26l-4.31,0.09L372.76,200.91z"/>
	<path class="st0" d="M346.33,231.55c-1.07-0.66-1.96-1.47-2.69-2.45c-0.73-0.97-1.25-2.07-1.57-3.28c-0.32-1.21-0.38-2.46-0.2-3.75
		l0.38-2.55c0.19-1.28,0.61-2.46,1.26-3.53c0.65-1.07,1.47-1.97,2.44-2.69c0.97-0.73,2.07-1.25,3.28-1.57
		c1.22-0.32,2.46-0.39,3.75-0.2l14.38,2.1c1.28,0.19,2.47,0.61,3.53,1.26c1.07,0.65,1.97,1.47,2.7,2.44
		c0.73,0.97,1.25,2.07,1.57,3.28c0.32,1.21,0.38,2.46,0.2,3.75l-0.38,2.55c-0.19,1.29-0.61,2.46-1.26,3.53
		c-0.65,1.07-1.47,1.97-2.44,2.69c-0.97,0.73-2.07,1.25-3.28,1.57c-1.22,0.32-2.46,0.39-3.75,0.2l-14.38-2.11
		C348.59,232.63,347.4,232.21,346.33,231.55z M365.03,231.13c0.76,0.11,1.51,0.07,2.22-0.12c0.72-0.19,1.37-0.5,1.93-0.93
		c0.58-0.42,1.05-0.95,1.44-1.58c0.39-0.63,0.64-1.33,0.75-2.1l0.37-2.55c0.12-0.77,0.07-1.51-0.12-2.22
		c-0.19-0.72-0.5-1.36-0.93-1.93c-0.42-0.57-0.95-1.05-1.58-1.44c-0.63-0.39-1.33-0.64-2.1-0.75l-14.81-2.17
		c-0.76-0.11-1.51-0.07-2.22,0.12c-0.72,0.19-1.36,0.5-1.93,0.93c-0.58,0.42-1.05,0.95-1.44,1.59c-0.39,0.63-0.64,1.33-0.75,2.1
		l-0.37,2.55c-0.11,0.77-0.07,1.51,0.12,2.22c0.19,0.72,0.5,1.36,0.92,1.94c0.43,0.57,0.95,1.05,1.59,1.44
		c0.63,0.39,1.33,0.64,2.1,0.75L365.03,231.13z"/>
	<path class="st0" d="M337.23,259.83c-0.93-0.85-1.64-1.83-2.17-2.93c-0.51-1.1-0.81-2.28-0.89-3.52c-0.07-1.25,0.11-2.49,0.55-3.71
		l0.87-2.43c0.44-1.23,1.08-2.3,1.93-3.21c0.85-0.92,1.83-1.64,2.93-2.16c1.1-0.52,2.27-0.82,3.53-0.89
		c1.25-0.08,2.49,0.1,3.71,0.54l13.67,4.9c1.22,0.44,2.3,1.08,3.22,1.94c0.91,0.85,1.64,1.83,2.16,2.93
		c0.52,1.1,0.82,2.27,0.89,3.52c0.07,1.25-0.11,2.49-0.55,3.71l-0.87,2.43c-0.44,1.22-1.08,2.3-1.93,3.22s-1.83,1.64-2.93,2.16
		c-1.1,0.52-2.27,0.82-3.52,0.89c-1.25,0.07-2.49-0.1-3.71-0.54l-13.67-4.9C339.21,261.33,338.14,260.69,337.23,259.83z
		 M355.63,263.1c0.73,0.27,1.47,0.37,2.2,0.32c0.74-0.04,1.43-0.22,2.08-0.52c0.64-0.3,1.22-0.73,1.72-1.27
		c0.51-0.54,0.89-1.18,1.16-1.91l0.87-2.43c0.26-0.73,0.37-1.47,0.32-2.21c-0.05-0.74-0.22-1.43-0.52-2.08
		c-0.31-0.64-0.73-1.22-1.27-1.73c-0.55-0.5-1.18-0.89-1.91-1.15l-14.09-5.05c-0.73-0.26-1.47-0.37-2.21-0.32
		c-0.74,0.04-1.43,0.22-2.07,0.53c-0.64,0.31-1.22,0.73-1.73,1.27c-0.51,0.54-0.89,1.17-1.15,1.91l-0.87,2.43
		c-0.27,0.73-0.37,1.47-0.32,2.21c0.04,0.74,0.22,1.43,0.52,2.08c0.31,0.64,0.73,1.22,1.27,1.72c0.54,0.5,1.18,0.89,1.91,1.15
		L355.63,263.1z"/>
	<path class="st0" d="M310.91,293.48l19.54,13.22c0.64,0.44,1.32,0.72,2.06,0.86c0.73,0.14,1.44,0.14,2.14,0
		c0.7-0.13,1.37-0.4,1.99-0.8c0.62-0.4,1.15-0.92,1.59-1.56l1.07-1.59c0.44-0.64,0.72-1.33,0.86-2.06c0.14-0.73,0.15-1.45,0.02-2.16
		c-0.13-0.71-0.4-1.37-0.79-1.99c-0.4-0.63-0.93-1.16-1.57-1.59l-19.53-13.23l2.15-3.18l19.53,13.23c0.64,0.43,1.33,0.72,2.06,0.86
		c0.73,0.14,1.45,0.14,2.15,0c0.71-0.14,1.37-0.41,2-0.82c0.62-0.4,1.15-0.92,1.59-1.56l1.08-1.59c0.43-0.64,0.72-1.33,0.86-2.06
		c0.13-0.73,0.14-1.44,0-2.14c-0.13-0.7-0.4-1.36-0.8-1.98c-0.4-0.63-0.93-1.16-1.57-1.59l-19.53-13.22l2.17-3.2l26.67,18.06
		l-0.72,1.07l-3.89-0.09c0.49,1.4,0.66,2.84,0.49,4.34c-0.16,1.5-0.68,2.9-1.57,4.2l-0.18,0.26c-1.02,1.51-2.32,2.62-3.89,3.33
		c-1.57,0.71-3.19,0.98-4.87,0.8c0.39,0.74,0.67,1.52,0.84,2.35c0.17,0.82,0.24,1.65,0.19,2.48c-0.04,0.83-0.2,1.66-0.47,2.49
		c-0.27,0.83-0.65,1.62-1.16,2.37l-0.18,0.26c-0.73,1.08-1.62,1.95-2.68,2.63c-1.05,0.68-2.18,1.13-3.37,1.37
		c-1.19,0.23-2.41,0.22-3.63-0.01c-1.24-0.24-2.39-0.72-3.46-1.45l-19.35-13.1L310.91,293.48z"/>
</g>
<path class="st0" d="M200.19,64.98c74.66,0,135.19,60.53,135.19,135.19c0,74.66-60.53,135.19-135.19,135.19
	C125.53,335.36,65,274.84,65,200.17C65,125.51,125.53,64.98,200.19,64.98 M200.19,61.53c-76.45,0-138.64,62.19-138.64,138.64
	s62.19,138.64,138.64,138.64c76.45,0,138.64-62.19,138.64-138.64S276.64,61.53,200.19,61.53L200.19,61.53z"/>
<g>
	<path class="st0" d="M45.32,290.23l1.69-3.15c-1.33-0.22-2.57-0.71-3.73-1.49c-1.15-0.77-2.08-1.8-2.77-3.09l-0.43-0.8
		c-0.57-1.06-0.91-2.17-1.01-3.34c-0.1-1.16,0.01-2.28,0.34-3.36c0.33-1.08,0.85-2.08,1.58-2.99c0.73-0.91,1.62-1.65,2.69-2.22
		l0.26-0.13c1.06-0.58,2.17-0.91,3.34-1.01c1.16-0.1,2.28,0.01,3.36,0.34c1.08,0.33,2.08,0.85,2.99,1.58
		c0.91,0.73,1.65,1.63,2.22,2.69l3.58,6.69l4.07-2.18c0.64-0.34,1.17-0.78,1.6-1.32c0.43-0.54,0.74-1.12,0.93-1.76
		c0.19-0.63,0.26-1.29,0.2-1.98c-0.06-0.69-0.26-1.35-0.6-1.99l-0.99-1.85c-0.34-0.64-0.78-1.17-1.32-1.6
		c-0.54-0.43-1.13-0.74-1.76-0.93c-0.64-0.19-1.29-0.26-1.98-0.2c-0.69,0.06-1.34,0.26-1.98,0.6l-0.95,0.51l-1.18-3.44l0.26-0.14
		c1.06-0.57,2.17-0.91,3.33-1.01c1.16-0.1,2.28,0.01,3.36,0.34c1.08,0.33,2.07,0.86,2.98,1.59c0.91,0.72,1.65,1.62,2.22,2.69l1,1.85
		c0.57,1.06,0.91,2.17,1.01,3.34c0.1,1.16-0.01,2.28-0.33,3.36c-0.33,1.08-0.86,2.08-1.58,2.98c-0.73,0.91-1.62,1.65-2.69,2.22
		l-19.13,10.25L45.32,290.23z M56.96,281.28l-3.59-6.69c-0.34-0.63-0.78-1.17-1.32-1.59c-0.54-0.43-1.13-0.74-1.77-0.93
		c-0.64-0.18-1.31-0.25-1.99-0.19c-0.69,0.06-1.35,0.26-1.98,0.6l-1.11,0.6c-0.64,0.34-1.17,0.78-1.6,1.32
		c-0.43,0.54-0.74,1.12-0.93,1.76c-0.19,0.64-0.26,1.29-0.2,1.98c0.06,0.68,0.26,1.35,0.6,1.98l1.13,2.11
		c0.34,0.64,0.78,1.17,1.32,1.6c0.54,0.43,1.12,0.74,1.76,0.93c0.63,0.19,1.29,0.26,1.98,0.2c0.69-0.06,1.35-0.26,1.98-0.6
		L56.96,281.28z"/>
	<path class="st0" d="M59.2,321.03c-1.08,0.27-2.15,0.32-3.21,0.16c-1.06-0.18-2.08-0.56-3.06-1.15c-0.98-0.58-1.85-1.35-2.6-2.29
		l-0.93-1.16c-0.75-0.94-1.31-1.96-1.67-3.04c-0.35-1.09-0.5-2.17-0.44-3.24c0.07-1.07,0.35-2.11,0.85-3.1
		c0.51-0.99,1.23-1.86,2.17-2.62l0.09-0.07c0.91-0.73,1.88-1.23,2.91-1.51c1.03-0.27,2.05-0.34,3.08-0.22
		c-0.14-1.08-0.01-2.14,0.4-3.18c0.4-1.03,1.06-1.91,1.98-2.65c0.82-0.66,1.72-1.1,2.71-1.31s1.95-0.19,2.87,0.06
		c0.06-1.24,0.36-2.43,0.92-3.57s1.37-2.14,2.43-2.99l1.75-1.41c0.94-0.75,1.97-1.28,3.1-1.6c1.13-0.31,2.25-0.4,3.37-0.28
		c1.12,0.13,2.2,0.46,3.22,1.01c1.03,0.55,1.92,1.3,2.67,2.24l0.93,1.16c0.91,1.14,1.5,2.4,1.76,3.77c0.26,1.37,0.22,2.72-0.14,4.05
		l3.59-0.37l0.75,0.94l-8.16,6.53c-0.94,0.75-1.97,1.28-3.1,1.59c-1.12,0.31-2.25,0.4-3.37,0.28c-1.12-0.13-2.2-0.46-3.22-1.01
		c-1.03-0.55-1.92-1.3-2.67-2.24l-3.25-4.06c-0.26-0.32-0.56-0.57-0.92-0.76c-0.36-0.18-0.73-0.3-1.13-0.35
		c-0.39-0.05-0.78-0.01-1.17,0.1c-0.39,0.12-0.75,0.3-1.07,0.56c-0.32,0.26-0.57,0.56-0.76,0.92c-0.19,0.35-0.31,0.72-0.35,1.12
		c-0.04,0.4-0.01,0.79,0.1,1.17c0.11,0.39,0.29,0.75,0.55,1.06l3.06,3.83c0.75,0.94,1.31,1.95,1.67,3.04
		c0.36,1.08,0.5,2.17,0.44,3.24c-0.06,1.07-0.35,2.1-0.85,3.1c-0.5,0.99-1.23,1.86-2.17,2.61l-0.09,0.07
		C61.28,320.24,60.27,320.75,59.2,321.03z M60.32,316.63c0.56-0.45,0.98-0.96,1.26-1.53c0.28-0.58,0.42-1.16,0.43-1.77
		c0.02-0.61-0.09-1.22-0.32-1.85c-0.23-0.63-0.57-1.22-1.02-1.79l-1.15-1.43c-0.45-0.57-0.96-1.02-1.52-1.38
		c-0.56-0.36-1.14-0.6-1.74-0.72c-0.6-0.12-1.2-0.11-1.82,0.04c-0.62,0.15-1.21,0.44-1.77,0.89l-0.37,0.29
		c-0.56,0.45-0.98,0.96-1.25,1.52c-0.27,0.57-0.42,1.16-0.44,1.77c-0.02,0.62,0.08,1.24,0.31,1.86c0.23,0.62,0.57,1.22,1.02,1.78
		l1.15,1.44c0.45,0.56,0.95,1.02,1.52,1.38c0.56,0.36,1.15,0.6,1.75,0.71c0.6,0.11,1.21,0.1,1.82-0.04c0.61-0.14,1.2-0.44,1.76-0.89
		L60.32,316.63z M80.23,300.89c0.56-0.45,1-0.98,1.33-1.59c0.32-0.61,0.52-1.24,0.58-1.91c0.07-0.66,0.01-1.33-0.17-1.99
		c-0.18-0.66-0.5-1.28-0.95-1.84l-1.86-2.33c-0.45-0.56-0.98-1.01-1.59-1.33c-0.61-0.32-1.24-0.52-1.9-0.59
		c-0.65-0.08-1.32-0.02-1.98,0.16c-0.66,0.18-1.28,0.5-1.84,0.95l-2.08,1.66c-0.56,0.45-1,0.98-1.33,1.59
		c-0.32,0.61-0.52,1.24-0.6,1.9c-0.07,0.66-0.02,1.32,0.16,1.98c0.18,0.67,0.5,1.28,0.95,1.84l1.86,2.33
		c0.45,0.56,0.98,1.01,1.59,1.33c0.61,0.32,1.24,0.53,1.91,0.61c0.66,0.08,1.33,0.03,1.99-0.15c0.66-0.18,1.28-0.5,1.84-0.95
		L80.23,300.89z"/>
	<path class="st0" d="M91.02,334.57c-1.05,0.51-2.14,0.8-3.26,0.89c-1.13,0.08-2.25-0.06-3.35-0.41c-1.11-0.36-2.12-0.93-3.03-1.72
		l-1.81-1.57c-0.91-0.79-1.62-1.71-2.13-2.76c-0.51-1.05-0.8-2.13-0.88-3.26c-0.08-1.13,0.06-2.24,0.41-3.35
		c0.35-1.11,0.93-2.12,1.72-3.03l8.84-10.2c0.79-0.91,1.71-1.62,2.76-2.13c1.05-0.51,2.13-0.81,3.26-0.89
		c1.13-0.08,2.24,0.06,3.35,0.41c1.11,0.36,2.12,0.93,3.03,1.72l1.81,1.57c0.91,0.79,1.62,1.71,2.13,2.76
		c0.51,1.05,0.81,2.13,0.89,3.26c0.08,1.13-0.06,2.24-0.41,3.35c-0.36,1.11-0.93,2.12-1.72,3.03L98,327.56l-12.38-10.73l-4.36,5.03
		c-0.47,0.55-0.81,1.15-1.02,1.8c-0.21,0.66-0.29,1.32-0.24,1.98s0.22,1.3,0.52,1.92c0.3,0.62,0.72,1.16,1.26,1.64l1.81,1.57
		c0.54,0.47,1.14,0.81,1.8,1.02c0.66,0.21,1.32,0.29,1.97,0.24c0.66-0.04,1.3-0.22,1.92-0.52c0.62-0.3,1.17-0.72,1.64-1.27l1.3-1.5
		l2.33,2.79l-0.78,0.91C92.98,333.35,92.07,334.06,91.02,334.57z M100.03,319.73c0.47-0.54,0.81-1.15,1.02-1.8
		c0.21-0.66,0.29-1.31,0.24-1.97c-0.05-0.66-0.22-1.3-0.52-1.92c-0.3-0.62-0.72-1.17-1.26-1.64l-1.81-1.57
		c-0.54-0.48-1.15-0.81-1.8-1.02c-0.66-0.21-1.31-0.29-1.97-0.24c-0.66,0.05-1.3,0.22-1.92,0.52c-0.62,0.3-1.17,0.72-1.64,1.27
		l-2.91,3.36l9.67,8.38L100.03,319.73z"/>
	<path class="st0" d="M112.21,353.91l11.11-18.87c0.37-0.62,0.59-1.27,0.68-1.95c0.09-0.68,0.05-1.34-0.12-1.99
		c-0.17-0.64-0.45-1.24-0.86-1.79c-0.41-0.56-0.92-1.02-1.54-1.38l-2.06-1.22c-0.62-0.36-1.27-0.59-1.96-0.68
		c-0.68-0.09-1.35-0.04-1.99,0.12c-0.64,0.17-1.24,0.45-1.79,0.86c-0.56,0.4-1.02,0.92-1.38,1.54l-11.11,18.87l-3.09-1.82
		l15.17-25.77l1.03,0.61l0.14,3.61c1.27-0.54,2.6-0.78,4-0.71c1.4,0.07,2.72,0.47,3.98,1.21l0.78,0.45c1.04,0.62,1.91,1.39,2.6,2.33
		c0.69,0.94,1.18,1.95,1.46,3.05c0.28,1.09,0.35,2.22,0.2,3.37c-0.15,1.16-0.53,2.26-1.14,3.29l-11.01,18.7L112.21,353.91z"/>
	<path class="st0" d="M145.88,362.92c-0.8,0.85-1.71,1.52-2.73,1.99c-1.02,0.48-2.11,0.75-3.28,0.81c-1.16,0.06-2.31-0.11-3.45-0.52
		l-2.25-0.82c-1.13-0.41-2.13-1.02-2.98-1.82c-0.85-0.79-1.52-1.7-1.99-2.73c-0.48-1.02-0.75-2.12-0.81-3.28
		c-0.07-1.16,0.11-2.31,0.52-3.44l4.61-12.68c0.41-1.14,1.02-2.13,1.81-2.98c0.8-0.85,1.71-1.51,2.73-1.99
		c1.02-0.48,2.12-0.75,3.28-0.81c1.16-0.06,2.31,0.11,3.45,0.53l2.25,0.82c1.14,0.41,2.13,1.02,2.98,1.81
		c0.85,0.8,1.51,1.71,1.99,2.72c0.47,1.02,0.75,2.12,0.81,3.28c0.07,1.16-0.11,2.31-0.52,3.45l-0.41,1.13l-3.58-0.68l0.68-1.87
		c0.24-0.67,0.35-1.36,0.31-2.04c-0.04-0.69-0.2-1.33-0.48-1.93c-0.28-0.6-0.67-1.14-1.17-1.6c-0.5-0.48-1.09-0.84-1.77-1.08
		l-2.25-0.82c-0.68-0.25-1.36-0.35-2.05-0.31c-0.69,0.04-1.33,0.2-1.93,0.48c-0.6,0.27-1.13,0.67-1.61,1.17
		c-0.47,0.5-0.83,1.08-1.08,1.76l-4.75,13.07c-0.24,0.68-0.35,1.36-0.31,2.04c0.04,0.69,0.2,1.33,0.48,1.93
		c0.28,0.6,0.67,1.14,1.17,1.61c0.5,0.47,1.09,0.83,1.77,1.08l2.25,0.82c0.68,0.25,1.36,0.35,2.05,0.31
		c0.69-0.04,1.33-0.2,1.93-0.48c0.6-0.28,1.13-0.67,1.61-1.17c0.47-0.5,0.83-1.09,1.08-1.77l0.68-1.86l3.18,1.77l-0.41,1.13
		C147.28,361.08,146.68,362.07,145.88,362.92z"/>
	<path class="st0" d="M158.93,383.18l-3.42-0.61l7.78-13.38l-4.76-28.62l3.54,0.63l3.7,23.69l-0.15,1.54l0.38-1.51l11.62-20.95
		l3.54,0.63L158.93,383.18z"/>
</g>
<g>
	<path class="st0" d="M297.84,68.6c-1.1-1.21-5.05-3.82-6.5-4.56c-1.45-0.74-1-1.88-0.67-2.47c0.33-0.59,0,0,0,0
		c0.33-0.59,1.46-1.44,2.79-0.57c1.33,0.87,5.32,3.44,6.52,4.57c1.2,1.13,0.97,2.05,0.6,2.69c-0.37,0.63,0,0,0,0
		C300.21,68.89,298.94,69.81,297.84,68.6z"/>
</g>
</svg>
