<?xml version="1.0" encoding="utf-8"?>
<!-- Generator: Adobe Illustrator 24.2.1, SVG Export Plug-In . SVG Version: 6.00 Build 0)  -->
<svg version="1.1" id="Layer_1" xmlns="http://www.w3.org/2000/svg" xmlns:xlink="http://www.w3.org/1999/xlink" x="0px" y="0px"
	 viewBox="0 0 300 300" style="enable-background:new 0 0 300 300;" xml:space="preserve">
<style type="text/css">
	.st0{fill:#FFFFFF;}
	.st1{fill:#00AEEF;}
	.st2{fill:#04323B;}
	.st3{opacity:0.41;}
	.st4{font-family:'FloodStd';}
	.st5{font-size:34.0641px;}
</style>
<rect class="st0" width="300" height="300"/>
<path class="st1" d="M259.59,135.91c-2.61-7.21-7.75-15.76-7.75-15.76s-5.13,8.55-7.75,15.76H0V300h300V135.91H259.59z"/>
<g>
	<g>
		<polygon class="st2" points="203.83,82.47 203.83,85.04 203.83,104.57 203.83,107.14 212.17,107.14 212.17,104.64 212.17,85.33 
			212.17,82.47 		"/>
		<polygon class="st2" points="58.7,68.85 61.48,68.85 61.48,60.52 58.7,60.52 39.4,60.52 36.81,60.52 36.81,68.85 39.4,68.85 		"/>
		<path class="st2" d="M58.7,70.22H39.4v18.91c0,8.52,6.93,15.44,15.44,15.44h1.47h25.8h120.35V85.04H58.7V70.22z"/>
		<rect x="39.4" class="st2" width="19.31" height="59.15"/>
	</g>
	<g>
		<path class="st2" d="M75.32,80.59c-0.49,0.7-1.18,1.23-2.05,1.58c-0.88,0.35-1.9,0.52-3.07,0.52c-1.18,0-2.23-0.28-3.14-0.83
			c-0.91-0.55-1.62-1.34-2.12-2.36c-0.5-1.02-0.76-2.2-0.77-3.55v-1.26c0-2.18,0.51-3.87,1.53-5.07c1.02-1.2,2.45-1.8,4.29-1.8
			c1.51,0,2.73,0.39,3.65,1.16c0.92,0.77,1.48,1.87,1.69,3.29h-1.91c-0.36-1.92-1.5-2.88-3.42-2.88c-1.28,0-2.25,0.45-2.91,1.35
			c-0.66,0.9-0.99,2.2-1,3.91v1.18c0,1.63,0.37,2.92,1.11,3.88c0.74,0.96,1.75,1.44,3.01,1.44c0.72,0,1.34-0.08,1.88-0.24
			c0.54-0.16,0.98-0.43,1.33-0.8v-3.24h-3.35v-1.56h5.25V80.59z"/>
		<path class="st2" d="M86.69,75.79h-6.28v5.13h7.29v1.56h-9.2V68.01h9.1v1.56h-7.19v4.66h6.28V75.79z"/>
		<path class="st2" d="M101.22,75.71c0,1.42-0.24,2.66-0.72,3.71c-0.48,1.06-1.15,1.86-2.03,2.42s-1.9,0.84-3.06,0.84
			c-1.14,0-2.15-0.28-3.03-0.84c-0.88-0.56-1.57-1.36-2.05-2.4c-0.49-1.04-0.74-2.24-0.75-3.6V74.8c0-1.39,0.24-2.62,0.73-3.69
			c0.48-1.07,1.17-1.88,2.05-2.45c0.89-0.57,1.9-0.85,3.04-0.85c1.16,0,2.18,0.28,3.07,0.84c0.89,0.56,1.57,1.37,2.04,2.44
			c0.48,1.06,0.72,2.3,0.72,3.71V75.71z M99.32,74.78c0-1.72-0.34-3.03-1.03-3.95c-0.69-0.92-1.65-1.38-2.89-1.38
			c-1.21,0-2.16,0.46-2.85,1.38c-0.69,0.92-1.05,2.19-1.07,3.82v1.06c0,1.66,0.35,2.97,1.05,3.92c0.7,0.95,1.66,1.43,2.89,1.43
			c1.23,0,2.19-0.45,2.86-1.35c0.68-0.9,1.02-2.19,1.04-3.86V74.78z"/>
		<path class="st2" d="M109.4,76.63h-3.4v5.86h-1.92V68.01h4.79c1.63,0,2.89,0.37,3.76,1.11c0.88,0.74,1.32,1.82,1.32,3.24
			c0,0.9-0.24,1.69-0.73,2.36c-0.49,0.67-1.17,1.17-2.03,1.5l3.4,6.15v0.12h-2.05L109.4,76.63z M105.99,75.07h2.93
			c0.95,0,1.7-0.25,2.26-0.74c0.56-0.49,0.84-1.15,0.84-1.97c0-0.9-0.27-1.58-0.8-2.06c-0.53-0.48-1.3-0.72-2.31-0.73h-2.92V75.07z"
			/>
		<path class="st2" d="M127.32,80.59c-0.49,0.7-1.18,1.23-2.05,1.58c-0.88,0.35-1.9,0.52-3.07,0.52c-1.18,0-2.23-0.28-3.14-0.83
			c-0.91-0.55-1.62-1.34-2.12-2.36c-0.5-1.02-0.76-2.2-0.77-3.55v-1.26c0-2.18,0.51-3.87,1.53-5.07c1.02-1.2,2.45-1.8,4.29-1.8
			c1.51,0,2.73,0.39,3.65,1.16c0.92,0.77,1.48,1.87,1.69,3.29h-1.91c-0.36-1.92-1.5-2.88-3.42-2.88c-1.28,0-2.25,0.45-2.91,1.35
			c-0.66,0.9-0.99,2.2-1,3.91v1.18c0,1.63,0.37,2.92,1.11,3.88c0.74,0.96,1.75,1.44,3.01,1.44c0.72,0,1.34-0.08,1.88-0.24
			c0.54-0.16,0.98-0.43,1.33-0.8v-3.24h-3.35v-1.56h5.25V80.59z"/>
		<path class="st2" d="M132.55,82.49h-1.91V68.01h1.91V82.49z"/>
		<path class="st2" d="M144.03,78.7h-6.07l-1.36,3.79h-1.97l5.53-14.48h1.67l5.54,14.48h-1.96L144.03,78.7z M138.54,77.14h4.92
			L141,70.36L138.54,77.14z"/>
	</g>
	<g>
		<path class="st0" d="M64.45,91.91l0.39-3.81h3.77v1.34h-2.56l-0.15,1.48c0.11-0.07,0.25-0.14,0.42-0.19
			c0.17-0.05,0.34-0.08,0.51-0.08c0.64,0,1.13,0.22,1.48,0.66c0.34,0.44,0.52,1.05,0.52,1.84c0,0.48-0.09,0.91-0.28,1.3
			c-0.18,0.39-0.44,0.68-0.78,0.89c-0.33,0.21-0.73,0.31-1.18,0.31c-0.4,0-0.78-0.1-1.14-0.29c-0.35-0.19-0.63-0.46-0.83-0.79
			c-0.2-0.34-0.3-0.71-0.3-1.14h1.5c0.01,0.27,0.09,0.49,0.23,0.65c0.14,0.16,0.31,0.24,0.54,0.24c0.5,0,0.75-0.43,0.75-1.29
			c0-0.79-0.31-1.19-0.92-1.19c-0.35,0-0.61,0.13-0.78,0.39L64.45,91.91z"/>
		<path class="st0" d="M73.03,93.56c0-0.26-0.08-0.47-0.24-0.61c-0.16-0.15-0.44-0.3-0.85-0.46c-0.4-0.16-0.74-0.31-0.99-0.46
			c-0.84-0.47-1.25-1.12-1.25-1.95c0-0.41,0.1-0.78,0.31-1.09c0.21-0.32,0.5-0.56,0.88-0.74C71.27,88.08,71.7,88,72.18,88
			c0.46,0,0.88,0.1,1.25,0.29c0.37,0.19,0.65,0.46,0.86,0.82c0.2,0.35,0.31,0.76,0.31,1.21h-1.55c0-0.3-0.08-0.54-0.24-0.71
			c-0.16-0.17-0.38-0.25-0.65-0.25c-0.28,0-0.5,0.07-0.66,0.21c-0.16,0.14-0.24,0.32-0.24,0.54c0,0.19,0.09,0.36,0.27,0.52
			c0.18,0.16,0.49,0.32,0.93,0.48c0.45,0.17,0.81,0.34,1.1,0.53c0.7,0.46,1.05,1.1,1.05,1.92c0,0.65-0.21,1.16-0.64,1.53
			c-0.43,0.37-1.01,0.56-1.75,0.56c-0.52,0-1-0.11-1.42-0.32c-0.42-0.22-0.74-0.51-0.96-0.89c-0.21-0.38-0.32-0.81-0.32-1.3h1.56
			c0,0.4,0.09,0.69,0.27,0.88c0.18,0.19,0.47,0.28,0.87,0.28c0.26,0,0.46-0.06,0.61-0.19C72.96,93.98,73.03,93.8,73.03,93.56z"/>
		<path class="st0" d="M80.44,89.48h-1.94v6.06h-1.55v-6.06h-1.9V88.1h5.39V89.48z"/>
		<path class="st0" d="M84.23,94.15H82.1l-0.37,1.39h-1.66l2.36-7.44h1.46l2.38,7.44h-1.67L84.23,94.15z M82.47,92.77h1.39
			l-0.7-2.58L82.47,92.77z"/>
		<path class="st0" d="M89.14,92.91H88.3v2.63h-1.55V88.1h2.54c0.76,0,1.36,0.2,1.79,0.59c0.43,0.39,0.65,0.94,0.65,1.66
			c0,0.52-0.09,0.95-0.27,1.29c-0.18,0.34-0.47,0.62-0.85,0.83l1.35,3.01v0.08h-1.66L89.14,92.91z M88.3,91.53h0.98
			c0.3,0,0.52-0.09,0.67-0.27c0.15-0.18,0.22-0.43,0.22-0.75c0-0.32-0.08-0.57-0.23-0.76c-0.15-0.18-0.37-0.27-0.66-0.27H88.3V91.53
			z"/>
	</g>
	<polygon class="st0" points="66.54,97.25 67.34,98.87 69.12,99.12 67.83,100.38 68.14,102.15 66.54,101.32 64.95,102.15 
		65.26,100.38 63.97,99.12 65.75,98.87 	"/>
	<polygon class="st0" points="72.09,97.25 72.89,98.87 74.67,99.12 73.38,100.38 73.68,102.15 72.09,101.32 70.5,102.15 
		70.8,100.38 69.52,99.12 71.3,98.87 	"/>
	<polygon class="st0" points="77.64,97.25 78.44,98.87 80.22,99.12 78.93,100.38 79.23,102.15 77.64,101.32 76.05,102.15 
		76.35,100.38 75.06,99.12 76.84,98.87 	"/>
	<polygon class="st0" points="83.19,97.25 83.98,98.87 85.76,99.12 84.48,100.38 84.78,102.15 83.19,101.32 81.59,102.15 
		81.9,100.38 80.61,99.12 82.39,98.87 	"/>
	<polygon class="st0" points="88.73,97.25 89.53,98.87 91.31,99.12 90.02,100.38 90.33,102.15 88.73,101.32 87.14,102.15 
		87.45,100.38 86.16,99.12 87.94,98.87 	"/>
	<g>
		<g>
			<path class="st0" d="M100.65,96.84v4.67h-3.32V87.74h5.5c1.05,0,1.99,0.19,2.8,0.58c0.81,0.39,1.44,0.94,1.88,1.66
				c0.44,0.72,0.67,1.53,0.67,2.44c0,1.34-0.48,2.42-1.44,3.22c-0.96,0.8-2.28,1.21-3.96,1.21H100.65z M100.65,94.28h2.18
				c0.64,0,1.13-0.16,1.47-0.48c0.34-0.32,0.51-0.78,0.51-1.36c0-0.64-0.17-1.16-0.52-1.54c-0.35-0.38-0.82-0.58-1.42-0.59h-2.21
				V94.28z"/>
			<path class="st0" d="M113.26,98.96h5.78v2.55h-9.1V87.74h3.32V98.96z"/>
			<path class="st0" d="M131.02,87.74v9.02c0,1.02-0.22,1.91-0.65,2.65c-0.44,0.75-1.06,1.32-1.87,1.71
				c-0.81,0.39-1.78,0.59-2.89,0.59c-1.68,0-3-0.44-3.96-1.31c-0.97-0.87-1.46-2.06-1.48-3.58v-9.08h3.34v9.15
				c0.04,1.51,0.74,2.26,2.1,2.26c0.69,0,1.21-0.19,1.56-0.57c0.35-0.38,0.53-0.99,0.53-1.84v-9H131.02z"/>
			<path class="st0" d="M137.45,87.74l3.07,9.58l3.07-9.58h4.37v13.78h-3.33V98.3l0.32-6.59l-3.33,9.8h-2.2l-3.34-9.81l0.32,6.59
				v3.22h-3.32V87.74H137.45z"/>
			<path class="st0" d="M150.08,101.51V87.74h4.95c1.77,0,3.12,0.32,4.04,0.97c0.92,0.65,1.39,1.59,1.39,2.83
				c0,0.71-0.16,1.32-0.49,1.83c-0.33,0.5-0.81,0.88-1.45,1.12c0.72,0.19,1.27,0.54,1.66,1.06c0.38,0.52,0.58,1.15,0.58,1.89
				c0,1.35-0.43,2.36-1.28,3.04c-0.85,0.68-2.12,1.02-3.8,1.04H150.08z M153.4,93.48h1.73c0.73-0.01,1.24-0.14,1.55-0.4
				c0.31-0.26,0.46-0.64,0.46-1.15c0-0.58-0.17-1-0.5-1.26c-0.33-0.26-0.87-0.38-1.62-0.38h-1.63V93.48z M153.4,95.66v3.3h2.18
				c0.6,0,1.06-0.14,1.38-0.41c0.32-0.27,0.48-0.66,0.48-1.16c0-1.15-0.57-1.73-1.71-1.73H153.4z"/>
			<path class="st0" d="M166.11,101.51h-3.31V87.74h3.31V101.51z"/>
			<path class="st0" d="M179.93,101.51h-3.3l-4.88-8.57v8.57h-3.32V87.74h3.32l4.87,8.57v-8.57h3.31V101.51z"/>
			<path class="st0" d="M193.3,99.81c-0.51,0.57-1.26,1.03-2.24,1.37c-0.98,0.35-2.06,0.52-3.24,0.52c-1.8,0-3.25-0.55-4.32-1.66
				s-1.66-2.64-1.73-4.61l-0.01-1.19c0-1.36,0.24-2.54,0.72-3.55c0.48-1.01,1.17-1.79,2.06-2.34c0.89-0.55,1.93-0.82,3.1-0.82
				c1.72,0,3.05,0.39,4,1.18c0.95,0.79,1.5,1.96,1.66,3.51h-3.2c-0.11-0.77-0.36-1.32-0.74-1.65c-0.38-0.33-0.91-0.49-1.61-0.49
				c-0.83,0-1.48,0.35-1.93,1.06c-0.45,0.71-0.68,1.72-0.69,3.03v0.83c0,1.38,0.23,2.41,0.7,3.1c0.47,0.69,1.21,1.04,2.22,1.04
				c0.86,0,1.51-0.19,1.93-0.58v-2.14h-2.31v-2.28h5.63V99.81z"/>
		</g>
	</g>
	<g>
		<rect x="238.52" y="114.76" class="st2" width="24.67" height="8.89"/>
		<path class="st2" d="M241.54,104.64v8.79h19.31v-12.65c0-8.52-6.93-15.44-15.44-15.44h-6.96v-2.46h-6.76v-5.46h8.54
			c0.36,0.38,0.88,0.63,1.44,0.63h4.8c1.07,0,1.96-0.88,1.96-1.96v-1.13c0-1.08-0.88-1.96-1.96-1.96h-4.8
			c-0.56,0-1.07,0.24-1.43,0.62h-8.57c-0.44-3.64-5.74-3.64-6.19,0h-8.73c-0.36-0.38-0.87-0.62-1.43-0.62h-4.8
			c-1.08,0-1.96,0.9-1.96,1.96v1.12c0,1.06,0.9,1.96,1.96,1.96h4.8c0.55,0,1.07-0.24,1.43-0.62h8.71v5.46h-6.92v2.46h-5v19.31h5
			v2.51h19.91v-2.51H241.54z"/>
	</g>
</g>
<text transform="matrix(0.9851 -0.172 0.172 0.9851 66.5773 230.635)" class="st3"><tspan x="0" y="0" class="st0 st4 st5">we fix</tspan><tspan x="0" y="28.76" class="st0 st4 st5">any leak</tspan></text>
</svg>
