<?xml version="1.0" encoding="utf-8"?>
<!-- Generator: Adobe Illustrator 24.2.1, SVG Export Plug-In . SVG Version: 6.00 Build 0)  -->
<svg version="1.1" id="Layer_1" xmlns="http://www.w3.org/2000/svg" xmlns:xlink="http://www.w3.org/1999/xlink" x="0px" y="0px"
	 viewBox="0 0 300 300" style="enable-background:new 0 0 300 300;" xml:space="preserve">
<style type="text/css">
	.st0{fill:#B8DCA6;}
	.st1{fill:#FFFFFF;}
	.st2{fill:#85A35B;}
	.st3{fill:#E2EBAC;}
	.st4{fill:#5F366E;}
	.st5{font-family:'SamanthaUprightBold';}
	.st6{font-size:67.7124px;}
</style>
<rect class="st0" width="300" height="300"/>
<g>
	<path class="st1" d="M105.2,261.12l-0.59-3.22h-3.32l-0.59,3.22h-1.55l3.1-15.69h1.36l3.13,15.69H105.2z M103.34,251.1
		c-0.24-1.22-0.38-2.45-0.45-3.69c-0.21,3.1-0.82,6.16-1.36,9.22h2.85L103.34,251.1z"/>
	<path class="st1" d="M112.78,261.12v-15.69h4.89v1.34h-3.43v5.53h3.34v1.34h-3.34v6.14h3.43v1.34H112.78z"/>
	<path class="st1" d="M129.8,247.9c-0.64-0.75-1.29-1.27-2.33-1.27c-1.43,0-2.26,1.22-2.26,2.56c0,3.62,5.36,3.39,5.36,7.74
		c0,2.26-1.53,4.42-3.93,4.42c-0.89,0-1.76-0.31-2.47-0.82v-1.88c0.68,0.71,1.51,1.27,2.54,1.27c1.53,0,2.38-1.39,2.38-2.8
		c0-3.6-5.36-3.34-5.36-7.74c0-2.14,1.32-4.16,3.62-4.16c0.94,0,1.69,0.31,2.45,0.85V247.9z"/>
	<path class="st1" d="M139.21,246.77v14.35h-1.46v-14.35h-2.35v-1.34h6.16v1.34H139.21z"/>
	<path class="st1" d="M152.64,261.12v-8.09h-3.57v8.09h-1.46v-15.69h1.46v6.26h3.57v-6.26h1.46v15.69H152.64z"/>
	<path class="st1" d="M161.37,261.12v-15.69h4.89v1.34h-3.43v5.53h3.34v1.34h-3.34v6.14h3.43v1.34H161.37z"/>
	<path class="st1" d="M175.93,246.77v14.35h-1.46v-14.35h-2.35v-1.34h6.16v1.34H175.93z"/>
	<path class="st1" d="M184.33,261.12v-15.69h1.46v15.69H184.33z"/>
	<path class="st1" d="M198.86,260.67c-0.61,0.4-1.32,0.66-2.05,0.66c-1.13,0-2.16-0.63-2.82-1.53c-1.2-1.65-1.34-4.16-1.34-6.11
		c0-2.89,0.33-8.47,4.33-8.47c0.66,0,1.32,0.14,1.88,0.49v1.6c-0.54-0.35-1.13-0.68-1.81-0.68c-2.82,0-2.92,4.61-2.92,6.59
		c0,1.53,0.16,4.49,1.03,5.74c0.42,0.61,1.01,0.96,1.76,0.96c0.71,0,1.36-0.33,1.93-0.71V260.67z"/>
	<path class="st1" d="M210.53,247.9c-0.63-0.75-1.29-1.27-2.33-1.27c-1.43,0-2.26,1.22-2.26,2.56c0,3.62,5.36,3.39,5.36,7.74
		c0,2.26-1.53,4.42-3.93,4.42c-0.89,0-1.76-0.31-2.47-0.82v-1.88c0.68,0.71,1.51,1.27,2.54,1.27c1.53,0,2.38-1.39,2.38-2.8
		c0-3.6-5.36-3.34-5.36-7.74c0-2.14,1.32-4.16,3.62-4.16c0.94,0,1.69,0.31,2.45,0.85V247.9z"/>
</g>
<g>
	<path class="st0" d="M176.42,168.58l-2.4-0.48c-24.03-4.79-44.69-18.67-58.19-39.08c-13.5-20.41-18.17-44.86-13.16-68.85l0.5-2.4
		l2.4,0.48c24.03,4.79,44.69,18.67,58.19,39.08c13.49,20.41,18.17,44.86,13.16,68.85L176.42,168.58z"/>
	<path class="st0" d="M142.15,170.11l-0.63-2.27c-6.32-22.73-3.37-46.51,8.3-66.98c11.68-20.46,30.66-35.1,53.44-41.22l2.28-0.61
		l0.63,2.27c6.32,22.73,3.37,46.51-8.3,66.98c-11.68,20.46-30.66,35.1-53.44,41.22L142.15,170.11z"/>
	<path class="st2" d="M142.01,169.93l-0.66-2.36c-6.57-23.6-3.51-48.31,8.62-69.56c12.13-21.25,31.84-36.46,55.5-42.81l2.37-0.63
		l0.66,2.36c6.57,23.6,3.51,48.31-8.62,69.56c-12.13,21.25-31.84,36.46-55.5,42.81L142.01,169.93z M204.37,60.65
		c-21.32,6.37-39.04,20.43-50.1,39.81s-14.15,41.8-8.79,63.39c21.32-6.37,39.04-20.43,50.1-39.81
		C206.64,104.66,209.73,82.24,204.37,60.65z"/>
	<path class="st2" d="M168.46,169.93l-2.37-0.63c-23.66-6.35-43.38-21.55-55.51-42.81s-15.19-45.96-8.62-69.56l0.66-2.36l2.37,0.63
		c23.66,6.35,43.38,21.55,55.5,42.81c12.13,21.25,15.19,45.96,8.62,69.56L168.46,169.93z M106.09,60.65
		c-5.36,21.59-2.27,44.01,8.79,63.39c11.06,19.38,28.79,33.44,50.1,39.81c5.36-21.59,2.27-44.01-8.79-63.39
		C145.14,81.08,127.41,67.02,106.09,60.65z"/>
	<g>
		<path class="st3" d="M66.62,82.87c0.09,48.87,39.72,88.45,88.61,88.45c1.11,0,2.18-0.13,3.27-0.17
			c-0.09-48.87-39.72-88.45-88.61-88.45C68.79,82.71,67.72,82.83,66.62,82.87z"/>
		<path class="st2" d="M155.23,173.8c-50.13,0-90.99-40.79-91.08-90.92l0-2.39l2.39-0.09c0.42-0.02,0.83-0.04,1.25-0.07
			c0.68-0.05,1.38-0.09,2.12-0.09c50.13,0,90.99,40.79,91.08,90.92l0,2.39l-2.39,0.09c-0.42,0.02-0.83,0.04-1.25,0.07
			C156.67,173.75,155.97,173.8,155.23,173.8z M69.13,85.2c1.32,46.34,39.47,83.65,86.1,83.65c0.25,0,0.51-0.01,0.77-0.02
			c-1.32-46.34-39.47-83.65-86.1-83.65C69.64,85.18,69.39,85.19,69.13,85.2z"/>
	</g>
	<g>
		<path class="st3" d="M243.84,82.87c-0.09,48.87-39.72,88.45-88.61,88.45c-1.11,0-2.85-9.91-2.07-14.61
			c6.97-41.99,43.45-74,87.41-74C241.67,82.71,242.75,82.83,243.84,82.87z"/>
		<path class="st2" d="M155.23,173.8c-0.82,0-1.58-0.37-2.14-1.03c-1.88-2.22-3.09-12.11-2.37-16.46
			c3.49-21.03,14.38-40.29,30.66-54.22c16.47-14.09,37.48-21.85,59.19-21.85c0.74,0,1.44,0.05,2.12,0.09
			c0.42,0.03,0.83,0.06,1.25,0.07l2.39,0.09l0,2.39C246.22,133.01,205.36,173.8,155.23,173.8z M240.57,85.18
			c-20.52,0-40.4,7.34-55.97,20.66c-15.4,13.18-25.7,31.39-29,51.28c-0.55,3.31,0.35,9.32,1.05,11.73
			c45.99-0.74,83.38-37.77,84.69-83.64C241.07,85.19,240.82,85.18,240.57,85.18z"/>
	</g>
	<path class="st3" d="M128.97,109.21c0,24.62,10.05,39.82,26.26,55.88c16.21-16.06,26.26-31.26,26.26-55.88
		s-10.05-46.88-26.26-62.94C139.03,62.33,128.97,84.59,128.97,109.21z"/>
	<path class="st2" d="M155.05,171.02c2.63-2.6,6.01-5.38,8.32-8.27c-1.47-1.72-2.59-3.17-3.14-4.06c-2.12-3.45-3.28-7.01-3.15-11.09
		c0.16-4.75,0.14-9.48,1.43-14.12c0.75-2.71,2.38-4.44,4.97-5.52c3.07-1.27,6.09-2.7,9.07-4.2c3.19-1.61,3.96-4.76,2.08-7.8
		c-0.41-0.66-0.9-1.34-1.27-1.99c0,0-0.03-0.02-0.05-0.06c-0.05-0.09-0.09-0.16-0.14-0.25c-0.08-0.17-0.16-0.36-0.24-0.57
		c-0.21-1.04,0.68-1.57,0.5-2.78c-0.2-1.3-1.1-1.82-1.37-1.95c-0.01-0.01-0.02-0.02-0.04-0.04c0-0.02,0-0.04,0.01-0.06
		c1.28-1.5,0.32-3.04,0.32-3.04c-0.35-0.11-0.71-0.15-0.99-0.33c-2.54-1.54-2.93-2.91-1.65-5.56c0.33-0.68,0.66-1.36,0.9-2.06
		c0.6-1.73,0.26-2.44-1.5-3.03c-1.26-0.43-2.59-0.68-3.84-1.14c-3.56-1.31-6.73-3.19-8.97-6.23c0.73-2.15,0.73-2.15,0.07-3.31
		c-0.32,0.51-0.61,0.98-1.08,1.73c-0.28-1.53-0.35-2.73-0.74-3.81c-0.38-1.05-0.87-2.33-1.72-2.89c-3.09-2.05-5.15-4.92-7.13-7.93
		c-1.46-2.23-3-4.47-5.33-5.89c-1.05-0.64-1.5-0.76-2.65-1.23c-6.07,12.1-10.25,24.95-10.25,39.43c0,9.87,0.33,19.9,2.97,28.85
		C134.84,146.73,144.22,160.29,155.05,171.02z"/>
	<path class="st2" d="M155.23,172.1l-1.74-1.72c-17.4-17.25-26.99-40.22-26.99-64.69c0-24.47,9.58-47.45,26.99-64.69l1.74-1.72
		l1.74,1.72c17.4,17.25,26.99,40.22,26.99,64.69c0,24.47-9.59,47.45-26.99,64.69L155.23,172.1z M155.23,46.28
		c-15.36,16.1-23.79,37.09-23.79,59.41c0,22.31,8.43,43.31,23.79,59.41c15.36-16.1,23.79-37.09,23.79-59.41
		C179.02,83.37,170.59,62.37,155.23,46.28z"/>
</g>
<text transform="matrix(1 0 0 1 61.4875 230.8892)" class="st4 st5 st6">Lotus Leaf</text>
</svg>
