<?xml version="1.0" encoding="utf-8"?>
<!-- Generator: Adobe Illustrator 24.2.1, SVG Export Plug-In . SVG Version: 6.00 Build 0)  -->
<svg version="1.1" id="Layer_1" xmlns="http://www.w3.org/2000/svg" xmlns:xlink="http://www.w3.org/1999/xlink" x="0px" y="0px"
	 viewBox="0 0 300 300" style="enable-background:new 0 0 300 300;" xml:space="preserve">
<style type="text/css">
	.st0{fill:#B8DCA6;}
	.st1{fill:#FFFFFF;}
	.st2{fill:#85A35B;}
	.st3{fill:#E2EBAC;}
	.st4{enable-background:new    ;}
	.st5{fill:#5F366E;}
</style>
<rect class="st0" width="300" height="300"/>
<g>
	<path class="st1" d="M105.2,261.12l-0.59-3.22h-3.32l-0.59,3.22h-1.55l3.1-15.69h1.36l3.13,15.69H105.2z M103.34,251.1
		c-0.24-1.22-0.38-2.45-0.45-3.69c-0.21,3.1-0.82,6.16-1.36,9.22h2.85L103.34,251.1z"/>
	<path class="st1" d="M112.78,261.12v-15.69h4.89v1.34h-3.43v5.53h3.34v1.34h-3.34v6.14h3.43v1.34H112.78z"/>
	<path class="st1" d="M129.8,247.9c-0.64-0.75-1.29-1.27-2.33-1.27c-1.43,0-2.26,1.22-2.26,2.56c0,3.62,5.36,3.39,5.36,7.74
		c0,2.26-1.53,4.42-3.93,4.42c-0.89,0-1.76-0.31-2.47-0.82v-1.88c0.68,0.71,1.51,1.27,2.54,1.27c1.53,0,2.38-1.39,2.38-2.8
		c0-3.6-5.36-3.34-5.36-7.74c0-2.14,1.32-4.16,3.62-4.16c0.94,0,1.69,0.31,2.45,0.85V247.9z"/>
	<path class="st1" d="M139.21,246.77v14.35h-1.46v-14.35h-2.35v-1.34h6.16v1.34L139.21,246.77L139.21,246.77z"/>
	<path class="st1" d="M152.64,261.12v-8.09h-3.57v8.09h-1.46v-15.69h1.46v6.26h3.57v-6.26h1.46v15.69H152.64z"/>
	<path class="st1" d="M161.37,261.12v-15.69h4.89v1.34h-3.43v5.53h3.34v1.34h-3.34v6.14h3.43v1.34H161.37z"/>
	<path class="st1" d="M175.93,246.77v14.35h-1.46v-14.35h-2.35v-1.34h6.16v1.34L175.93,246.77L175.93,246.77z"/>
	<path class="st1" d="M184.33,261.12v-15.69h1.46v15.69H184.33z"/>
	<path class="st1" d="M198.86,260.67c-0.61,0.4-1.32,0.66-2.05,0.66c-1.13,0-2.16-0.63-2.82-1.53c-1.2-1.65-1.34-4.16-1.34-6.11
		c0-2.89,0.33-8.47,4.33-8.47c0.66,0,1.32,0.14,1.88,0.49v1.6c-0.54-0.35-1.13-0.68-1.81-0.68c-2.82,0-2.92,4.61-2.92,6.59
		c0,1.53,0.16,4.49,1.03,5.74c0.42,0.61,1.01,0.96,1.76,0.96c0.71,0,1.36-0.33,1.93-0.71v1.46H198.86z"/>
	<path class="st1" d="M210.53,247.9c-0.63-0.75-1.29-1.27-2.33-1.27c-1.43,0-2.26,1.22-2.26,2.56c0,3.62,5.36,3.39,5.36,7.74
		c0,2.26-1.53,4.42-3.93,4.42c-0.89,0-1.76-0.31-2.47-0.82v-1.88c0.68,0.71,1.51,1.27,2.54,1.27c1.53,0,2.38-1.39,2.38-2.8
		c0-3.6-5.36-3.34-5.36-7.74c0-2.14,1.32-4.16,3.62-4.16c0.94,0,1.69,0.31,2.45,0.85V247.9z"/>
</g>
<g>
	<path class="st0" d="M176.42,168.58l-2.4-0.48c-24.03-4.79-44.69-18.67-58.19-39.08s-18.17-44.86-13.16-68.85l0.5-2.4l2.4,0.48
		c24.03,4.79,44.69,18.67,58.19,39.08c13.49,20.41,18.17,44.86,13.16,68.85L176.42,168.58z"/>
	<path class="st0" d="M142.15,170.11l-0.63-2.27c-6.32-22.73-3.37-46.51,8.3-66.98c11.68-20.46,30.66-35.1,53.44-41.22l2.28-0.61
		l0.63,2.27c6.32,22.73,3.37,46.51-8.3,66.98c-11.68,20.46-30.66,35.1-53.44,41.22L142.15,170.11z"/>
	<path class="st2" d="M142.01,169.93l-0.66-2.36c-6.57-23.6-3.51-48.31,8.62-69.56c12.13-21.25,31.84-36.46,55.5-42.81l2.37-0.63
		l0.66,2.36c6.57,23.6,3.51,48.31-8.62,69.56c-12.13,21.25-31.84,36.46-55.5,42.81L142.01,169.93z M204.37,60.65
		c-21.32,6.37-39.04,20.43-50.1,39.81s-14.15,41.8-8.79,63.39c21.32-6.37,39.04-20.43,50.1-39.81
		C206.64,104.66,209.73,82.24,204.37,60.65z"/>
	<path class="st2" d="M168.46,169.93l-2.37-0.63c-23.66-6.35-43.38-21.55-55.51-42.81s-15.19-45.96-8.62-69.56l0.66-2.36l2.37,0.63
		c23.66,6.35,43.38,21.55,55.5,42.81c12.13,21.25,15.19,45.96,8.62,69.56L168.46,169.93z M106.09,60.65
		c-5.36,21.59-2.27,44.01,8.79,63.39s28.79,33.44,50.1,39.81c5.36-21.59,2.27-44.01-8.79-63.39
		C145.14,81.08,127.41,67.02,106.09,60.65z"/>
	<g>
		<path class="st3" d="M66.62,82.87c0.09,48.87,39.72,88.45,88.61,88.45c1.11,0,2.18-0.13,3.27-0.17
			c-0.09-48.87-39.72-88.45-88.61-88.45C68.79,82.71,67.72,82.83,66.62,82.87z"/>
		<path class="st2" d="M155.23,173.8c-50.13,0-90.99-40.79-91.08-90.92v-2.39l2.39-0.09c0.42-0.02,0.83-0.04,1.25-0.07
			c0.68-0.05,1.38-0.09,2.12-0.09c50.13,0,90.99,40.79,91.08,90.92v2.39l-2.39,0.09c-0.42,0.02-0.83,0.04-1.25,0.07
			C156.67,173.75,155.97,173.8,155.23,173.8z M69.13,85.2c1.32,46.34,39.47,83.65,86.1,83.65c0.25,0,0.51-0.01,0.77-0.02
			c-1.32-46.34-39.47-83.65-86.1-83.65C69.64,85.18,69.39,85.19,69.13,85.2z"/>
	</g>
	<g>
		<path class="st3" d="M243.84,82.87c-0.09,48.87-39.72,88.45-88.61,88.45c-1.11,0-2.85-9.91-2.07-14.61
			c6.97-41.99,43.45-74,87.41-74C241.67,82.71,242.75,82.83,243.84,82.87z"/>
		<path class="st2" d="M155.23,173.8c-0.82,0-1.58-0.37-2.14-1.03c-1.88-2.22-3.09-12.11-2.37-16.46
			c3.49-21.03,14.38-40.29,30.66-54.22c16.47-14.09,37.48-21.85,59.19-21.85c0.74,0,1.44,0.05,2.12,0.09
			c0.42,0.03,0.83,0.06,1.25,0.07l2.39,0.09v2.39C246.22,133.01,205.36,173.8,155.23,173.8z M240.57,85.18
			c-20.52,0-40.4,7.34-55.97,20.66c-15.4,13.18-25.7,31.39-29,51.28c-0.55,3.31,0.35,9.32,1.05,11.73
			c45.99-0.74,83.38-37.77,84.69-83.64C241.07,85.19,240.82,85.18,240.57,85.18z"/>
	</g>
	<path class="st3" d="M128.97,109.21c0,24.62,10.05,39.82,26.26,55.88c16.21-16.06,26.26-31.26,26.26-55.88
		s-10.05-46.88-26.26-62.94C139.03,62.33,128.97,84.59,128.97,109.21z"/>
	<path class="st2" d="M155.05,171.02c2.63-2.6,6.01-5.38,8.32-8.27c-1.47-1.72-2.59-3.17-3.14-4.06c-2.12-3.45-3.28-7.01-3.15-11.09
		c0.16-4.75,0.14-9.48,1.43-14.12c0.75-2.71,2.38-4.44,4.97-5.52c3.07-1.27,6.09-2.7,9.07-4.2c3.19-1.61,3.96-4.76,2.08-7.8
		c-0.41-0.66-0.9-1.34-1.27-1.99c0,0-0.03-0.02-0.05-0.06c-0.05-0.09-0.09-0.16-0.14-0.25c-0.08-0.17-0.16-0.36-0.24-0.57
		c-0.21-1.04,0.68-1.57,0.5-2.78c-0.2-1.3-1.1-1.82-1.37-1.95c-0.01-0.01-0.02-0.02-0.04-0.04c0-0.02,0-0.04,0.01-0.06
		c1.28-1.5,0.32-3.04,0.32-3.04c-0.35-0.11-0.71-0.15-0.99-0.33c-2.54-1.54-2.93-2.91-1.65-5.56c0.33-0.68,0.66-1.36,0.9-2.06
		c0.6-1.73,0.26-2.44-1.5-3.03c-1.26-0.43-2.59-0.68-3.84-1.14c-3.56-1.31-6.73-3.19-8.97-6.23c0.73-2.15,0.73-2.15,0.07-3.31
		c-0.32,0.51-0.61,0.98-1.08,1.73c-0.28-1.53-0.35-2.73-0.74-3.81c-0.38-1.05-0.87-2.33-1.72-2.89c-3.09-2.05-5.15-4.92-7.13-7.93
		c-1.46-2.23-3-4.47-5.33-5.89c-1.05-0.64-1.5-0.76-2.65-1.23c-6.07,12.1-10.25,24.95-10.25,39.43c0,9.87,0.33,19.9,2.97,28.85
		C134.84,146.73,144.22,160.29,155.05,171.02z"/>
	<path class="st2" d="M155.23,172.1l-1.74-1.72c-17.4-17.25-26.99-40.22-26.99-64.69s9.58-47.45,26.99-64.69l1.74-1.72l1.74,1.72
		c17.4,17.25,26.99,40.22,26.99,64.69s-9.59,47.45-26.99,64.69L155.23,172.1z M155.23,46.28c-15.36,16.1-23.79,37.09-23.79,59.41
		c0,22.31,8.43,43.31,23.79,59.41c15.36-16.1,23.79-37.09,23.79-59.41C179.02,83.37,170.59,62.37,155.23,46.28z"/>
</g>
<g class="st4">
	<path class="st5" d="M73.61,198.99v19.71c0,2.84-0.88,4.94-2.78,6.77c4,0,6.64,1.76,10.16,1.76c1.9,0,3.66-0.34,4.81-1.22
		c0.47-0.41,0.68-0.54,0.95-0.54c0.2,0,0.41,0.14,0.41,0.41c0,0.47-0.2,1.08-0.81,1.96c-0.68,0.95-2.3,3.45-5.62,3.45
		c-4.47,0-9.14-2.3-12.46-2.3c-1.63,0-3.45,0.95-4.2,1.56c-0.27,0.2-0.47,0.41-0.68,0.41c-0.34,0-0.54-0.2-0.54-0.54
		c0-0.34,0.61-1.08,0.81-1.29c0.54-0.61,1.56-1.35,2.84-2.51c1.9-1.56,1.96-5.28,1.96-7.86v-19.5c0-6.5,5.28-9.55,9.62-9.55
		c4.6,0,7.11,2.5,7.11,6.5c0,1.96-1.02,2.84-2.1,2.84c-1.02,0-1.69-0.61-1.69-1.62c0-1.42,1.35-1.9,1.35-2.84
		c0-1.56-1.49-3.18-4.13-3.18C75.91,191.41,73.61,194.19,73.61,198.99z"/>
	<path class="st5" d="M107.6,220.93c0.2,0,0.34,0.14,0.34,0.34c0,0.27-0.34,1.22-0.41,1.35c-0.61,1.29-1.69,2.17-3.59,2.17
		c-0.61,0-1.22-0.14-1.69-0.2c-0.88,4.4-3.45,6.7-6.64,6.7c-4.06,0-7.65-3.05-7.65-9.68c0-6.77,4.27-9.89,8.13-9.89
		c5.55,0,6.5,4.81,6.5,9.01c0,1.02,0,1.96-0.14,2.78c0.47,0.2,0.88,0.27,1.49,0.27c1.83,0,2.37-0.54,2.91-2.03
		C106.99,221.41,107.26,220.93,107.6,220.93z M100.9,224.19c-1.49-0.34-2.71-1.08-2.71-2.78c0-1.29,0.88-1.96,1.83-1.96
		c0.41,0,0.88,0.2,1.08,0.41c0-2.84-1.02-6.09-3.72-6.09c-2.23,0-4.2,2.44-4.2,7.79c0,5.15,1.96,7.45,4,7.45
		C98.73,228.99,100.35,227.3,100.9,224.19z"/>
	<path class="st5" d="M111.26,209.63v15.03c0,2.64,0.68,3.59,1.69,3.59c1.49,0,2.91-3.39,4.33-6.5c0.27-0.54,0.41-0.81,0.74-0.81
		c0.2,0,0.34,0.14,0.34,0.34c0,0.27-0.2,0.81-0.41,1.35c-1.29,2.84-3.18,8.6-7.25,8.6c-2.3,0-3.86-1.96-3.86-5.76v-15.85h-1.83
		c0,0-0.61,0-0.61-0.61s0.61-0.61,0.61-0.61h1.83v-5.42c0-1.83,2.3-4.27,4.47-4.27c0.2,0,0.41,0.07,0.41,0.34
		c0,0.54-0.47,1.08-0.47,2.57v6.77h3.32c0,0,0.61,0,0.61,0.61s-0.61,0.61-0.61,0.61H111.26z"/>
	<path class="st5" d="M134.14,224.66c0,2.64,0.68,3.59,1.69,3.59c1.22,0,2.37-2.1,4.4-6.5c0.07-0.2,0.27-0.81,0.68-0.81
		c0.2,0,0.34,0.14,0.34,0.34c0,0.27-0.2,0.81-0.41,1.35c-1.29,2.84-3.18,8.6-7.25,8.6c-2.3,0-3.86-1.96-3.86-5.76v-3.32
		c-1.42,4.27-4.33,9.07-8.33,9.07c-2.44,0-4.13-1.96-4.13-5.76v-9.68c0-1.9,2.3-4.33,4.47-4.33c0.2,0,0.41,0.14,0.41,0.41
		c0,0.47-0.47,1.08-0.47,2.57v10.23c0,2.64,0.68,3.59,1.9,3.59c2.44,0,6.16-7.65,6.16-12.46c0-1.9,2.3-4.33,4.47-4.33
		c0.2,0,0.41,0.14,0.41,0.41c0,0.47-0.47,1.08-0.47,2.57V224.66z"/>
	<path class="st5" d="M148.36,218.97c1.9,2.1,3.12,3.18,3.25,5.62c1.62-0.34,2.44-1.15,3.25-2.84c0.27-0.54,0.41-0.81,0.75-0.81
		c0.2,0,0.34,0.14,0.34,0.34c0,0.27-0.34,1.22-0.41,1.35c-0.81,1.9-2.17,2.71-3.86,2.91c-0.07,3.59-3.52,5.49-6.57,5.49
		c-2.78,0-4.13-1.22-4.13-2.78c0-2.91,3.86-3.72,5.55-3.72c-0.27-0.95-0.88-1.83-1.56-2.91c-1.15-1.83-2.23-3.93-2.23-3.93
		l-1.56,4.2c-0.2,0.47-0.47,1.08-0.75,1.08s-0.47-0.2-0.47-0.41c0-0.41,0.2-0.61,0.27-0.81l1.69-4.61c1.08-3.18,2.1-6.57,4.4-6.57
		c1.42,0,2.1,0.81,2.1,1.9c0,1.63-1.15,2.03-1.96,2.24c-0.27,0.07-0.68,0.34-0.68,0.75C145.79,216.26,146.46,216.87,148.36,218.97z
		 M143.89,229.6c2.03,0,2.84-2.3,2.84-4c-1.56,0-4.54,0.68-4.54,2.44C142.2,229.06,142.94,229.6,143.89,229.6z"/>
	<path class="st5" d="M181.34,198.99v19.71c0,2.84-0.88,4.94-2.78,6.77c4,0,6.64,1.76,10.16,1.76c1.9,0,3.66-0.34,4.81-1.22
		c0.47-0.41,0.68-0.54,0.95-0.54c0.2,0,0.41,0.14,0.41,0.41c0,0.47-0.2,1.08-0.81,1.96c-0.68,0.95-2.3,3.45-5.62,3.45
		c-4.47,0-9.14-2.3-12.46-2.3c-1.63,0-3.45,0.95-4.2,1.56c-0.27,0.2-0.47,0.41-0.68,0.41c-0.34,0-0.54-0.2-0.54-0.54
		c0-0.34,0.61-1.08,0.81-1.29c0.54-0.61,1.56-1.35,2.84-2.51c1.9-1.56,1.96-5.28,1.96-7.86v-19.5c0-6.5,5.28-9.55,9.62-9.55
		c4.61,0,7.11,2.5,7.11,6.5c0,1.96-1.02,2.84-2.1,2.84c-1.02,0-1.69-0.61-1.69-1.62c0-1.42,1.35-1.9,1.35-2.84
		c0-1.56-1.49-3.18-4.13-3.18C183.64,191.41,181.34,194.19,181.34,198.99z"/>
	<path class="st5" d="M212.42,220.93c0.27,0,0.41,0.14,0.41,0.34c0,0.27-0.2,0.81-0.47,1.35c-1.22,2.78-4.13,8.6-9.28,8.6
		c-4.4,0-7.38-3.05-7.38-8.6c0-7.99,5.01-10.9,8.4-10.9c2.84,0,4.06,1.56,4.06,3.72c0,3.72-3.32,7.52-7.18,8.13
		c0,3.39,1.62,5.28,3.66,5.28c3.12,0,5.76-4,7.11-7.11C211.94,221.21,212.08,220.93,212.42,220.93z M200.97,222.29
		c3.18-0.41,5.82-3.86,5.82-6.7c0-1.69-0.68-2.44-1.83-2.44C203.34,213.15,200.97,215.79,200.97,222.29z"/>
	<path class="st5" d="M230.29,228.59c2.03,0,3.32-3.39,4.88-6.84c0.27-0.54,0.34-0.81,0.68-0.81c0.27,0,0.41,0.14,0.41,0.34
		c0,0.27-0.2,0.81-0.47,1.35c-1.15,2.64-3.12,8.6-7.18,8.6c-4.06,0-4.54-3.18-4.54-6.98c-0.88,2.44-2.84,6.98-6.91,6.98
		c-3.05,0-5.42-2.64-5.42-7.58c0-8.06,5.21-11.92,9.01-11.92c3.05,0,4,1.29,4.74,2.64c0.27-1.35,1.35-2.1,2.37-2.51
		c0.54-0.2,1.22-0.41,1.56-0.41c0.27,0,0.41,0.14,0.41,0.41c0,0.27-0.14,0.61-0.41,1.35c-0.68,2.17-0.81,5.62-0.81,8.33
		C228.6,227.17,228.87,228.59,230.29,228.59z M216.95,223.24c0,2.98,0.81,4.94,2.57,4.94c2.3,0,4.94-7.99,4.94-11.65
		c0-1.9-1.15-3.25-2.98-3.25C219.12,213.28,216.95,216.94,216.95,223.24z"/>
	<path class="st5" d="M235.17,225.2c-1.02-0.54-2.44-1.35-2.64-1.56c-0.41-0.34-0.74-0.95-0.74-1.62c0-0.75,0.61-1.49,1.35-1.49
		c1.02,0,1.63,0.75,2.03,1.49c0-7.65,0-15.3,0.68-21.67c0.88-8.67,3.66-11.11,6.57-11.11c2.84,0,3.59,2.64,3.59,5.89
		c0,7.79-2.78,15.91-6.43,22.75v7.38c0,0,0.81,0.41,1.96,0.41c2.98,0,5.42-1.96,6.43-4.94c0.13-0.47,0.27-0.81,0.61-0.81
		s0.41,0.2,0.41,0.47c0,0.2,0,0.27-0.27,1.02c-1.35,3.79-4.13,5.35-7.25,5.35c-0.95,0-1.9-0.41-1.9-0.41v23.36
		c0,1.69-1.35,2.84-2.84,3.72c-1.02,0.61-1.63,0.61-1.83,0.61s-0.34-0.14-0.34-0.34c0-0.27,0.2-0.68,0.41-1.42
		c0.2-0.88,0.2-5.76,0.2-8.33V225.2z M239.63,215.25c2.71-5.28,5.15-13,5.15-20.11c0-2.91-0.61-3.79-1.49-3.79
		c-1.08,0-2.17,1.42-3.05,9.68C239.77,205.43,239.63,210.84,239.63,215.25z"/>
</g>
</svg>
